WixMadeforDisplay-SemiBold.ufo
<glyph name="exclam" format="2">
	<unicode hex="0021"/>
	<advance width="248"/>
	<outline>
		<contour>
			<point x="197" y="62" type="curve" smooth="yes"/>
			<point x="197" y="103"/>
			<point x="165" y="134"/>
			<point x="124" y="134" type="curve" smooth="yes"/>
			<point x="83" y="134"/>
			<point x="50" y="103"/>
			<point x="50" y="62" type="curve" smooth="yes"/>
			<point x="50" y="22"/>
			<point x="83" y="-10"/>
			<point x="124" y="-10" type="curve" smooth="yes"/>
			<point x="165" y="-10"/>
			<point x="197" y="22"/>
		</contour>
		<contour>
			<point x="153" y="217" type="line"/>
			<point x="159" y="281"/>
			<point x="188" y="644"/>
			<point x="188" y="669" type="curve" smooth="yes"/>
			<point x="188" y="705"/>
			<point x="160" y="731"/>
			<point x="124" y="731" type="curve" smooth="yes"/>
			<point x="88" y="731"/>
			<point x="59" y="705"/>
			<point x="59" y="669" type="curve" smooth="yes"/>
			<point x="59" y="644"/>
			<point x="88" y="281"/>
			<point x="95" y="217" type="curve"/>
		</contour>
	</outline>
</glyph>
<glyph name="numbersign" format="2">
	<unicode hex="0023"/>
	<advance width="689"/>
	<outline>
		<contour>
			<point x="448" y="0" type="line"/>
			<point x="600" y="715" type="line"/>
			<point x="501" y="715" type="line"/>
			<point x="349" y="0" type="line"/>
		</contour>
		<contour>
			<point x="574" y="178" type="line"/>
			<point x="592" y="265" type="line"/>
			<point x="56" y="265" type="line"/>
			<point x="38" y="178" type="line"/>
		</contour>
		<contour>
			<point x="240" y="715" type="line"/>
			<point x="88" y="0" type="line"/>
			<point x="187" y="0" type="line"/>
			<point x="339" y="715" type="line"/>
		</contour>
		<contour>
			<point x="114" y="537" type="line"/>
			<point x="96" y="450" type="line"/>
			<point x="632" y="450" type="line"/>
			<point x="650" y="537" type="line"/>
		</contour>
	</outline>
</glyph>
<glyph name="dollar" format="2">
	<unicode hex="0024"/>
	<advance width="660"/>
	<outline>
		<contour>
			<point x="53" y="121" type="line"/>
			<point x="120" y="41"/>
			<point x="219" y="-6"/>
			<point x="338" y="-6" type="curve" smooth="yes"/>
			<point x="493" y="-6"/>
			<point x="611" y="81"/>
			<point x="611" y="206" type="curve" smooth="yes"/>
			<point x="611" y="321"/>
			<point x="532" y="384"/>
			<point x="342" y="414" type="curve" smooth="yes"/>
			<point x="224" y="433"/>
			<point x="181" y="461"/>
			<point x="181" y="523" type="curve" smooth="yes"/>
			<point x="181" y="586"/>
			<point x="243" y="631"/>
			<point x="337" y="631" type="curve" smooth="yes"/>
			<point x="407" y="631"/>
			<point x="472" y="593"/>
			<point x="519" y="525" type="curve"/>
			<point x="591" y="594" type="line"/>
			<point x="527" y="674"/>
			<point x="436" y="721"/>
			<point x="335" y="721" type="curve" smooth="yes"/>
			<point x="188" y="721"/>
			<point x="78" y="635"/>
			<point x="78" y="518" type="curve" smooth="yes"/>
			<point x="78" y="409"/>
			<point x="154" y="348"/>
			<point x="327" y="321" type="curve" smooth="yes"/>
			<point x="459" y="300"/>
			<point x="508" y="267"/>
			<point x="508" y="202" type="curve" smooth="yes"/>
			<point x="508" y="131"/>
			<point x="435" y="84"/>
			<point x="336" y="84" type="curve" smooth="yes"/>
			<point x="252" y="84"/>
			<point x="179" y="122"/>
			<point x="125" y="190" type="curve"/>
		</contour>
		<contour>
			<point x="375" y="373" type="line"/>
			<point x="375" y="831" type="line"/>
			<point x="307" y="831" type="line"/>
			<point x="307" y="373" type="line"/>
		</contour>
		<contour>
			<point x="373" y="-116" type="line"/>
			<point x="373" y="363" type="line"/>
			<point x="305" y="363" type="line"/>
			<point x="305" y="-116" type="line"/>
		</contour>
	</outline>
</glyph>
<glyph name="ampersand" format="1">
  <advance width="696"/>
  <unicode hex="0026"/>
  <outline>
    <contour>
      <point x="667" y="297" type="line"/>
      <point x="587" y="354" type="line"/>
      <point x="477" y="201" type="line" smooth="yes"/>
      <point x="408" y="103"/>
      <point x="352" y="75"/>
      <point x="287" y="75" type="curve" smooth="yes"/>
      <point x="207" y="75"/>
      <point x="155" y="128"/>
      <point x="155" y="196" type="curve" smooth="yes"/>
      <point x="155" y="262"/>
      <point x="198" y="314"/>
      <point x="295" y="348" type="curve"/>
      <point x="272" y="418" type="line"/>
      <point x="115" y="371"/>
      <point x="40" y="296"/>
      <point x="40" y="187" type="curve" smooth="yes"/>
      <point x="40" y="72"/>
      <point x="134" y="-16"/>
      <point x="282" y="-16" type="curve" smooth="yes"/>
      <point x="389" y="-16"/>
      <point x="469" y="28"/>
      <point x="556" y="143" type="curve" smooth="yes"/>
    </contour>
    <contour>
      <point x="689" y="64" type="line"/>
      <point x="338" y="384" type="line"/>
      <point x="318" y="400" type="line"/>
      <point x="240" y="464"/>
      <point x="213" y="504"/>
      <point x="213" y="551" type="curve" smooth="yes"/>
      <point x="213" y="603"/>
      <point x="256" y="644"/>
      <point x="308" y="644" type="curve" smooth="yes"/>
      <point x="364" y="644"/>
      <point x="405" y="603"/>
      <point x="405" y="549" type="curve" smooth="yes"/>
      <point x="405" y="489"/>
      <point x="356" y="446"/>
      <point x="278" y="420" type="curve"/>
      <point x="304" y="351" type="line"/>
      <point x="420" y="387"/>
      <point x="506" y="458"/>
      <point x="506" y="554" type="curve" smooth="yes"/>
      <point x="506" y="651"/>
      <point x="420" y="731"/>
      <point x="307" y="731" type="curve" smooth="yes"/>
      <point x="196" y="731"/>
      <point x="108" y="652"/>
      <point x="108" y="555" type="curve" smooth="yes"/>
      <point x="108" y="490"/>
      <point x="137" y="437"/>
      <point x="229" y="353" type="curve"/>
      <point x="246" y="338" type="line"/>
      <point x="619" y="-10" type="line"/>
    </contour>
  </outline>
</glyph>
<glyph name="quotesingle" format="1">
  <advance width="248"/>
  <unicode hex="0027"/>
  <outline>
    <contour>
      <point x="146" y="485" type="line"/>
      <point x="165" y="568"/>
      <point x="180" y="655"/>
      <point x="180" y="684" type="curve" smooth="yes"/>
      <point x="180" y="720"/>
      <point x="155" y="743"/>
      <point x="124" y="743" type="curve" smooth="yes"/>
      <point x="93" y="743"/>
      <point x="68" y="720"/>
      <point x="68" y="684" type="curve" smooth="yes"/>
      <point x="68" y="655"/>
      <point x="83" y="568"/>
      <point x="103" y="485" type="curve"/>
    </contour>
  </outline>
</glyph>
<glyph name="parenleft" format="2">
	<unicode hex="0028"/>
	<advance width="334"/>
	<outline>
		<contour>
			<point x="51" y="301" type="curve" smooth="yes"/>
			<point x="51" y="141"/>
			<point x="101" y="-6"/>
			<point x="193" y="-129" type="curve"/>
			<point x="301" y="-129" type="line"/>
			<point x="207" y="10"/>
			<point x="160" y="152"/>
			<point x="160" y="301" type="curve" smooth="yes"/>
			<point x="160" y="451"/>
			<point x="207" y="592"/>
			<point x="301" y="731" type="curve"/>
			<point x="193" y="731" type="line"/>
			<point x="101" y="608"/>
			<point x="51" y="462"/>
		</contour>
	</outline>
</glyph>
<glyph name="parenright" format="2">
	<unicode hex="0029"/>
	<advance width="334"/>
	<outline>
		<contour>
			<point x="282" y="301" type="curve" smooth="yes"/>
			<point x="282" y="462"/>
			<point x="233" y="608"/>
			<point x="141" y="731" type="curve"/>
			<point x="33" y="731" type="line"/>
			<point x="127" y="592"/>
			<point x="174" y="451"/>
			<point x="174" y="301" type="curve" smooth="yes"/>
			<point x="174" y="152"/>
			<point x="127" y="10"/>
			<point x="33" y="-129" type="curve"/>
			<point x="141" y="-129" type="line"/>
			<point x="233" y="-6"/>
			<point x="282" y="141"/>
		</contour>
	</outline>
</glyph>
<glyph name="asterisk" format="2">
	<unicode hex="002A"/>
	<advance width="431"/>
	<outline>
		<contour>
			<point x="216" y="487" type="curve"/>
			<point x="237" y="431"/>
			<point x="258" y="388"/>
			<point x="271" y="371" type="curve" smooth="yes"/>
			<point x="281" y="356"/>
			<point x="295" y="349"/>
			<point x="310" y="349" type="curve" smooth="yes"/>
			<point x="335" y="349"/>
			<point x="356" y="370"/>
			<point x="356" y="392" type="curve" smooth="yes"/>
			<point x="356" y="404"/>
			<point x="352" y="415"/>
			<point x="344" y="426" type="curve" smooth="yes"/>
			<point x="332" y="443"/>
			<point x="300" y="476"/>
			<point x="252" y="513" type="curve"/>
			<point x="314" y="517"/>
			<point x="353" y="524"/>
			<point x="373" y="530" type="curve" smooth="yes"/>
			<point x="395" y="537"/>
			<point x="408" y="553"/>
			<point x="408" y="573" type="curve" smooth="yes"/>
			<point x="408" y="600"/>
			<point x="390" y="620"/>
			<point x="364" y="620" type="curve" smooth="yes"/>
			<point x="356" y="620"/>
			<point x="349" y="619"/>
			<point x="338" y="615" type="curve" smooth="yes"/>
			<point x="319" y="607"/>
			<point x="289" y="592"/>
			<point x="239" y="556" type="curve"/>
			<point x="254" y="615"/>
			<point x="262" y="661"/>
			<point x="262" y="682" type="curve" smooth="yes"/>
			<point x="262" y="713"/>
			<point x="244" y="731"/>
			<point x="216" y="731" type="curve" smooth="yes"/>
			<point x="187" y="731"/>
			<point x="169" y="713"/>
			<point x="169" y="682" type="curve" smooth="yes"/>
			<point x="169" y="661"/>
			<point x="177" y="615"/>
			<point x="192" y="556" type="curve"/>
			<point x="142" y="592"/>
			<point x="112" y="607"/>
			<point x="93" y="615" type="curve" smooth="yes"/>
			<point x="83" y="619"/>
			<point x="75" y="620"/>
			<point x="67" y="620" type="curve" smooth="yes"/>
			<point x="41" y="620"/>
			<point x="23" y="600"/>
			<point x="23" y="573" type="curve" smooth="yes"/>
			<point x="23" y="553"/>
			<point x="36" y="537"/>
			<point x="59" y="530" type="curve" smooth="yes"/>
			<point x="78" y="524"/>
			<point x="118" y="517"/>
			<point x="179" y="513" type="curve"/>
			<point x="132" y="476"/>
			<point x="99" y="443"/>
			<point x="87" y="426" type="curve" smooth="yes"/>
			<point x="79" y="415"/>
			<point x="75" y="404"/>
			<point x="75" y="392" type="curve" smooth="yes"/>
			<point x="75" y="370"/>
			<point x="97" y="349"/>
			<point x="121" y="349" type="curve" smooth="yes"/>
			<point x="136" y="349"/>
			<point x="150" y="356"/>
			<point x="161" y="371" type="curve" smooth="yes"/>
			<point x="173" y="388"/>
			<point x="194" y="431"/>
		</contour>
	</outline>
</glyph>
<glyph name="plus" format="1">
  <advance width="660"/>
  <unicode hex="002B"/>
  <outline>
    <contour>
      <point x="547" y="312" type="line"/>
      <point x="547" y="403" type="line"/>
      <point x="113" y="403" type="line"/>
      <point x="113" y="312" type="line"/>
    </contour>
    <contour>
      <point x="375" y="140" type="line"/>
      <point x="375" y="575" type="line"/>
      <point x="285" y="575" type="line"/>
      <point x="285" y="140" type="line"/>
    </contour>
  </outline>
</glyph>
<glyph name="comma" format="1">
  <advance width="248"/>
  <unicode hex="002C"/>
  <outline>
    <contour>
      <point x="118" y="-128" type="line"/>
      <point x="160" y="-80"/>
      <point x="198" y="-4"/>
      <point x="198" y="50" type="curve" smooth="yes"/>
      <point x="198" y="100"/>
      <point x="166" y="134"/>
      <point x="121" y="134" type="curve" smooth="yes"/>
      <point x="82" y="134"/>
      <point x="51" y="103"/>
      <point x="51" y="63" type="curve" smooth="yes"/>
      <point x="51" y="23"/>
      <point x="83" y="-8"/>
      <point x="124" y="-8" type="curve"/>
      <point x="107" y="15" type="line"/>
      <point x="110" y="-23"/>
      <point x="85" y="-82"/>
      <point x="48" y="-128" type="curve"/>
    </contour>
  </outline>
</glyph>
<glyph name="hyphen" format="2">
	<unicode hex="002D"/>
	<advance width="336"/>
	<outline>
		<contour>
			<point x="306" y="238" type="line"/>
			<point x="306" y="334" type="line"/>
			<point x="30" y="334" type="line"/>
			<point x="30" y="238" type="line"/>
		</contour>
	</outline>
</glyph>
<glyph name="period" format="1">
  <advance width="248"/>
  <unicode hex="002E"/>
  <outline>
    <contour>
      <point x="198" y="62" type="curve" smooth="yes"/>
      <point x="198" y="103"/>
      <point x="165" y="134"/>
      <point x="124" y="134" type="curve" smooth="yes"/>
      <point x="83" y="134"/>
      <point x="51" y="103"/>
      <point x="51" y="62" type="curve" smooth="yes"/>
      <point x="51" y="22"/>
      <point x="83" y="-10"/>
      <point x="124" y="-10" type="curve" smooth="yes"/>
      <point x="165" y="-10"/>
      <point x="198" y="22"/>
    </contour>
  </outline>
</glyph>
<glyph name="slash" format="2">
	<unicode hex="002F"/>
	<advance width="498"/>
	<outline>
		<contour>
			<point x="157" y="0" type="line"/>
			<point x="447" y="731" type="line"/>
			<point x="341" y="731" type="line"/>
			<point x="51" y="0" type="line"/>
		</contour>
	</outline>
</glyph>
<glyph name="zero" format="2">
	<unicode hex="0030"/>
	<advance width="652"/>
	<outline>
		<contour>
			<point x="326" y="-16" type="curve" smooth="yes"/>
			<point x="499" y="-16"/>
			<point x="602" y="122"/>
			<point x="602" y="357" type="curve" smooth="yes"/>
			<point x="602" y="594"/>
			<point x="499" y="731"/>
			<point x="326" y="731" type="curve" smooth="yes"/>
			<point x="153" y="731"/>
			<point x="49" y="594"/>
			<point x="49" y="357" type="curve" smooth="yes"/>
			<point x="49" y="122"/>
			<point x="153" y="-16"/>
		</contour>
		<contour>
			<point x="326" y="78" type="curve" smooth="yes"/>
			<point x="224" y="78"/>
			<point x="166" y="176"/>
			<point x="166" y="357" type="curve" smooth="yes"/>
			<point x="166" y="539"/>
			<point x="224" y="637"/>
			<point x="326" y="637" type="curve" smooth="yes"/>
			<point x="427" y="637"/>
			<point x="486" y="539"/>
			<point x="486" y="357" type="curve" smooth="yes"/>
			<point x="486" y="176"/>
			<point x="427" y="78"/>
		</contour>
	</outline>
</glyph>
<glyph name="one" format="2">
	<unicode hex="0031"/>
	<advance width="476"/>
	<outline>
		<contour>
			<point x="271" y="715" type="line"/>
			<point x="76" y="581" type="line"/>
			<point x="76" y="464" type="line"/>
			<point x="257" y="594" type="line"/>
			<point x="257" y="0" type="line"/>
			<point x="371" y="0" type="line"/>
			<point x="371" y="715" type="line"/>
		</contour>
	</outline>
</glyph>
<glyph name="two" format="2">
	<unicode hex="0032"/>
	<advance width="598"/>
	<outline>
		<contour>
			<point x="537" y="0" type="line"/>
			<point x="537" y="93" type="line"/>
			<point x="192" y="93" type="line"/>
			<point x="244" y="138"/>
			<point x="309" y="195"/>
			<point x="360" y="242" type="curve" smooth="yes"/>
			<point x="478" y="346"/>
			<point x="533" y="420"/>
			<point x="533" y="513" type="curve" smooth="yes"/>
			<point x="533" y="637"/>
			<point x="441" y="731"/>
			<point x="298" y="731" type="curve" smooth="yes"/>
			<point x="191" y="731"/>
			<point x="105" y="683"/>
			<point x="38" y="593" type="curve"/>
			<point x="113" y="520" type="line"/>
			<point x="161" y="595"/>
			<point x="222" y="635"/>
			<point x="293" y="635" type="curve" smooth="yes"/>
			<point x="368" y="635"/>
			<point x="421" y="581"/>
			<point x="421" y="513" type="curve" smooth="yes"/>
			<point x="421" y="453"/>
			<point x="383" y="400"/>
			<point x="310" y="332" type="curve" smooth="yes"/>
			<point x="48" y="93" type="line"/>
			<point x="48" y="0" type="line"/>
		</contour>
	</outline>
</glyph>
<glyph name="three" format="2">
	<unicode hex="0033"/>
	<advance width="614"/>
	<outline>
		<contour>
			<point x="32" y="108" type="line"/>
			<point x="100" y="29"/>
			<point x="193" y="-16"/>
			<point x="301" y="-16" type="curve" smooth="yes"/>
			<point x="460" y="-16"/>
			<point x="568" y="78"/>
			<point x="568" y="201" type="curve" smooth="yes"/>
			<point x="568" y="315"/>
			<point x="469" y="396"/>
			<point x="325" y="396" type="curve"/>
			<point x="307" y="359" type="line"/>
			<point x="450" y="359"/>
			<point x="548" y="432"/>
			<point x="548" y="533" type="curve" smooth="yes"/>
			<point x="548" y="644"/>
			<point x="449" y="731"/>
			<point x="305" y="731" type="curve" smooth="yes"/>
			<point x="204" y="731"/>
			<point x="116" y="686"/>
			<point x="52" y="607" type="curve"/>
			<point x="127" y="534" type="line"/>
			<point x="171" y="598"/>
			<point x="229" y="635"/>
			<point x="302" y="635" type="curve" smooth="yes"/>
			<point x="378" y="635"/>
			<point x="431" y="592"/>
			<point x="431" y="525" type="curve" smooth="yes"/>
			<point x="431" y="461"/>
			<point x="373" y="418"/>
			<point x="295" y="418" type="curve" smooth="yes"/>
			<point x="228" y="418" type="line"/>
			<point x="228" y="324" type="line"/>
			<point x="295" y="324" type="line" smooth="yes"/>
			<point x="385" y="324"/>
			<point x="451" y="279"/>
			<point x="451" y="205" type="curve" smooth="yes"/>
			<point x="451" y="129"/>
			<point x="389" y="80"/>
			<point x="298" y="80" type="curve" smooth="yes"/>
			<point x="219" y="80"/>
			<point x="155" y="117"/>
			<point x="107" y="181" type="curve"/>
		</contour>
	</outline>
</glyph>
<glyph name="four" format="1">
  <advance width="660"/>
  <unicode hex="0034"/>
  <outline>
    <contour>
      <point x="518" y="0" type="line"/>
      <point x="518" y="158" type="line"/>
      <point x="622" y="158" type="line"/>
      <point x="622" y="249" type="line"/>
      <point x="518" y="249" type="line"/>
      <point x="518" y="715" type="line"/>
      <point x="406" y="715" type="line"/>
      <point x="40" y="249" type="line"/>
      <point x="40" y="158" type="line"/>
      <point x="406" y="158" type="line"/>
      <point x="406" y="0" type="line"/>
    </contour>
    <contour>
      <point x="406" y="571" type="line"/>
      <point x="406" y="249" type="line"/>
      <point x="151" y="249" type="line"/>
    </contour>
  </outline>
</glyph>
<glyph name="five" format="2">
	<unicode hex="0035"/>
	<advance width="606"/>
	<outline>
		<contour>
			<point x="111" y="191" type="curve"/>
			<point x="36" y="119" type="line"/>
			<point x="101" y="30"/>
			<point x="190" y="-16"/>
			<point x="300" y="-16" type="curve" smooth="yes"/>
			<point x="451" y="-16"/>
			<point x="565" y="91"/>
			<point x="565" y="239" type="curve" smooth="yes"/>
			<point x="565" y="379"/>
			<point x="465" y="480"/>
			<point x="325" y="480" type="curve" smooth="yes"/>
			<point x="214" y="480"/>
			<point x="137" y="412"/>
			<point x="117" y="310" type="curve"/>
			<point x="157" y="307" type="line"/>
			<point x="192" y="358"/>
			<point x="241" y="387"/>
			<point x="303" y="387" type="curve" smooth="yes"/>
			<point x="389" y="387"/>
			<point x="451" y="326"/>
			<point x="451" y="239" type="curve" smooth="yes"/>
			<point x="451" y="148"/>
			<point x="387" y="80"/>
			<point x="297" y="80" type="curve" smooth="yes"/>
			<point x="217" y="80"/>
			<point x="156" y="123"/>
		</contour>
		<contour>
			<point x="522" y="622" type="line"/>
			<point x="522" y="715" type="line"/>
			<point x="106" y="715" type="line"/>
			<point x="57" y="307" type="line"/>
			<point x="157" y="307" type="line"/>
			<point x="200" y="672" type="line"/>
			<point x="151" y="622" type="line"/>
		</contour>
	</outline>
</glyph>
<glyph name="six" format="1">
  <advance width="631"/>
  <unicode hex="0036"/>
  <outline>
    <contour>
      <point x="316" y="-16" type="curve" smooth="yes"/>
      <point x="473" y="-16"/>
      <point x="589" y="90"/>
      <point x="589" y="237" type="curve" smooth="yes"/>
      <point x="589" y="377"/>
      <point x="480" y="476"/>
      <point x="341" y="476" type="curve" smooth="yes"/>
      <point x="262" y="476"/>
      <point x="197" y="436"/>
      <point x="162" y="375" type="curve"/>
      <point x="178" y="368" type="line"/>
      <point x="214" y="468"/>
      <point x="301" y="569"/>
      <point x="489" y="715" type="curve"/>
      <point x="337" y="715" type="line"/>
      <point x="153" y="566"/>
      <point x="46" y="417"/>
      <point x="46" y="255" type="curve" smooth="yes"/>
      <point x="46" y="96"/>
      <point x="156" y="-16"/>
    </contour>
    <contour>
      <point x="317" y="79" type="curve" smooth="yes"/>
      <point x="225" y="79"/>
      <point x="159" y="146"/>
      <point x="159" y="234" type="curve" smooth="yes"/>
      <point x="159" y="321"/>
      <point x="225" y="386"/>
      <point x="317" y="386" type="curve" smooth="yes"/>
      <point x="409" y="386"/>
      <point x="476" y="321"/>
      <point x="476" y="234" type="curve" smooth="yes"/>
      <point x="476" y="146"/>
      <point x="409" y="79"/>
    </contour>
  </outline>
</glyph>
<glyph name="seven" format="2">
	<unicode hex="0037"/>
	<advance width="600"/>
	<outline>
		<contour>
			<point x="551" y="715" type="line"/>
			<point x="49" y="715" type="line"/>
			<point x="49" y="621" type="line"/>
			<point x="432" y="621" type="line"/>
			<point x="81" y="0" type="line"/>
			<point x="206" y="0" type="line"/>
			<point x="551" y="621" type="line"/>
		</contour>
	</outline>
</glyph>
<glyph name="eight" format="1">
  <advance width="637"/>
  <unicode hex="0038"/>
  <outline>
    <contour>
      <point x="318" y="-16" type="curve" smooth="yes"/>
      <point x="479" y="-16"/>
      <point x="591" y="74"/>
      <point x="591" y="197" type="curve" smooth="yes"/>
      <point x="591" y="317"/>
      <point x="477" y="403"/>
      <point x="318" y="403" type="curve" smooth="yes"/>
      <point x="161" y="403"/>
      <point x="45" y="317"/>
      <point x="45" y="197" type="curve" smooth="yes"/>
      <point x="45" y="74"/>
      <point x="158" y="-16"/>
    </contour>
    <contour>
      <point x="318" y="355" type="curve" smooth="yes"/>
      <point x="460" y="355"/>
      <point x="564" y="430"/>
      <point x="564" y="535" type="curve" smooth="yes"/>
      <point x="564" y="647"/>
      <point x="463" y="731"/>
      <point x="318" y="731" type="curve" smooth="yes"/>
      <point x="174" y="731"/>
      <point x="73" y="647"/>
      <point x="73" y="535" type="curve" smooth="yes"/>
      <point x="73" y="430"/>
      <point x="176" y="355"/>
    </contour>
    <contour>
      <point x="318" y="78" type="curve" smooth="yes"/>
      <point x="230" y="78"/>
      <point x="162" y="130"/>
      <point x="162" y="201" type="curve" smooth="yes"/>
      <point x="162" y="273"/>
      <point x="230" y="324"/>
      <point x="318" y="324" type="curve" smooth="yes"/>
      <point x="407" y="324"/>
      <point x="475" y="273"/>
      <point x="475" y="201" type="curve" smooth="yes"/>
      <point x="475" y="130"/>
      <point x="407" y="78"/>
    </contour>
    <contour>
      <point x="318" y="417" type="curve" smooth="yes"/>
      <point x="244" y="417"/>
      <point x="187" y="464"/>
      <point x="187" y="527" type="curve" smooth="yes"/>
      <point x="187" y="590"/>
      <point x="244" y="638"/>
      <point x="318" y="638" type="curve" smooth="yes"/>
      <point x="393" y="638"/>
      <point x="450" y="590"/>
      <point x="450" y="527" type="curve" smooth="yes"/>
      <point x="450" y="464"/>
      <point x="393" y="417"/>
    </contour>
  </outline>
</glyph>
<glyph name="nine" format="2">
	<unicode hex="0039"/>
	<advance width="631"/>
	<outline>
		<contour>
			<point x="315" y="731" type="curve" smooth="yes"/>
			<point x="159" y="731"/>
			<point x="43" y="625"/>
			<point x="43" y="478" type="curve" smooth="yes"/>
			<point x="43" y="338"/>
			<point x="152" y="239"/>
			<point x="290" y="239" type="curve" smooth="yes"/>
			<point x="369" y="239"/>
			<point x="434" y="279"/>
			<point x="469" y="340" type="curve"/>
			<point x="453" y="347" type="line"/>
			<point x="418" y="247"/>
			<point x="331" y="146"/>
			<point x="142" y="0" type="curve"/>
			<point x="294" y="0" type="line"/>
			<point x="478" y="149"/>
			<point x="585" y="298"/>
			<point x="585" y="460" type="curve" smooth="yes"/>
			<point x="585" y="619"/>
			<point x="475" y="731"/>
		</contour>
		<contour>
			<point x="314" y="636" type="curve" smooth="yes"/>
			<point x="407" y="636"/>
			<point x="473" y="569"/>
			<point x="473" y="481" type="curve" smooth="yes"/>
			<point x="473" y="394"/>
			<point x="407" y="329"/>
			<point x="314" y="329" type="curve" smooth="yes"/>
			<point x="222" y="329"/>
			<point x="155" y="394"/>
			<point x="155" y="481" type="curve" smooth="yes"/>
			<point x="155" y="569"/>
			<point x="222" y="636"/>
		</contour>
	</outline>
</glyph>
<glyph name="less" format="2">
	<unicode hex="003C"/>
	<advance width="660"/>
	<outline>
		<contour>
			<point x="117" y="395" type="line"/>
			<point x="117" y="298" type="line"/>
			<point x="543" y="122" type="line"/>
			<point x="543" y="227" type="line"/>
		</contour>
		<contour>
			<point x="117" y="421" type="line"/>
			<point x="117" y="327" type="line"/>
			<point x="543" y="494" type="line"/>
			<point x="543" y="596" type="line"/>
		</contour>
	</outline>
</glyph>
<glyph name="equal" format="2">
	<unicode hex="003D"/>
	<advance width="660"/>
	<outline>
		<contour>
			<point x="541" y="205" type="line"/>
			<point x="541" y="296" type="line"/>
			<point x="118" y="296" type="line"/>
			<point x="118" y="205" type="line"/>
		</contour>
		<contour>
			<point x="541" y="419" type="line"/>
			<point x="541" y="510" type="line"/>
			<point x="118" y="510" type="line"/>
			<point x="118" y="419" type="line"/>
		</contour>
	</outline>
</glyph>
<glyph name="greater" format="1">
  <advance width="660"/>
  <unicode hex="003E"/>
  <outline>
    <contour>
      <point x="117" y="491" type="line"/>
      <point x="543" y="324" type="line"/>
      <point x="543" y="420" type="line"/>
      <point x="117" y="596" type="line"/>
    </contour>
    <contour>
      <point x="117" y="122" type="line"/>
      <point x="543" y="298" type="line"/>
      <point x="543" y="391" type="line"/>
      <point x="117" y="224" type="line"/>
    </contour>
  </outline>
</glyph>
<glyph name="question" format="1">
  <advance width="571"/>
  <unicode hex="003F"/>
  <outline>
    <contour>
      <point x="308" y="217" type="line"/>
      <point x="308" y="274"/>
      <point x="328" y="308"/>
      <point x="392" y="347" type="curve" smooth="yes"/>
      <point x="476" y="398"/>
      <point x="518" y="455"/>
      <point x="518" y="528" type="curve" smooth="yes"/>
      <point x="518" y="643"/>
      <point x="419" y="731"/>
      <point x="285" y="731" type="curve" smooth="yes"/>
      <point x="187" y="731"/>
      <point x="97" y="684"/>
      <point x="32" y="599" type="curve"/>
      <point x="107" y="526" type="line"/>
      <point x="156" y="600"/>
      <point x="217" y="635"/>
      <point x="282" y="635" type="curve" smooth="yes"/>
      <point x="355" y="635"/>
      <point x="405" y="591"/>
      <point x="405" y="527" type="curve" smooth="yes"/>
      <point x="405" y="487"/>
      <point x="384" y="456"/>
      <point x="339" y="424" type="curve" smooth="yes"/>
      <point x="244" y="361"/>
      <point x="212" y="305"/>
      <point x="220" y="217" type="curve"/>
    </contour>
    <contour>
      <point x="338" y="62" type="curve" smooth="yes"/>
      <point x="338" y="103"/>
      <point x="305" y="134"/>
      <point x="264" y="134" type="curve" smooth="yes"/>
      <point x="223" y="134"/>
      <point x="191" y="103"/>
      <point x="191" y="62" type="curve" smooth="yes"/>
      <point x="191" y="22"/>
      <point x="223" y="-10"/>
      <point x="264" y="-10" type="curve" smooth="yes"/>
      <point x="305" y="-10"/>
      <point x="338" y="22"/>
    </contour>
  </outline>
</glyph>
<glyph name="at" format="1">
  <advance width="1035"/>
  <unicode hex="0040"/>
  <outline>
    <contour>
      <point x="487" y="44" type="curve" smooth="yes"/>
      <point x="600" y="44"/>
      <point x="691" y="129"/>
      <point x="671" y="240" type="curve"/>
      <point x="648" y="260" type="line"/>
      <point x="646" y="184"/>
      <point x="585" y="123"/>
      <point x="506" y="123" type="curve" smooth="yes"/>
      <point x="428" y="123"/>
      <point x="376" y="182"/>
      <point x="376" y="260" type="curve" smooth="yes"/>
      <point x="376" y="340"/>
      <point x="430" y="399"/>
      <point x="504" y="399" type="curve" smooth="yes"/>
      <point x="578" y="399"/>
      <point x="631" y="342"/>
      <point x="631" y="265" type="curve"/>
      <point x="654" y="251" type="line"/>
      <point x="658" y="269"/>
      <point x="659" y="285"/>
      <point x="659" y="300" type="curve" smooth="yes"/>
      <point x="659" y="404"/>
      <point x="589" y="478"/>
      <point x="487" y="478" type="curve" smooth="yes"/>
      <point x="372" y="478"/>
      <point x="279" y="388"/>
      <point x="279" y="260" type="curve" smooth="yes"/>
      <point x="279" y="135"/>
      <point x="371" y="44"/>
    </contour>
    <contour>
      <point x="756" y="-15" type="line"/>
      <point x="715" y="-67"/>
      <point x="627" y="-104"/>
      <point x="525" y="-104" type="curve" smooth="yes"/>
      <point x="316" y="-104"/>
      <point x="155" y="56"/>
      <point x="155" y="261" type="curve" smooth="yes"/>
      <point x="155" y="478"/>
      <point x="317" y="641"/>
      <point x="533" y="641" type="curve" smooth="yes"/>
      <point x="739" y="641"/>
      <point x="883" y="491"/>
      <point x="883" y="283" type="curve" smooth="yes"/>
      <point x="883" y="186"/>
      <point x="851" y="132"/>
      <point x="794" y="132" type="curve" smooth="yes"/>
      <point x="753" y="132"/>
      <point x="725" y="157"/>
      <point x="725" y="218" type="curve" smooth="yes"/>
      <point x="725" y="464" type="line"/>
      <point x="632" y="464" type="line"/>
      <point x="632" y="351" type="line"/>
      <point x="631" y="345" type="line"/>
      <point x="631" y="199" type="line" smooth="yes"/>
      <point x="631" y="105"/>
      <point x="694" y="44"/>
      <point x="786" y="44" type="curve" smooth="yes"/>
      <point x="909" y="44"/>
      <point x="982" y="136"/>
      <point x="982" y="289" type="curve" smooth="yes"/>
      <point x="982" y="538"/>
      <point x="791" y="731"/>
      <point x="533" y="731" type="curve" smooth="yes"/>
      <point x="263" y="731"/>
      <point x="56" y="528"/>
      <point x="56" y="262" type="curve" smooth="yes"/>
      <point x="56" y="3"/>
      <point x="258" y="-194"/>
      <point x="525" y="-194" type="curve" smooth="yes"/>
      <point x="658" y="-194"/>
      <point x="769" y="-148"/>
      <point x="823" y="-89" type="curve"/>
    </contour>
  </outline>
</glyph>
<glyph name="A" format="1">
  <advance width="756"/>
  <unicode hex="0041"/>
  <outline>
    <contour>
      <point x="582" y="172" type="line"/>
      <point x="582" y="270" type="line"/>
      <point x="170" y="270" type="line"/>
      <point x="170" y="172" type="line"/>
    </contour>
    <contour>
      <point x="724" y="0" type="line"/>
      <point x="441" y="715" type="line"/>
      <point x="315" y="715" type="line"/>
      <point x="32" y="0" type="line"/>
      <point x="150" y="0" type="line"/>
      <point x="395" y="637" type="line"/>
      <point x="357" y="637" type="line"/>
      <point x="602" y="0" type="line"/>
    </contour>
    <contour>
      <point x="377" y="-50" type="move" name="bottom.UC"/>
    </contour>
    <contour>
      <point x="588" y="-30" type="move" name="ogonek.UC"/>
    </contour>
    <contour>
      <point x="377" y="750" type="move" name="top.UC"/>
    </contour>
  </outline>
</glyph>
<glyph name="B" format="1">
  <advance width="672"/>
  <unicode hex="0042"/>
  <outline>
    <contour>
      <point x="76" y="0" type="line"/>
      <point x="377" y="0" type="line" smooth="yes"/>
      <point x="526" y="0"/>
      <point x="626" y="82"/>
      <point x="626" y="205" type="curve" smooth="yes"/>
      <point x="626" y="324"/>
      <point x="526" y="399"/>
      <point x="377" y="399" type="curve" smooth="yes"/>
      <point x="201" y="399" type="line"/>
      <point x="201" y="349" type="line"/>
      <point x="363" y="349" type="line" smooth="yes"/>
      <point x="503" y="349"/>
      <point x="595" y="422"/>
      <point x="595" y="528" type="curve" smooth="yes"/>
      <point x="595" y="640"/>
      <point x="503" y="715"/>
      <point x="363" y="715" type="curve" smooth="yes"/>
      <point x="76" y="715" type="line"/>
    </contour>
    <contour>
      <point x="191" y="97" type="line"/>
      <point x="191" y="618" type="line"/>
      <point x="358" y="618" type="line" smooth="yes"/>
      <point x="433" y="618"/>
      <point x="479" y="580"/>
      <point x="479" y="518" type="curve" smooth="yes"/>
      <point x="479" y="453"/>
      <point x="433" y="415"/>
      <point x="358" y="415" type="curve" smooth="yes"/>
      <point x="181" y="415" type="line"/>
      <point x="181" y="319" type="line"/>
      <point x="377" y="319" type="line" smooth="yes"/>
      <point x="459" y="319"/>
      <point x="509" y="279"/>
      <point x="509" y="209" type="curve" smooth="yes"/>
      <point x="509" y="139"/>
      <point x="459" y="97"/>
      <point x="377" y="97" type="curve" smooth="yes"/>
    </contour>
  </outline>
</glyph>
<glyph name="C" format="1">
  <advance width="748"/>
  <unicode hex="0043"/>
  <outline>
    <contour>
      <point x="634" y="196" type="line"/>
      <point x="587" y="129"/>
      <point x="515" y="86"/>
      <point x="425" y="86" type="curve" smooth="yes"/>
      <point x="281" y="86"/>
      <point x="173" y="201"/>
      <point x="173" y="357" type="curve" smooth="yes"/>
      <point x="173" y="514"/>
      <point x="281" y="629"/>
      <point x="425" y="629" type="curve" smooth="yes"/>
      <point x="515" y="629"/>
      <point x="587" y="586"/>
      <point x="634" y="519" type="curve"/>
      <point x="711" y="596" type="line"/>
      <point x="648" y="678"/>
      <point x="546" y="731"/>
      <point x="425" y="731" type="curve" smooth="yes"/>
      <point x="211" y="731"/>
      <point x="52" y="573"/>
      <point x="52" y="357" type="curve" smooth="yes"/>
      <point x="52" y="142"/>
      <point x="206" y="-16"/>
      <point x="422" y="-16" type="curve" smooth="yes"/>
      <point x="543" y="-16"/>
      <point x="648" y="37"/>
      <point x="711" y="119" type="curve"/>
    </contour>
    <contour>
      <point x="421" y="-50" type="move" name="bottom.UC"/>
    </contour>
    <contour>
      <point x="421" y="750" type="move" name="top.UC"/>
    </contour>
  </outline>
</glyph>
<glyph name="D" format="2">
	<unicode hex="0044"/>
	<advance width="750"/>
	<outline>
		<contour>
			<point x="76" y="0" type="line"/>
			<point x="319" y="0" type="line" smooth="yes"/>
			<point x="546" y="0"/>
			<point x="699" y="149"/>
			<point x="699" y="358" type="curve" smooth="yes"/>
			<point x="699" y="566"/>
			<point x="546" y="715"/>
			<point x="319" y="715" type="curve" smooth="yes"/>
			<point x="76" y="715" type="line"/>
		</contour>
		<contour>
			<point x="191" y="99" type="line"/>
			<point x="191" y="616" type="line"/>
			<point x="319" y="616" type="line" smooth="yes"/>
			<point x="479" y="616"/>
			<point x="579" y="513"/>
			<point x="579" y="358" type="curve" smooth="yes"/>
			<point x="579" y="202"/>
			<point x="479" y="99"/>
			<point x="319" y="99" type="curve" smooth="yes"/>
		</contour>
	</outline>
	<anchor name="top.UC" x="342" y="750"/>
</glyph>
<glyph name="E" format="2">
	<unicode hex="0045"/>
	<advance width="613"/>
	<outline>
		<contour>
			<point x="568" y="0" type="line"/>
			<point x="568" y="98" type="line"/>
			<point x="191" y="98" type="line"/>
			<point x="191" y="617" type="line"/>
			<point x="568" y="617" type="line"/>
			<point x="568" y="715" type="line"/>
			<point x="76" y="715" type="line"/>
			<point x="76" y="0" type="line"/>
		</contour>
		<contour>
			<point x="549" y="314" type="line"/>
			<point x="549" y="412" type="line"/>
			<point x="181" y="412" type="line"/>
			<point x="181" y="314" type="line"/>
		</contour>
	</outline>
	<anchor name="bottom.UC" x="322" y="-50"/>
	<anchor name="ogonek.UC" x="452" y="-30"/>
	<anchor name="top.UC" x="322" y="750"/>
</glyph>
<glyph name="F" format="1">
  <advance width="587"/>
  <unicode hex="0046"/>
  <outline>
    <contour>
      <point x="191" y="0" type="line"/>
      <point x="191" y="617" type="line"/>
      <point x="548" y="617" type="line"/>
      <point x="548" y="715" type="line"/>
      <point x="76" y="715" type="line"/>
      <point x="76" y="0" type="line"/>
    </contour>
    <contour>
      <point x="529" y="314" type="line"/>
      <point x="529" y="412" type="line"/>
      <point x="181" y="412" type="line"/>
      <point x="181" y="314" type="line"/>
    </contour>
  </outline>
</glyph>
<glyph name="G" format="1">
  <advance width="806"/>
  <unicode hex="0047"/>
  <outline>
    <contour>
      <point x="749" y="0" type="line"/>
      <point x="749" y="384" type="line"/>
      <point x="423" y="384" type="line"/>
      <point x="423" y="290" type="line"/>
      <point x="641" y="290" type="line"/>
      <point x="641" y="169" type="line"/>
      <point x="650" y="208" type="line"/>
      <point x="615" y="130"/>
      <point x="532" y="85"/>
      <point x="432" y="85" type="curve" smooth="yes"/>
      <point x="281" y="85"/>
      <point x="172" y="199"/>
      <point x="172" y="358" type="curve" smooth="yes"/>
      <point x="172" y="514"/>
      <point x="280" y="629"/>
      <point x="429" y="629" type="curve" smooth="yes"/>
      <point x="524" y="629"/>
      <point x="598" y="586"/>
      <point x="647" y="519" type="curve"/>
      <point x="724" y="596" type="line"/>
      <point x="659" y="678"/>
      <point x="554" y="731"/>
      <point x="429" y="731" type="curve" smooth="yes"/>
      <point x="212" y="731"/>
      <point x="52" y="572"/>
      <point x="52" y="358" type="curve" smooth="yes"/>
      <point x="52" y="140"/>
      <point x="210" y="-16"/>
      <point x="420" y="-16" type="curve" smooth="yes"/>
      <point x="522" y="-16"/>
      <point x="606" y="25"/>
      <point x="654" y="96" type="curve"/>
      <point x="642" y="101" type="line"/>
      <point x="642" y="0" type="line"/>
    </contour>
    <contour>
      <point x="428" y="-50" type="move" name="bottom.UC"/>
    </contour>
    <contour>
      <point x="428" y="750" type="move" name="top.UC"/>
    </contour>
  </outline>
</glyph>
<glyph name="H" format="1">
  <advance width="749"/>
  <unicode hex="0048"/>
  <outline>
    <contour>
      <point x="558" y="0" type="line"/>
      <point x="673" y="0" type="line"/>
      <point x="673" y="715" type="line"/>
      <point x="558" y="715" type="line"/>
    </contour>
    <contour>
      <point x="191" y="0" type="line"/>
      <point x="191" y="715" type="line"/>
      <point x="76" y="715" type="line"/>
      <point x="76" y="0" type="line"/>
    </contour>
    <contour>
      <point x="181" y="319" type="line"/>
      <point x="568" y="319" type="line"/>
      <point x="568" y="418" type="line"/>
      <point x="181" y="418" type="line"/>
    </contour>
    <contour>
      <point x="375" y="-50" type="move" name="bottom.UC"/>
    </contour>
    <contour>
      <point x="375" y="750" type="move" name="top.UC"/>
    </contour>
  </outline>
</glyph>
<glyph name="I" format="1">
  <advance width="267"/>
  <unicode hex="0049"/>
  <outline>
    <contour>
      <point x="191" y="0" type="line"/>
      <point x="191" y="715" type="line"/>
      <point x="76" y="715" type="line"/>
      <point x="76" y="0" type="line"/>
    </contour>
    <contour>
      <point x="133" y="-50" type="move" name="bottom.UC"/>
    </contour>
    <contour>
      <point x="75" y="-30" type="move" name="ogonek.UC"/>
    </contour>
    <contour>
      <point x="133" y="750" type="move" name="top.UC"/>
    </contour>
  </outline>
</glyph>
<glyph name="J" format="2">
	<unicode hex="004A"/>
	<advance width="665"/>
	<outline>
		<contour>
			<point x="597" y="715" type="line"/>
			<point x="482" y="715" type="line"/>
			<point x="482" y="276" type="line" smooth="yes"/>
			<point x="482" y="152"/>
			<point x="424" y="86"/>
			<point x="316" y="86" type="curve" smooth="yes"/>
			<point x="219" y="86"/>
			<point x="163" y="143"/>
			<point x="152" y="250" type="curve"/>
			<point x="37" y="236" type="line"/>
			<point x="51" y="78"/>
			<point x="153" y="-16"/>
			<point x="316" y="-16" type="curve" smooth="yes"/>
			<point x="496" y="-16"/>
			<point x="597" y="89"/>
			<point x="597" y="276" type="curve" smooth="yes"/>
		</contour>
	</outline>
	<anchor name="top.UC" x="542" y="750"/>
</glyph>
<glyph name="K" format="2">
	<unicode hex="004B"/>
	<advance width="721"/>
	<outline>
		<contour>
			<point x="191" y="0" type="line"/>
			<point x="191" y="715" type="line"/>
			<point x="76" y="715" type="line"/>
			<point x="76" y="0" type="line"/>
		</contour>
		<contour>
			<point x="706" y="0" type="line"/>
			<point x="304" y="385" type="line"/>
			<point x="304" y="357" type="line"/>
			<point x="664" y="715" type="line"/>
			<point x="518" y="715" type="line"/>
			<point x="181" y="371" type="line"/>
			<point x="166" y="371" type="line"/>
			<point x="545" y="0" type="line"/>
		</contour>
	</outline>
	<anchor name="bottom.UC" x="361" y="-50"/>
	<anchor name="top.UC" x="361" y="750"/>
</glyph>
<glyph name="L" format="1">
  <advance width="572"/>
  <unicode hex="004C"/>
  <outline>
    <contour>
      <point x="538" y="0" type="line"/>
      <point x="538" y="100" type="line"/>
      <point x="191" y="100" type="line"/>
      <point x="191" y="715" type="line"/>
      <point x="76" y="715" type="line"/>
      <point x="76" y="0" type="line"/>
    </contour>
    <contour>
      <point x="307" y="-50" type="move" name="bottom.UC"/>
    </contour>
    <contour>
      <point x="124" y="750" type="move" name="top.UC"/>
    </contour>
    <contour>
      <point x="374" y="540" type="move" name="top_right"/>
    </contour>
  </outline>
</glyph>
<glyph name="M" format="1">
  <advance width="911"/>
  <unicode hex="004D"/>
  <outline>
    <contour>
      <point x="498" y="71" type="line"/>
      <point x="780" y="660" type="line"/>
      <point x="724" y="662" type="line"/>
      <point x="724" y="0" type="line"/>
      <point x="836" y="0" type="line"/>
      <point x="836" y="715" type="line"/>
      <point x="701" y="715" type="line"/>
      <point x="430" y="147" type="line"/>
      <point x="483" y="147" type="line"/>
      <point x="212" y="715" type="line"/>
      <point x="74" y="715" type="line"/>
      <point x="74" y="0" type="line"/>
      <point x="186" y="0" type="line"/>
      <point x="186" y="662" type="line"/>
      <point x="130" y="660" type="line"/>
      <point x="413" y="71" type="line"/>
    </contour>
  </outline>
</glyph>
<glyph name="N" format="2">
	<unicode hex="004E"/>
	<advance width="751"/>
	<outline>
		<contour>
			<point x="187" y="0" type="line"/>
			<point x="187" y="602" type="line"/>
			<point x="147" y="602" type="line"/>
			<point x="554" y="0" type="line"/>
			<point x="676" y="0" type="line"/>
			<point x="676" y="715" type="line"/>
			<point x="564" y="715" type="line"/>
			<point x="564" y="113" type="line"/>
			<point x="603" y="113" type="line"/>
			<point x="197" y="715" type="line"/>
			<point x="75" y="715" type="line"/>
			<point x="75" y="0" type="line"/>
		</contour>
	</outline>
	<anchor name="bottom.UC" x="375" y="-50"/>
	<anchor name="top.UC" x="375" y="750"/>
</glyph>
<glyph name="O" format="2">
	<unicode hex="004F"/>
	<advance width="860"/>
	<outline>
		<contour>
			<point x="430" y="-16" type="curve" smooth="yes"/>
			<point x="649" y="-16"/>
			<point x="808" y="143"/>
			<point x="808" y="358" type="curve" smooth="yes"/>
			<point x="808" y="572"/>
			<point x="649" y="731"/>
			<point x="430" y="731" type="curve" smooth="yes"/>
			<point x="211" y="731"/>
			<point x="52" y="572"/>
			<point x="52" y="358" type="curve" smooth="yes"/>
			<point x="52" y="143"/>
			<point x="211" y="-16"/>
		</contour>
		<contour>
			<point x="430" y="86" type="curve" smooth="yes"/>
			<point x="278" y="86"/>
			<point x="172" y="200"/>
			<point x="172" y="358" type="curve" smooth="yes"/>
			<point x="172" y="515"/>
			<point x="278" y="629"/>
			<point x="430" y="629" type="curve" smooth="yes"/>
			<point x="582" y="629"/>
			<point x="688" y="515"/>
			<point x="688" y="358" type="curve" smooth="yes"/>
			<point x="688" y="200"/>
			<point x="582" y="86"/>
		</contour>
	</outline>
	<anchor name="bottom.UC" x="430" y="-50"/>
	<anchor name="top.UC" x="430" y="750"/>
	<anchor name="topright.UC" x="527" y="750"/>
</glyph>
<glyph name="P" format="1">
  <advance width="653"/>
  <unicode hex="0050"/>
  <outline>
    <contour>
      <point x="191" y="0" type="line"/>
      <point x="191" y="617" type="line"/>
      <point x="362" y="617" type="line" smooth="yes"/>
      <point x="443" y="617"/>
      <point x="494" y="574"/>
      <point x="494" y="503" type="curve" smooth="yes"/>
      <point x="494" y="432"/>
      <point x="443" y="389"/>
      <point x="362" y="389" type="curve" smooth="yes"/>
      <point x="181" y="389" type="line"/>
      <point x="181" y="291" type="line"/>
      <point x="362" y="291" type="line" smooth="yes"/>
      <point x="510" y="291"/>
      <point x="611" y="376"/>
      <point x="611" y="503" type="curve" smooth="yes"/>
      <point x="611" y="630"/>
      <point x="510" y="715"/>
      <point x="362" y="715" type="curve" smooth="yes"/>
      <point x="76" y="715" type="line"/>
      <point x="76" y="0" type="line"/>
    </contour>
  </outline>
</glyph>
<glyph name="Q" format="1">
  <advance width="860"/>
  <unicode hex="0051"/>
  <outline>
    <contour>
      <point x="721" y="-42" type="line"/>
      <point x="788" y="24" type="line"/>
      <point x="520" y="300" type="line"/>
      <point x="453" y="234" type="line"/>
    </contour>
    <contour>
      <point x="430" y="-16" type="curve" smooth="yes"/>
      <point x="647" y="-16"/>
      <point x="808" y="145"/>
      <point x="808" y="358" type="curve" smooth="yes"/>
      <point x="808" y="572"/>
      <point x="649" y="731"/>
      <point x="430" y="731" type="curve" smooth="yes"/>
      <point x="211" y="731"/>
      <point x="52" y="572"/>
      <point x="52" y="358" type="curve" smooth="yes"/>
      <point x="52" y="143"/>
      <point x="211" y="-16"/>
    </contour>
    <contour>
      <point x="430" y="86" type="curve" smooth="yes"/>
      <point x="278" y="86"/>
      <point x="172" y="200"/>
      <point x="172" y="358" type="curve" smooth="yes"/>
      <point x="172" y="515"/>
      <point x="278" y="629"/>
      <point x="430" y="629" type="curve" smooth="yes"/>
      <point x="582" y="629"/>
      <point x="688" y="515"/>
      <point x="688" y="358" type="curve" smooth="yes"/>
      <point x="688" y="196"/>
      <point x="584" y="86"/>
    </contour>
  </outline>
</glyph>
<glyph name="R" format="2">
	<unicode hex="0052"/>
	<advance width="701"/>
	<outline>
		<contour>
			<point x="191" y="0" type="line"/>
			<point x="191" y="617" type="line"/>
			<point x="362" y="617" type="line" smooth="yes"/>
			<point x="443" y="617"/>
			<point x="494" y="574"/>
			<point x="494" y="503" type="curve" smooth="yes"/>
			<point x="494" y="432"/>
			<point x="443" y="389"/>
			<point x="362" y="389" type="curve" smooth="yes"/>
			<point x="181" y="389" type="line"/>
			<point x="181" y="291" type="line"/>
			<point x="362" y="291" type="line" smooth="yes"/>
			<point x="510" y="291"/>
			<point x="611" y="376"/>
			<point x="611" y="503" type="curve" smooth="yes"/>
			<point x="611" y="630"/>
			<point x="510" y="715"/>
			<point x="362" y="715" type="curve" smooth="yes"/>
			<point x="76" y="715" type="line"/>
			<point x="76" y="0" type="line"/>
		</contour>
		<contour>
			<point x="683" y="0" type="line"/>
			<point x="412" y="333" type="line"/>
			<point x="280" y="333" type="line"/>
			<point x="540" y="0" type="line"/>
		</contour>
	</outline>
	<anchor name="top.UC" x="330" y="750"/>
</glyph>
<glyph name="S" format="2">
	<unicode hex="0053"/>
	<advance width="692"/>
	<outline>
		<contour>
			<point x="33" y="117" type="line"/>
			<point x="107" y="35"/>
			<point x="214" y="-16"/>
			<point x="348" y="-16" type="curve" smooth="yes"/>
			<point x="520" y="-16"/>
			<point x="640" y="71"/>
			<point x="640" y="204" type="curve" smooth="yes"/>
			<point x="640" y="324"/>
			<point x="557" y="391"/>
			<point x="360" y="421" type="curve" smooth="yes"/>
			<point x="226" y="441"/>
			<point x="181" y="468"/>
			<point x="181" y="521" type="curve" smooth="yes"/>
			<point x="181" y="588"/>
			<point x="247" y="631"/>
			<point x="342" y="631" type="curve" smooth="yes"/>
			<point x="433" y="631"/>
			<point x="501" y="589"/>
			<point x="554" y="521" type="curve"/>
			<point x="632" y="599" type="line"/>
			<point x="562" y="680"/>
			<point x="465" y="731"/>
			<point x="341" y="731" type="curve" smooth="yes"/>
			<point x="179" y="731"/>
			<point x="64" y="642"/>
			<point x="64" y="515" type="curve" smooth="yes"/>
			<point x="64" y="406"/>
			<point x="141" y="343"/>
			<point x="336" y="315" type="curve" smooth="yes"/>
			<point x="474" y="294"/>
			<point x="523" y="260"/>
			<point x="523" y="199" type="curve" smooth="yes"/>
			<point x="523" y="130"/>
			<point x="454" y="85"/>
			<point x="350" y="85" type="curve" smooth="yes"/>
			<point x="255" y="85"/>
			<point x="168" y="126"/>
			<point x="113" y="195" type="curve"/>
		</contour>
	</outline>
	<anchor name="bottom.UC" x="349" y="-50"/>
	<anchor name="top.UC" x="341" y="750"/>
</glyph>
<glyph name="T" format="2">
	<unicode hex="0054"/>
	<advance width="640"/>
	<outline>
		<contour>
			<point x="377" y="0" type="line"/>
			<point x="377" y="626" type="line"/>
			<point x="262" y="626" type="line"/>
			<point x="262" y="0" type="line"/>
		</contour>
		<contour>
			<point x="606" y="616" type="line"/>
			<point x="606" y="715" type="line"/>
			<point x="34" y="715" type="line"/>
			<point x="34" y="616" type="line"/>
		</contour>
	</outline>
	<anchor name="bottom.UC" x="320" y="-50"/>
	<anchor name="top.UC" x="320" y="750"/>
</glyph>
<glyph name="U" format="1">
  <advance width="734"/>
  <unicode hex="0055"/>
  <outline>
    <contour>
      <point x="666" y="715" type="line"/>
      <point x="552" y="715" type="line"/>
      <point x="552" y="282" type="line" smooth="yes"/>
      <point x="552" y="159"/>
      <point x="484" y="86"/>
      <point x="367" y="86" type="curve" smooth="yes"/>
      <point x="251" y="86"/>
      <point x="183" y="159"/>
      <point x="183" y="282" type="curve" smooth="yes"/>
      <point x="183" y="715" type="line"/>
      <point x="68" y="715" type="line"/>
      <point x="68" y="282" type="line" smooth="yes"/>
      <point x="68" y="94"/>
      <point x="181" y="-16"/>
      <point x="367" y="-16" type="curve" smooth="yes"/>
      <point x="554" y="-16"/>
      <point x="666" y="94"/>
      <point x="666" y="282" type="curve" smooth="yes"/>
    </contour>
    <contour>
      <point x="368" y="-50" type="move" name="bottom.UC"/>
    </contour>
    <contour>
      <point x="408" y="-30" type="move" name="ogonek.UC.round"/>
    </contour>
    <contour>
      <point x="367" y="750" type="move" name="top.UC"/>
    </contour>
    <contour>
      <point x="564" y="750" type="move" name="topright.UC"/>
    </contour>
  </outline>
</glyph>
<glyph name="V" format="1">
  <advance width="742"/>
  <unicode hex="0056"/>
  <outline>
    <contour>
      <point x="430" y="0" type="line"/>
      <point x="711" y="715" type="line"/>
      <point x="590" y="715" type="line"/>
      <point x="355" y="84" type="line"/>
      <point x="391" y="84" type="line"/>
      <point x="156" y="715" type="line"/>
      <point x="32" y="715" type="line"/>
      <point x="312" y="0" type="line"/>
    </contour>
  </outline>
</glyph>
<glyph name="W" format="2">
	<unicode hex="0057"/>
	<advance width="1065"/>
	<outline>
		<contour>
			<point x="819" y="0" type="line"/>
			<point x="1029" y="715" type="line"/>
			<point x="909" y="715" type="line"/>
			<point x="740" y="90" type="line"/>
			<point x="768" y="90" type="line"/>
			<point x="588" y="715" type="line"/>
			<point x="478" y="715" type="line"/>
			<point x="298" y="90" type="line"/>
			<point x="329" y="90" type="line"/>
			<point x="159" y="715" type="line"/>
			<point x="36" y="715" type="line"/>
			<point x="246" y="0" type="line"/>
			<point x="375" y="0" type="line"/>
			<point x="540" y="574" type="line"/>
			<point x="526" y="574" type="line"/>
			<point x="690" y="0" type="line"/>
		</contour>
	</outline>
	<anchor name="top.UC" x="532" y="750"/>
</glyph>
<glyph name="X" format="2">
	<unicode hex="0058"/>
	<advance width="704"/>
	<outline>
		<contour>
			<point x="152" y="0" type="line"/>
			<point x="366" y="315" type="line"/>
			<point x="338" y="315" type="line"/>
			<point x="551" y="0" type="line"/>
			<point x="688" y="0" type="line"/>
			<point x="413" y="392" type="line"/>
			<point x="413" y="350" type="line"/>
			<point x="663" y="715" type="line"/>
			<point x="529" y="715" type="line"/>
			<point x="339" y="427" type="line"/>
			<point x="366" y="427" type="line"/>
			<point x="176" y="715" type="line"/>
			<point x="40" y="715" type="line"/>
			<point x="292" y="350" type="line"/>
			<point x="291" y="392" type="line"/>
			<point x="16" y="0" type="line"/>
		</contour>
	</outline>
</glyph>
<glyph name="Y" format="2">
	<unicode hex="0059"/>
	<advance width="689"/>
	<outline>
		<contour>
			<point x="402" y="0" type="line"/>
			<point x="402" y="297" type="line"/>
			<point x="673" y="715" type="line"/>
			<point x="540" y="715" type="line"/>
			<point x="332" y="380" type="line"/>
			<point x="358" y="380" type="line"/>
			<point x="151" y="715" type="line"/>
			<point x="16" y="715" type="line"/>
			<point x="287" y="298" type="line"/>
			<point x="287" y="0" type="line"/>
		</contour>
	</outline>
	<anchor name="bottom.UC" x="344" y="-50"/>
	<anchor name="top.UC" x="344" y="750"/>
</glyph>
<glyph name="Z" format="2">
	<unicode hex="005A"/>
	<advance width="632"/>
	<outline>
		<contour>
			<point x="589" y="0" type="line"/>
			<point x="589" y="99" type="line"/>
			<point x="184" y="99" type="line"/>
			<point x="576" y="616" type="line"/>
			<point x="576" y="715" type="line"/>
			<point x="57" y="715" type="line"/>
			<point x="57" y="616" type="line"/>
			<point x="436" y="616" type="line"/>
			<point x="44" y="99" type="line"/>
			<point x="44" y="0" type="line"/>
		</contour>
	</outline>
	<anchor name="top.UC" x="316" y="750"/>
</glyph>
<glyph name="bracketleft" format="1">
  <advance width="322"/>
  <unicode hex="005B"/>
  <outline>
    <contour>
      <point x="283" y="-129" type="line"/>
      <point x="283" y="-40" type="line"/>
      <point x="170" y="-40" type="line"/>
      <point x="170" y="642" type="line"/>
      <point x="283" y="642" type="line"/>
      <point x="283" y="731" type="line"/>
      <point x="60" y="731" type="line"/>
      <point x="60" y="-129" type="line"/>
    </contour>
  </outline>
</glyph>
<glyph name="backslash" format="2">
	<unicode hex="005C"/>
	<advance width="498"/>
	<outline>
		<contour>
			<point x="447" y="0" type="line"/>
			<point x="157" y="731" type="line"/>
			<point x="51" y="731" type="line"/>
			<point x="341" y="0" type="line"/>
		</contour>
	</outline>
</glyph>
<glyph name="bracketright" format="1">
  <advance width="322"/>
  <unicode hex="005D"/>
  <outline>
    <contour>
      <point x="263" y="-129" type="line"/>
      <point x="263" y="731" type="line"/>
      <point x="39" y="731" type="line"/>
      <point x="39" y="642" type="line"/>
      <point x="153" y="642" type="line"/>
      <point x="153" y="-40" type="line"/>
      <point x="39" y="-40" type="line"/>
      <point x="39" y="-129" type="line"/>
    </contour>
  </outline>
</glyph>
<glyph name="asciicircum" format="2">
	<unicode hex="005E"/>
	<advance width="660"/>
	<outline>
		<contour>
			<point x="294" y="715" type="line"/>
			<point x="466" y="354" type="line"/>
			<point x="573" y="354" type="line"/>
			<point x="392" y="715" type="line"/>
		</contour>
		<contour>
			<point x="268" y="715" type="line"/>
			<point x="87" y="354" type="line"/>
			<point x="190" y="354" type="line"/>
			<point x="364" y="715" type="line"/>
		</contour>
	</outline>
</glyph>
<glyph name="a" format="1">
  <advance width="566"/>
  <unicode hex="0061"/>
  <outline>
    <contour>
      <point x="511" y="0" type="line"/>
      <point x="511" y="310" type="line" smooth="yes"/>
      <point x="511" y="438"/>
      <point x="415" y="515"/>
      <point x="273" y="515" type="curve" smooth="yes"/>
      <point x="184" y="515"/>
      <point x="109" y="482"/>
      <point x="55" y="428" type="curve"/>
      <point x="119" y="358" type="line"/>
      <point x="157" y="400"/>
      <point x="208" y="426"/>
      <point x="269" y="426" type="curve" smooth="yes"/>
      <point x="351" y="426"/>
      <point x="403" y="381"/>
      <point x="403" y="307" type="curve" smooth="yes"/>
      <point x="403" y="120" type="line"/>
      <point x="408" y="99" type="line"/>
      <point x="408" y="0" type="line"/>
    </contour>
    <contour>
      <point x="231" y="-16" type="curve" smooth="yes"/>
      <point x="360" y="-16"/>
      <point x="451" y="69"/>
      <point x="451" y="193" type="curve"/>
      <point x="415" y="210" type="line"/>
      <point x="409" y="128"/>
      <point x="341" y="70"/>
      <point x="254" y="70" type="curve" smooth="yes"/>
      <point x="193" y="70"/>
      <point x="153" y="101"/>
      <point x="153" y="150" type="curve" smooth="yes"/>
      <point x="153" y="205"/>
      <point x="207" y="233"/>
      <point x="285" y="233" type="curve" smooth="yes"/>
      <point x="415" y="233" type="line"/>
      <point x="415" y="310" type="line"/>
      <point x="275" y="310" type="line" smooth="yes"/>
      <point x="134" y="310"/>
      <point x="38" y="249"/>
      <point x="38" y="146" type="curve" smooth="yes"/>
      <point x="38" y="51"/>
      <point x="116" y="-16"/>
    </contour>
    <contour>
      <point x="278" y="-50" type="move" name="bottom.LC"/>
    </contour>
    <contour>
      <point x="394" y="-30" type="move" name="ogonek.LC"/>
    </contour>
    <contour>
      <point x="278" y="544" type="move" name="top.LC"/>
    </contour>
  </outline>
</glyph>
<glyph name="b" format="1">
  <advance width="645"/>
  <unicode hex="0062"/>
  <outline>
    <contour>
      <point x="173" y="0" type="line"/>
      <point x="173" y="124" type="line"/>
      <point x="174" y="129" type="line"/>
      <point x="174" y="242" type="line" smooth="yes"/>
      <point x="174" y="350"/>
      <point x="241" y="421"/>
      <point x="333" y="421" type="curve" smooth="yes"/>
      <point x="426" y="421"/>
      <point x="486" y="349"/>
      <point x="486" y="250" type="curve" smooth="yes"/>
      <point x="486" y="150"/>
      <point x="422" y="78"/>
      <point x="326" y="78" type="curve" smooth="yes"/>
      <point x="243" y="78"/>
      <point x="175" y="133"/>
      <point x="166" y="211" type="curve"/>
      <point x="143" y="193" type="line"/>
      <point x="134" y="76"/>
      <point x="218" y="-16"/>
      <point x="350" y="-16" type="curve" smooth="yes"/>
      <point x="493" y="-16"/>
      <point x="603" y="93"/>
      <point x="603" y="250" type="curve" smooth="yes"/>
      <point x="603" y="404"/>
      <point x="495" y="515"/>
      <point x="354" y="515" type="curve" smooth="yes"/>
      <point x="243" y="515"/>
      <point x="162" y="444"/>
      <point x="147" y="345" type="curve"/>
      <point x="174" y="345" type="line"/>
      <point x="174" y="720" type="line"/>
      <point x="62" y="720" type="line"/>
      <point x="62" y="0" type="line"/>
    </contour>
  </outline>
</glyph>
<glyph name="c" format="1">
  <advance width="559"/>
  <unicode hex="0063"/>
  <outline>
    <contour>
      <point x="453" y="153" type="line"/>
      <point x="423" y="108"/>
      <point x="380" y="78"/>
      <point x="317" y="78" type="curve" smooth="yes"/>
      <point x="225" y="78"/>
      <point x="159" y="150"/>
      <point x="159" y="250" type="curve" smooth="yes"/>
      <point x="159" y="350"/>
      <point x="225" y="421"/>
      <point x="317" y="421" type="curve" smooth="yes"/>
      <point x="379" y="421"/>
      <point x="424" y="390"/>
      <point x="453" y="346" type="curve"/>
      <point x="525" y="416" type="line"/>
      <point x="475" y="479"/>
      <point x="403" y="515"/>
      <point x="313" y="515" type="curve" smooth="yes"/>
      <point x="157" y="515"/>
      <point x="42" y="404"/>
      <point x="42" y="250" type="curve" smooth="yes"/>
      <point x="42" y="95"/>
      <point x="156" y="-16"/>
      <point x="310" y="-16" type="curve" smooth="yes"/>
      <point x="402" y="-16"/>
      <point x="475" y="21"/>
      <point x="525" y="83" type="curve"/>
    </contour>
    <contour>
      <point x="313" y="-50" type="move" name="bottom.LC"/>
    </contour>
    <contour>
      <point x="313" y="544" type="move" name="top.LC"/>
    </contour>
  </outline>
</glyph>
<glyph name="d" format="2">
	<unicode hex="0064"/>
	<advance width="645"/>
	<outline>
		<contour>
			<point x="583" y="0" type="line"/>
			<point x="583" y="720" type="line"/>
			<point x="471" y="720" type="line"/>
			<point x="471" y="345" type="line"/>
			<point x="498" y="345" type="line"/>
			<point x="483" y="446"/>
			<point x="405" y="515"/>
			<point x="293" y="515" type="curve" smooth="yes"/>
			<point x="152" y="515"/>
			<point x="42" y="404"/>
			<point x="42" y="250" type="curve" smooth="yes"/>
			<point x="42" y="93"/>
			<point x="152" y="-16"/>
			<point x="295" y="-16" type="curve" smooth="yes"/>
			<point x="427" y="-16"/>
			<point x="511" y="76"/>
			<point x="502" y="193" type="curve"/>
			<point x="479" y="211" type="line"/>
			<point x="470" y="133"/>
			<point x="402" y="78"/>
			<point x="319" y="78" type="curve" smooth="yes"/>
			<point x="223" y="78"/>
			<point x="159" y="150"/>
			<point x="159" y="250" type="curve" smooth="yes"/>
			<point x="159" y="349"/>
			<point x="221" y="421"/>
			<point x="314" y="421" type="curve" smooth="yes"/>
			<point x="406" y="421"/>
			<point x="471" y="350"/>
			<point x="471" y="242" type="curve" smooth="yes"/>
			<point x="471" y="129" type="line"/>
			<point x="472" y="124" type="line"/>
			<point x="472" y="0" type="line"/>
		</contour>
	</outline>
	<anchor name="top_right" x="691" y="540"/>
</glyph>
<glyph name="e" format="2">
	<unicode hex="0065"/>
	<advance width="607"/>
	<outline>
		<contour>
			<point x="490" y="151" type="line"/>
			<point x="449" y="100"/>
			<point x="397" y="74"/>
			<point x="333" y="74" type="curve" smooth="yes"/>
			<point x="229" y="74"/>
			<point x="157" y="142"/>
			<point x="157" y="251" type="curve" smooth="yes"/>
			<point x="157" y="357"/>
			<point x="219" y="425"/>
			<point x="309" y="425" type="curve" smooth="yes"/>
			<point x="394" y="425"/>
			<point x="453" y="358"/>
			<point x="453" y="259" type="curve" smooth="yes"/>
			<point x="453" y="248" type="line"/>
			<point x="564" y="248" type="line"/>
			<point x="564" y="254" type="line" smooth="yes"/>
			<point x="564" y="407"/>
			<point x="457" y="515"/>
			<point x="310" y="515" type="curve" smooth="yes"/>
			<point x="156" y="515"/>
			<point x="42" y="405"/>
			<point x="42" y="249" type="curve" smooth="yes"/>
			<point x="42" y="94"/>
			<point x="160" y="-16"/>
			<point x="328" y="-16" type="curve" smooth="yes"/>
			<point x="423" y="-16"/>
			<point x="502" y="20"/>
			<point x="554" y="81" type="curve"/>
		</contour>
		<contour>
			<point x="564" y="214" type="line"/>
			<point x="564" y="253" type="line"/>
			<point x="548" y="290" type="line"/>
			<point x="120" y="290" type="line"/>
			<point x="120" y="214" type="line"/>
		</contour>
	</outline>
	<anchor name="bottom.LC" x="310" y="-50"/>
	<anchor name="ogonek.LC.round" x="385" y="-30"/>
	<anchor name="top.LC" x="310" y="544"/>
</glyph>
<glyph name="f" format="2">
	<unicode hex="0066"/>
	<advance width="400"/>
	<outline>
		<contour>
			<point x="238" y="0" type="line"/>
			<point x="238" y="574" type="line" smooth="yes"/>
			<point x="238" y="615"/>
			<point x="254" y="631"/>
			<point x="294" y="631" type="curve" smooth="yes"/>
			<point x="369" y="631" type="line"/>
			<point x="369" y="720" type="line"/>
			<point x="259" y="720" type="line" smooth="yes"/>
			<point x="169" y="720"/>
			<point x="126" y="677"/>
			<point x="126" y="587" type="curve" smooth="yes"/>
			<point x="126" y="0" type="line"/>
		</contour>
		<contour>
			<point x="369" y="408" type="line"/>
			<point x="369" y="499" type="line"/>
			<point x="33" y="499" type="line"/>
			<point x="33" y="408" type="line"/>
		</contour>
	</outline>
</glyph>
<glyph name="g" format="2">
	<unicode hex="0067"/>
	<advance width="645"/>
	<outline>
		<contour>
			<point x="583" y="55" type="curve" smooth="yes"/>
			<point x="583" y="499" type="line"/>
			<point x="472" y="499" type="line"/>
			<point x="472" y="345" type="line"/>
			<point x="496" y="345" type="line"/>
			<point x="480" y="453"/>
			<point x="398" y="515"/>
			<point x="293" y="515" type="curve" smooth="yes"/>
			<point x="155" y="515"/>
			<point x="42" y="407"/>
			<point x="42" y="254" type="curve" smooth="yes"/>
			<point x="42" y="101"/>
			<point x="153" y="-4"/>
			<point x="295" y="-4" type="curve" smooth="yes"/>
			<point x="425" y="-4"/>
			<point x="512" y="86"/>
			<point x="503" y="205" type="curve"/>
			<point x="479" y="223" type="line"/>
			<point x="470" y="145"/>
			<point x="401" y="91"/>
			<point x="319" y="91" type="curve" smooth="yes"/>
			<point x="223" y="91"/>
			<point x="159" y="159"/>
			<point x="159" y="255" type="curve" smooth="yes"/>
			<point x="159" y="349"/>
			<point x="222" y="421"/>
			<point x="314" y="421" type="curve" smooth="yes"/>
			<point x="399" y="421"/>
			<point x="471" y="358"/>
			<point x="471" y="242" type="curve" smooth="yes"/>
			<point x="471" y="50" type="line" smooth="yes"/>
			<point x="471" y="-52"/>
			<point x="404" y="-117"/>
			<point x="300" y="-117" type="curve" smooth="yes"/>
			<point x="230" y="-117"/>
			<point x="178" y="-90"/>
			<point x="140" y="-47" type="curve"/>
			<point x="75" y="-122" type="line"/>
			<point x="127" y="-177"/>
			<point x="210" y="-210"/>
			<point x="305" y="-210" type="curve" smooth="yes"/>
			<point x="467" y="-210"/>
			<point x="583" y="-103"/>
		</contour>
	</outline>
	<anchor name="top.LC" x="315" y="544"/>
</glyph>
<glyph name="h" format="1">
  <advance width="595"/>
  <unicode hex="0068"/>
  <outline>
    <contour>
      <point x="539" y="0" type="line"/>
      <point x="539" y="300" type="line" smooth="yes"/>
      <point x="539" y="439"/>
      <point x="465" y="515"/>
      <point x="345" y="515" type="curve" smooth="yes"/>
      <point x="264" y="515"/>
      <point x="178" y="476"/>
      <point x="159" y="345" type="curve"/>
      <point x="174" y="345" type="line"/>
      <point x="174" y="720" type="line"/>
      <point x="62" y="720" type="line"/>
      <point x="62" y="0" type="line"/>
      <point x="174" y="0" type="line"/>
      <point x="174" y="236" type="line" smooth="yes"/>
      <point x="174" y="366"/>
      <point x="242" y="421"/>
      <point x="316" y="421" type="curve" smooth="yes"/>
      <point x="383" y="421"/>
      <point x="427" y="376"/>
      <point x="427" y="288" type="curve" smooth="yes"/>
      <point x="427" y="0" type="line"/>
    </contour>
    <contour>
      <point x="300" y="-50" type="move" name="bottom.LC"/>
    </contour>
  </outline>
</glyph>
<glyph name="i" format="2">
	<unicode hex="0069"/>
	<advance width="237"/>
	<outline>
		<contour>
			<point x="174" y="0" type="line"/>
			<point x="174" y="499" type="line"/>
			<point x="62" y="499" type="line"/>
			<point x="62" y="0" type="line"/>
		</contour>
		<contour>
			<point x="118" y="602" type="curve" smooth="yes"/>
			<point x="158" y="602"/>
			<point x="189" y="632"/>
			<point x="189" y="671" type="curve" smooth="yes"/>
			<point x="189" y="710"/>
			<point x="158" y="740"/>
			<point x="118" y="740" type="curve" smooth="yes"/>
			<point x="79" y="740"/>
			<point x="47" y="710"/>
			<point x="47" y="671" type="curve" smooth="yes"/>
			<point x="47" y="632"/>
			<point x="79" y="602"/>
		</contour>
	</outline>
	<anchor name="bottom.LC" x="118" y="-50"/>
	<anchor name="ogonek.LC" x="58" y="-30"/>
</glyph>
<glyph name="j" format="2">
	<unicode hex="006A"/>
	<advance width="237"/>
	<outline>
		<contour>
			<point x="-30" y="-194" type="line"/>
			<point x="41" y="-194" type="line" smooth="yes"/>
			<point x="131" y="-194"/>
			<point x="174" y="-151"/>
			<point x="174" y="-61" type="curve" smooth="yes"/>
			<point x="174" y="499" type="line"/>
			<point x="62" y="499" type="line"/>
			<point x="62" y="-44" type="line" smooth="yes"/>
			<point x="62" y="-85"/>
			<point x="46" y="-101"/>
			<point x="6" y="-101" type="curve" smooth="yes"/>
			<point x="-30" y="-101" type="line"/>
		</contour>
		<contour>
			<point x="118" y="602" type="curve" smooth="yes"/>
			<point x="158" y="602"/>
			<point x="189" y="632"/>
			<point x="189" y="671" type="curve" smooth="yes"/>
			<point x="189" y="710"/>
			<point x="158" y="740"/>
			<point x="118" y="740" type="curve" smooth="yes"/>
			<point x="79" y="740"/>
			<point x="47" y="710"/>
			<point x="47" y="671" type="curve" smooth="yes"/>
			<point x="47" y="632"/>
			<point x="79" y="602"/>
		</contour>
	</outline>
</glyph>
<glyph name="l" format="1">
  <advance width="237"/>
  <unicode hex="006C"/>
  <outline>
    <contour>
      <point x="174" y="0" type="line"/>
      <point x="174" y="720" type="line"/>
      <point x="62" y="720" type="line"/>
      <point x="62" y="0" type="line"/>
    </contour>
    <contour>
      <point x="118" y="-50" type="move" name="bottom.LC"/>
    </contour>
    <contour>
      <point x="118" y="766" type="move" name="top.LC"/>
    </contour>
    <contour>
      <point x="283" y="540" type="move" name="top_right"/>
    </contour>
  </outline>
</glyph>
<glyph name="m" format="2">
	<unicode hex="006D"/>
	<advance width="919"/>
	<outline>
		<contour>
			<point x="863" y="0" type="line"/>
			<point x="863" y="300" type="line" smooth="yes"/>
			<point x="863" y="439"/>
			<point x="793" y="515"/>
			<point x="676" y="515" type="curve" smooth="yes"/>
			<point x="599" y="515"/>
			<point x="517" y="479"/>
			<point x="488" y="374" type="curve"/>
			<point x="501" y="375" type="line"/>
			<point x="482" y="467"/>
			<point x="423" y="515"/>
			<point x="336" y="515" type="curve" smooth="yes"/>
			<point x="266" y="515"/>
			<point x="194" y="483"/>
			<point x="166" y="385" type="curve"/>
			<point x="173" y="384" type="line"/>
			<point x="173" y="499" type="line"/>
			<point x="62" y="499" type="line"/>
			<point x="62" y="0" type="line"/>
			<point x="174" y="0" type="line"/>
			<point x="174" y="239" type="line" smooth="yes"/>
			<point x="174" y="367"/>
			<point x="237" y="421"/>
			<point x="306" y="421" type="curve" smooth="yes"/>
			<point x="367" y="421"/>
			<point x="407" y="377"/>
			<point x="407" y="291" type="curve" smooth="yes"/>
			<point x="407" y="0" type="line"/>
			<point x="519" y="0" type="line"/>
			<point x="519" y="239" type="line" smooth="yes"/>
			<point x="519" y="367"/>
			<point x="582" y="421"/>
			<point x="650" y="421" type="curve" smooth="yes"/>
			<point x="712" y="421"/>
			<point x="751" y="377"/>
			<point x="751" y="291" type="curve" smooth="yes"/>
			<point x="751" y="0" type="line"/>
		</contour>
	</outline>
</glyph>
<glyph name="n" format="2">
	<unicode hex="006E"/>
	<advance width="595"/>
	<outline>
		<contour>
			<point x="539" y="0" type="line"/>
			<point x="539" y="300" type="line" smooth="yes"/>
			<point x="539" y="439"/>
			<point x="465" y="515"/>
			<point x="345" y="515" type="curve" smooth="yes"/>
			<point x="264" y="515"/>
			<point x="177" y="476"/>
			<point x="158" y="345" type="curve"/>
			<point x="173" y="345" type="line"/>
			<point x="173" y="499" type="line"/>
			<point x="62" y="499" type="line"/>
			<point x="62" y="0" type="line"/>
			<point x="174" y="0" type="line"/>
			<point x="174" y="236" type="line" smooth="yes"/>
			<point x="174" y="366"/>
			<point x="242" y="421"/>
			<point x="316" y="421" type="curve" smooth="yes"/>
			<point x="383" y="421"/>
			<point x="427" y="376"/>
			<point x="427" y="288" type="curve" smooth="yes"/>
			<point x="427" y="0" type="line"/>
		</contour>
	</outline>
	<anchor name="bottom.LC" x="300" y="-50"/>
	<anchor name="top.LC" x="315" y="544"/>
</glyph>
<glyph name="o" format="1">
  <advance width="628"/>
  <unicode hex="006F"/>
  <outline>
    <contour>
      <point x="314" y="-16" type="curve" smooth="yes"/>
      <point x="474" y="-16"/>
      <point x="586" y="95"/>
      <point x="586" y="250" type="curve" smooth="yes"/>
      <point x="586" y="404"/>
      <point x="474" y="515"/>
      <point x="314" y="515" type="curve" smooth="yes"/>
      <point x="155" y="515"/>
      <point x="42" y="404"/>
      <point x="42" y="250" type="curve" smooth="yes"/>
      <point x="42" y="95"/>
      <point x="155" y="-16"/>
    </contour>
    <contour>
      <point x="314" y="78" type="curve" smooth="yes"/>
      <point x="222" y="78"/>
      <point x="159" y="149"/>
      <point x="159" y="250" type="curve" smooth="yes"/>
      <point x="159" y="350"/>
      <point x="222" y="421"/>
      <point x="314" y="421" type="curve" smooth="yes"/>
      <point x="407" y="421"/>
      <point x="470" y="350"/>
      <point x="470" y="250" type="curve" smooth="yes"/>
      <point x="470" y="149"/>
      <point x="407" y="78"/>
    </contour>
    <contour>
      <point x="314" y="-50" type="move" name="bottom.LC"/>
    </contour>
    <contour>
      <point x="314" y="544" type="move" name="top.LC"/>
    </contour>
    <contour>
      <point x="451" y="493" type="move" name="topright.LC"/>
    </contour>
  </outline>
</glyph>
<glyph name="r" format="1">
  <advance width="386"/>
  <unicode hex="0072"/>
  <outline>
    <contour>
      <point x="358" y="508" type="line"/>
      <point x="343" y="508" type="line" smooth="yes"/>
      <point x="265" y="508"/>
      <point x="178" y="468"/>
      <point x="158" y="338" type="curve"/>
      <point x="173" y="338" type="line"/>
      <point x="173" y="499" type="line"/>
      <point x="62" y="499" type="line"/>
      <point x="62" y="0" type="line"/>
      <point x="174" y="0" type="line"/>
      <point x="174" y="212" type="line" smooth="yes"/>
      <point x="174" y="347"/>
      <point x="242" y="404"/>
      <point x="334" y="404" type="curve" smooth="yes"/>
      <point x="358" y="404" type="line"/>
    </contour>
    <contour>
      <point x="216" y="544" type="move" name="top.LC"/>
    </contour>
  </outline>
</glyph>
<glyph name="s" format="1">
  <advance width="532"/>
  <unicode hex="0073"/>
  <outline>
    <contour>
      <point x="25" y="76" type="line"/>
      <point x="84" y="19"/>
      <point x="166" y="-16"/>
      <point x="264" y="-16" type="curve" smooth="yes"/>
      <point x="398" y="-16"/>
      <point x="492" y="49"/>
      <point x="492" y="148" type="curve" smooth="yes"/>
      <point x="492" y="238"/>
      <point x="425" y="284"/>
      <point x="278" y="305" type="curve" smooth="yes"/>
      <point x="189" y="317"/>
      <point x="158" y="331"/>
      <point x="158" y="363" type="curve" smooth="yes"/>
      <point x="158" y="402"/>
      <point x="200" y="429"/>
      <point x="263" y="429" type="curve" smooth="yes"/>
      <point x="326" y="429"/>
      <point x="380" y="400"/>
      <point x="421" y="355" type="curve"/>
      <point x="486" y="426" type="line"/>
      <point x="431" y="480"/>
      <point x="357" y="515"/>
      <point x="262" y="515" type="curve" smooth="yes"/>
      <point x="138" y="515"/>
      <point x="48" y="451"/>
      <point x="48" y="355" type="curve" smooth="yes"/>
      <point x="48" y="273"/>
      <point x="110" y="230"/>
      <point x="257" y="209" type="curve" smooth="yes"/>
      <point x="350" y="196"/>
      <point x="382" y="179"/>
      <point x="382" y="141" type="curve" smooth="yes"/>
      <point x="382" y="100"/>
      <point x="336" y="71"/>
      <point x="268" y="71" type="curve" smooth="yes"/>
      <point x="199" y="71"/>
      <point x="135" y="99"/>
      <point x="90" y="146" type="curve"/>
    </contour>
    <contour>
      <point x="262" y="-50" type="move" name="bottom.LC"/>
    </contour>
    <contour>
      <point x="262" y="544" type="move" name="top.LC"/>
    </contour>
  </outline>
</glyph>
<glyph name="t" format="2">
	<unicode hex="0074"/>
	<advance width="410"/>
	<outline>
		<contour>
			<point x="375" y="0" type="line"/>
			<point x="375" y="93" type="line"/>
			<point x="287" y="93" type="line" smooth="yes"/>
			<point x="253" y="93"/>
			<point x="237" y="109"/>
			<point x="237" y="144" type="curve" smooth="yes"/>
			<point x="237" y="636" type="line"/>
			<point x="125" y="636" type="line"/>
			<point x="125" y="127" type="line" smooth="yes"/>
			<point x="125" y="43"/>
			<point x="168" y="0"/>
			<point x="252" y="0" type="curve" smooth="yes"/>
		</contour>
		<contour>
			<point x="368" y="408" type="line"/>
			<point x="368" y="499" type="line"/>
			<point x="32" y="499" type="line"/>
			<point x="32" y="408" type="line"/>
		</contour>
	</outline>
	<anchor name="bottom.LC" x="262" y="-50"/>
	<anchor name="top_right.LC.short" x="323" y="540"/>
</glyph>
<glyph name="u" format="2">
	<unicode hex="0075"/>
	<advance width="593"/>
	<outline>
		<contour>
			<point x="530" y="0" type="line"/>
			<point x="530" y="499" type="line"/>
			<point x="418" y="499" type="line"/>
			<point x="418" y="124" type="line"/>
			<point x="419" y="96" type="line"/>
			<point x="419" y="0" type="line"/>
		</contour>
		<contour>
			<point x="426" y="211" type="line"/>
			<point x="418" y="132"/>
			<point x="354" y="78"/>
			<point x="280" y="78" type="curve" smooth="yes"/>
			<point x="210" y="78"/>
			<point x="168" y="120"/>
			<point x="168" y="201" type="curve" smooth="yes"/>
			<point x="168" y="499" type="line"/>
			<point x="56" y="499" type="line"/>
			<point x="56" y="190" type="line" smooth="yes"/>
			<point x="56" y="56"/>
			<point x="132" y="-16"/>
			<point x="250" y="-16" type="curve" smooth="yes"/>
			<point x="371" y="-16"/>
			<point x="454" y="69"/>
			<point x="449" y="192" type="curve"/>
		</contour>
	</outline>
	<anchor name="bottom.LC" x="293" y="-50"/>
	<anchor name="ogonek.LC" x="414" y="-30"/>
	<anchor name="top.LC" x="293" y="544"/>
	<anchor name="topright.LC" x="439" y="544"/>
</glyph>
<glyph name="v" format="1">
  <advance width="572"/>
  <unicode hex="0076"/>
  <outline>
    <contour>
      <point x="341" y="0" type="line"/>
      <point x="554" y="499" type="line"/>
      <point x="441" y="499" type="line"/>
      <point x="272" y="73" type="line"/>
      <point x="303" y="73" type="line"/>
      <point x="135" y="499" type="line"/>
      <point x="18" y="499" type="line"/>
      <point x="232" y="0" type="line"/>
    </contour>
  </outline>
</glyph>
<glyph name="w" format="2">
	<unicode hex="0077"/>
	<advance width="807"/>
	<outline>
		<contour>
			<point x="632" y="0" type="line"/>
			<point x="789" y="499" type="line"/>
			<point x="680" y="499" type="line"/>
			<point x="558" y="64" type="line"/>
			<point x="590" y="64" type="line"/>
			<point x="455" y="499" type="line"/>
			<point x="356" y="499" type="line"/>
			<point x="221" y="64" type="line"/>
			<point x="253" y="64" type="line"/>
			<point x="130" y="499" type="line"/>
			<point x="18" y="499" type="line"/>
			<point x="175" y="0" type="line"/>
			<point x="291" y="0" type="line"/>
			<point x="418" y="400" type="line"/>
			<point x="389" y="400" type="line"/>
			<point x="516" y="0" type="line"/>
		</contour>
	</outline>
	<anchor name="top.LC" x="404" y="544"/>
</glyph>
<glyph name="x" format="1">
  <advance width="550"/>
  <unicode hex="0078"/>
  <outline>
    <contour>
      <point x="139" y="0" type="line"/>
      <point x="275" y="191" type="line"/>
      <point x="411" y="0" type="line"/>
      <point x="539" y="0" type="line"/>
      <point x="347" y="259" type="line"/>
      <point x="523" y="499" type="line"/>
      <point x="396" y="499" type="line"/>
      <point x="275" y="324" type="line"/>
      <point x="155" y="499" type="line"/>
      <point x="28" y="499" type="line"/>
      <point x="204" y="259" type="line"/>
      <point x="11" y="0" type="line"/>
    </contour>
  </outline>
</glyph>
<glyph name="y" format="2">
	<unicode hex="0079"/>
	<advance width="572"/>
	<outline>
		<contour>
			<point x="441" y="499" type="line"/>
			<point x="268" y="62" type="line"/>
			<point x="307" y="62" type="line"/>
			<point x="135" y="499" type="line"/>
			<point x="18" y="499" type="line"/>
			<point x="233" y="-1" type="line"/>
			<point x="216" y="-43" type="line" smooth="yes"/>
			<point x="199" y="-82"/>
			<point x="173" y="-101"/>
			<point x="132" y="-101" type="curve" smooth="yes"/>
			<point x="77" y="-101" type="line"/>
			<point x="77" y="-194" type="line"/>
			<point x="137" y="-194" type="line" smooth="yes"/>
			<point x="229" y="-194"/>
			<point x="277" y="-150"/>
			<point x="311" y="-69" type="curve" smooth="yes"/>
			<point x="554" y="499" type="line"/>
		</contour>
	</outline>
	<anchor name="bottom.LC" x="419" y="-50"/>
	<anchor name="top.LC" x="287" y="544"/>
</glyph>
<glyph name="z" format="2">
	<unicode hex="007A"/>
	<advance width="508"/>
	<outline>
		<contour>
			<point x="471" y="0" type="line"/>
			<point x="471" y="91" type="line"/>
			<point x="177" y="91" type="line"/>
			<point x="461" y="408" type="line"/>
			<point x="461" y="499" type="line"/>
			<point x="49" y="499" type="line"/>
			<point x="49" y="408" type="line"/>
			<point x="323" y="408" type="line"/>
			<point x="39" y="91" type="line"/>
			<point x="39" y="0" type="line"/>
		</contour>
	</outline>
	<anchor name="top.LC" x="252" y="544"/>
</glyph>
<glyph name="braceleft" format="1">
  <advance width="392"/>
  <unicode hex="007B"/>
  <outline>
    <contour>
      <point x="353" y="-40" type="line"/>
      <point x="296" y="-40" type="line" smooth="yes"/>
      <point x="255" y="-40"/>
      <point x="239" y="-24"/>
      <point x="239" y="17" type="curve" smooth="yes"/>
      <point x="239" y="181" type="line" smooth="yes"/>
      <point x="239" y="271"/>
      <point x="196" y="314"/>
      <point x="106" y="314" type="curve"/>
      <point x="106" y="289" type="line"/>
      <point x="196" y="289"/>
      <point x="239" y="333"/>
      <point x="239" y="423" type="curve" smooth="yes"/>
      <point x="239" y="584" type="line" smooth="yes"/>
      <point x="239" y="625"/>
      <point x="255" y="642"/>
      <point x="296" y="642" type="curve" smooth="yes"/>
      <point x="353" y="642" type="line"/>
      <point x="353" y="731" type="line"/>
      <point x="263" y="731" type="line" smooth="yes"/>
      <point x="173" y="731"/>
      <point x="129" y="688"/>
      <point x="129" y="598" type="curve" smooth="yes"/>
      <point x="129" y="404" type="line" smooth="yes"/>
      <point x="129" y="363"/>
      <point x="113" y="346"/>
      <point x="73" y="346" type="curve" smooth="yes"/>
      <point x="39" y="346" type="line"/>
      <point x="39" y="257" type="line"/>
      <point x="73" y="257" type="line" smooth="yes"/>
      <point x="113" y="257"/>
      <point x="129" y="241"/>
      <point x="129" y="200" type="curve" smooth="yes"/>
      <point x="129" y="4" type="line" smooth="yes"/>
      <point x="129" y="-86"/>
      <point x="173" y="-129"/>
      <point x="263" y="-129" type="curve" smooth="yes"/>
      <point x="353" y="-129" type="line"/>
    </contour>
  </outline>
</glyph>
<glyph name="bar" format="1">
  <advance width="229"/>
  <unicode hex="007C"/>
  <outline>
    <contour>
      <point x="170" y="-129" type="line"/>
      <point x="170" y="736" type="line"/>
      <point x="60" y="736" type="line"/>
      <point x="60" y="-129" type="line"/>
    </contour>
  </outline>
</glyph>
<glyph name="braceright" format="2">
	<unicode hex="007D"/>
	<advance width="392"/>
	<outline>
		<contour>
			<point x="39" y="-129" type="line"/>
			<point x="129" y="-129" type="line" smooth="yes"/>
			<point x="219" y="-129"/>
			<point x="263" y="-86"/>
			<point x="263" y="4" type="curve" smooth="yes"/>
			<point x="263" y="200" type="line" smooth="yes"/>
			<point x="263" y="241"/>
			<point x="279" y="257"/>
			<point x="319" y="257" type="curve" smooth="yes"/>
			<point x="352" y="257" type="line"/>
			<point x="352" y="346" type="line"/>
			<point x="319" y="346" type="line" smooth="yes"/>
			<point x="279" y="346"/>
			<point x="263" y="363"/>
			<point x="263" y="404" type="curve" smooth="yes"/>
			<point x="263" y="598" type="line" smooth="yes"/>
			<point x="263" y="688"/>
			<point x="219" y="731"/>
			<point x="129" y="731" type="curve" smooth="yes"/>
			<point x="39" y="731" type="line"/>
			<point x="39" y="642" type="line"/>
			<point x="96" y="642" type="line" smooth="yes"/>
			<point x="137" y="642"/>
			<point x="153" y="625"/>
			<point x="153" y="584" type="curve" smooth="yes"/>
			<point x="153" y="423" type="line" smooth="yes"/>
			<point x="153" y="333"/>
			<point x="196" y="289"/>
			<point x="286" y="289" type="curve"/>
			<point x="286" y="314" type="line"/>
			<point x="196" y="314"/>
			<point x="153" y="271"/>
			<point x="153" y="181" type="curve" smooth="yes"/>
			<point x="153" y="17" type="line" smooth="yes"/>
			<point x="153" y="-24"/>
			<point x="137" y="-40"/>
			<point x="96" y="-40" type="curve" smooth="yes"/>
			<point x="39" y="-40" type="line"/>
		</contour>
	</outline>
</glyph>
<glyph name="asciitilde" format="2">
	<unicode hex="007E"/>
	<advance width="660"/>
	<outline>
		<contour>
			<point x="496" y="453" type="line"/>
			<point x="483" y="392"/>
			<point x="461" y="357"/>
			<point x="426" y="357" type="curve" smooth="yes"/>
			<point x="409" y="357"/>
			<point x="396" y="364"/>
			<point x="345" y="403" type="curve" smooth="yes"/>
			<point x="295" y="442"/>
			<point x="258" y="456"/>
			<point x="230" y="456" type="curve" smooth="yes"/>
			<point x="157" y="456"/>
			<point x="109" y="410"/>
			<point x="80" y="304" type="curve"/>
			<point x="164" y="261" type="line"/>
			<point x="176" y="322"/>
			<point x="198" y="357"/>
			<point x="234" y="357" type="curve" smooth="yes"/>
			<point x="250" y="357"/>
			<point x="263" y="350"/>
			<point x="314" y="311" type="curve" smooth="yes"/>
			<point x="364" y="272"/>
			<point x="401" y="258"/>
			<point x="429" y="258" type="curve" smooth="yes"/>
			<point x="503" y="258"/>
			<point x="551" y="304"/>
			<point x="579" y="410" type="curve"/>
		</contour>
	</outline>
</glyph>
<glyph name="exclamdown" format="2">
	<unicode hex="00A1"/>
	<advance width="248"/>
	<outline>
		<contour>
			<point x="50" y="427" type="curve" smooth="yes"/>
			<point x="50" y="387"/>
			<point x="83" y="355"/>
			<point x="124" y="355" type="curve" smooth="yes"/>
			<point x="165" y="355"/>
			<point x="197" y="387"/>
			<point x="197" y="427" type="curve" smooth="yes"/>
			<point x="197" y="467"/>
			<point x="165" y="499"/>
			<point x="124" y="499" type="curve" smooth="yes"/>
			<point x="83" y="499"/>
			<point x="50" y="467"/>
		</contour>
		<contour>
			<point x="95" y="272" type="line"/>
			<point x="88" y="208"/>
			<point x="59" y="-155"/>
			<point x="59" y="-180" type="curve" smooth="yes"/>
			<point x="59" y="-216"/>
			<point x="88" y="-242"/>
			<point x="124" y="-242" type="curve" smooth="yes"/>
			<point x="160" y="-242"/>
			<point x="188" y="-216"/>
			<point x="188" y="-180" type="curve" smooth="yes"/>
			<point x="188" y="-155"/>
			<point x="159" y="208"/>
			<point x="153" y="272" type="curve"/>
		</contour>
	</outline>
</glyph>
<glyph name="cent" format="2">
	<unicode hex="00A2"/>
	<advance width="660"/>
	<outline>
		<contour>
			<point x="504" y="150" type="line"/>
			<point x="475" y="107"/>
			<point x="430" y="73"/>
			<point x="365" y="73" type="curve" smooth="yes"/>
			<point x="269" y="73"/>
			<point x="200" y="147"/>
			<point x="200" y="250" type="curve" smooth="yes"/>
			<point x="200" y="352"/>
			<point x="269" y="426"/>
			<point x="365" y="426" type="curve" smooth="yes"/>
			<point x="429" y="426"/>
			<point x="476" y="392"/>
			<point x="504" y="350" type="curve"/>
			<point x="572" y="416" type="line"/>
			<point x="522" y="479"/>
			<point x="450" y="515"/>
			<point x="360" y="515" type="curve" smooth="yes"/>
			<point x="204" y="515"/>
			<point x="89" y="404"/>
			<point x="89" y="250" type="curve" smooth="yes"/>
			<point x="89" y="95"/>
			<point x="203" y="-16"/>
			<point x="358" y="-16" type="curve" smooth="yes"/>
			<point x="450" y="-16"/>
			<point x="522" y="21"/>
			<point x="572" y="83" type="curve"/>
		</contour>
		<contour>
			<point x="393" y="-116" type="line"/>
			<point x="393" y="615" type="line"/>
			<point x="325" y="615" type="line"/>
			<point x="325" y="-116" type="line"/>
		</contour>
	</outline>
</glyph>
<glyph name="sterling" format="1">
  <advance width="660"/>
  <unicode hex="00A3"/>
  <outline>
    <contour>
      <point x="612" y="0" type="line"/>
      <point x="612" y="93" type="line"/>
      <point x="61" y="93" type="line"/>
      <point x="61" y="0" type="line"/>
    </contour>
    <contour>
      <point x="498" y="308" type="line"/>
      <point x="498" y="397" type="line"/>
      <point x="71" y="397" type="line"/>
      <point x="71" y="308" type="line"/>
    </contour>
    <contour>
      <point x="613" y="611" type="line"/>
      <point x="562" y="688"/>
      <point x="488" y="731"/>
      <point x="396" y="731" type="curve" smooth="yes"/>
      <point x="251" y="731"/>
      <point x="162" y="632"/>
      <point x="162" y="487" type="curve" smooth="yes"/>
      <point x="162" y="47" type="line"/>
      <point x="273" y="47" type="line"/>
      <point x="273" y="489" type="line" smooth="yes"/>
      <point x="273" y="578"/>
      <point x="318" y="635"/>
      <point x="396" y="635" type="curve" smooth="yes"/>
      <point x="452" y="635"/>
      <point x="496" y="606"/>
      <point x="537" y="541" type="curve"/>
    </contour>
  </outline>
</glyph>
<glyph name="currency" format="1">
  <advance width="602"/>
  <unicode hex="00A4"/>
  <outline>
    <contour>
      <point x="301" y="242" type="curve" smooth="yes"/>
      <point x="229" y="242"/>
      <point x="175" y="299"/>
      <point x="175" y="376" type="curve" smooth="yes"/>
      <point x="175" y="452"/>
      <point x="229" y="509"/>
      <point x="301" y="509" type="curve" smooth="yes"/>
      <point x="373" y="509"/>
      <point x="427" y="452"/>
      <point x="427" y="376" type="curve" smooth="yes"/>
      <point x="427" y="299"/>
      <point x="373" y="242"/>
    </contour>
    <contour>
      <point x="301" y="160" type="curve" smooth="yes"/>
      <point x="346" y="160"/>
      <point x="388" y="174"/>
      <point x="422" y="197" type="curve"/>
      <point x="497" y="122" type="line"/>
      <point x="550" y="175" type="line"/>
      <point x="477" y="248" type="line"/>
      <point x="503" y="284"/>
      <point x="518" y="328"/>
      <point x="518" y="376" type="curve" smooth="yes"/>
      <point x="518" y="423"/>
      <point x="503" y="467"/>
      <point x="477" y="503" type="curve"/>
      <point x="550" y="576" type="line"/>
      <point x="497" y="629" type="line"/>
      <point x="422" y="554" type="line"/>
      <point x="388" y="577"/>
      <point x="346" y="591"/>
      <point x="301" y="591" type="curve" smooth="yes"/>
      <point x="256" y="591"/>
      <point x="214" y="577"/>
      <point x="180" y="554" type="curve"/>
      <point x="105" y="629" type="line"/>
      <point x="52" y="576" type="line"/>
      <point x="125" y="503" type="line"/>
      <point x="100" y="467"/>
      <point x="84" y="423"/>
      <point x="84" y="376" type="curve" smooth="yes"/>
      <point x="84" y="328"/>
      <point x="100" y="284"/>
      <point x="125" y="248" type="curve"/>
      <point x="52" y="175" type="line"/>
      <point x="105" y="122" type="line"/>
      <point x="180" y="197" type="line"/>
      <point x="214" y="174"/>
      <point x="256" y="160"/>
    </contour>
  </outline>
</glyph>
<glyph name="yen" format="2">
	<unicode hex="00A5"/>
	<advance width="660"/>
	<outline>
		<contour>
			<point x="385" y="0" type="line"/>
			<point x="385" y="311" type="line"/>
			<point x="636" y="715" type="line"/>
			<point x="514" y="715" type="line"/>
			<point x="319" y="387" type="line"/>
			<point x="343" y="387" type="line"/>
			<point x="148" y="715" type="line"/>
			<point x="24" y="715" type="line"/>
			<point x="275" y="313" type="line"/>
			<point x="275" y="0" type="line"/>
		</contour>
		<contour>
			<point x="556" y="123" type="line"/>
			<point x="556" y="205" type="line"/>
			<point x="104" y="205" type="line"/>
			<point x="104" y="123" type="line"/>
		</contour>
		<contour>
			<point x="556" y="280" type="line"/>
			<point x="556" y="362" type="line"/>
			<point x="104" y="362" type="line"/>
			<point x="104" y="280" type="line"/>
		</contour>
	</outline>
</glyph>
<glyph name="brokenbar" format="1">
  <advance width="229"/>
  <unicode hex="00A6"/>
  <outline>
    <contour>
      <point x="170" y="-129" type="line"/>
      <point x="170" y="217" type="line"/>
      <point x="60" y="217" type="line"/>
      <point x="60" y="-129" type="line"/>
    </contour>
    <contour>
      <point x="170" y="390" type="line"/>
      <point x="170" y="736" type="line"/>
      <point x="60" y="736" type="line"/>
      <point x="60" y="390" type="line"/>
    </contour>
  </outline>
</glyph>
<glyph name="section" format="2">
	<unicode hex="00A7"/>
	<advance width="584"/>
	<outline>
		<contour>
			<point x="526" y="310" type="curve" smooth="yes"/>
			<point x="525" y="401"/>
			<point x="452" y="447"/>
			<point x="316" y="477" type="curve" smooth="yes"/>
			<point x="231" y="496"/>
			<point x="199" y="523"/>
			<point x="199" y="566" type="curve" smooth="yes"/>
			<point x="199" y="616"/>
			<point x="241" y="648"/>
			<point x="301" y="648" type="curve" smooth="yes"/>
			<point x="362" y="648"/>
			<point x="417" y="616"/>
			<point x="452" y="574" type="curve"/>
			<point x="509" y="639" type="line"/>
			<point x="461" y="693"/>
			<point x="384" y="731"/>
			<point x="300" y="731" type="curve" smooth="yes"/>
			<point x="188" y="731"/>
			<point x="101" y="659"/>
			<point x="101" y="561" type="curve" smooth="yes"/>
			<point x="101" y="509"/>
			<point x="126" y="467"/>
			<point x="173" y="437" type="curve"/>
			<point x="115" y="408"/>
			<point x="77" y="359"/>
			<point x="77" y="297" type="curve" smooth="yes"/>
			<point x="77" y="206"/>
			<point x="153" y="160"/>
			<point x="288" y="130" type="curve" smooth="yes"/>
			<point x="372" y="111"/>
			<point x="406" y="84"/>
			<point x="406" y="35" type="curve" smooth="yes"/>
			<point x="406" y="-10"/>
			<point x="362" y="-45"/>
			<point x="296" y="-45" type="curve" smooth="yes"/>
			<point x="230" y="-45"/>
			<point x="164" y="-13"/>
			<point x="126" y="30" type="curve"/>
			<point x="70" y="-35" type="line"/>
			<point x="120" y="-90"/>
			<point x="204" y="-128"/>
			<point x="295" y="-128" type="curve" smooth="yes"/>
			<point x="413" y="-128"/>
			<point x="503" y="-57"/>
			<point x="503" y="40" type="curve" smooth="yes"/>
			<point x="503" y="98"/>
			<point x="477" y="140"/>
			<point x="430" y="170" type="curve"/>
			<point x="487" y="199"/>
			<point x="526" y="248"/>
		</contour>
		<contour>
			<point x="429" y="297" type="curve"/>
			<point x="429" y="252"/>
			<point x="391" y="221"/>
			<point x="347" y="207" type="curve"/>
			<point x="306" y="218" type="line" smooth="yes"/>
			<point x="215" y="238"/>
			<point x="174" y="263"/>
			<point x="174" y="312" type="curve" smooth="yes"/>
			<point x="174" y="355"/>
			<point x="211" y="386"/>
			<point x="255" y="400" type="curve"/>
			<point x="297" y="389" type="line" smooth="yes"/>
			<point x="387" y="368"/>
			<point x="428" y="343"/>
		</contour>
	</outline>
</glyph>
<glyph name="copyright" format="1">
  <advance width="852"/>
  <unicode hex="00A9"/>
  <outline>
    <contour>
      <point x="543" y="279" type="line"/>
      <point x="518" y="242"/>
      <point x="480" y="220"/>
      <point x="433" y="220" type="curve" smooth="yes"/>
      <point x="359" y="220"/>
      <point x="305" y="278"/>
      <point x="305" y="358" type="curve" smooth="yes"/>
      <point x="305" y="439"/>
      <point x="359" y="497"/>
      <point x="433" y="497" type="curve" smooth="yes"/>
      <point x="480" y="497"/>
      <point x="518" y="475"/>
      <point x="543" y="439" type="curve"/>
      <point x="599" y="495" type="line"/>
      <point x="563" y="541"/>
      <point x="504" y="572"/>
      <point x="431" y="572" type="curve" smooth="yes"/>
      <point x="306" y="572"/>
      <point x="214" y="483"/>
      <point x="214" y="358" type="curve" smooth="yes"/>
      <point x="214" y="234"/>
      <point x="304" y="145"/>
      <point x="429" y="145" type="curve" smooth="yes"/>
      <point x="502" y="145"/>
      <point x="563" y="175"/>
      <point x="599" y="221" type="curve"/>
    </contour>
    <contour>
      <point x="426" y="-26" type="curve" smooth="yes"/>
      <point x="639" y="-26"/>
      <point x="807" y="144"/>
      <point x="807" y="358" type="curve" smooth="yes"/>
      <point x="807" y="572"/>
      <point x="639" y="742"/>
      <point x="426" y="742" type="curve" smooth="yes"/>
      <point x="213" y="742"/>
      <point x="45" y="572"/>
      <point x="45" y="358" type="curve" smooth="yes"/>
      <point x="45" y="144"/>
      <point x="213" y="-26"/>
    </contour>
    <contour>
      <point x="426" y="49" type="curve" smooth="yes"/>
      <point x="256" y="49"/>
      <point x="121" y="185"/>
      <point x="121" y="358" type="curve" smooth="yes"/>
      <point x="121" y="531"/>
      <point x="256" y="667"/>
      <point x="426" y="667" type="curve" smooth="yes"/>
      <point x="596" y="667"/>
      <point x="731" y="531"/>
      <point x="731" y="358" type="curve" smooth="yes"/>
      <point x="731" y="185"/>
      <point x="596" y="49"/>
    </contour>
  </outline>
</glyph>
<glyph name="ordfeminine" format="2">
	<unicode hex="00AA"/>
	<advance width="470"/>
	<outline>
		<contour>
			<point x="413" y="310" type="line"/>
			<point x="413" y="552" type="line" smooth="yes"/>
			<point x="413" y="654"/>
			<point x="337" y="715"/>
			<point x="223" y="715" type="curve" smooth="yes"/>
			<point x="155" y="715"/>
			<point x="94" y="690"/>
			<point x="52" y="648" type="curve"/>
			<point x="105" y="589" type="line"/>
			<point x="134" y="620"/>
			<point x="173" y="639"/>
			<point x="219" y="639" type="curve" smooth="yes"/>
			<point x="281" y="639"/>
			<point x="321" y="606"/>
			<point x="321" y="550" type="curve" smooth="yes"/>
			<point x="321" y="402" type="line"/>
			<point x="325" y="389" type="line"/>
			<point x="325" y="310" type="line"/>
		</contour>
		<contour>
			<point x="190" y="298" type="curve" smooth="yes"/>
			<point x="289" y="298"/>
			<point x="357" y="364"/>
			<point x="357" y="460" type="curve"/>
			<point x="330" y="474" type="line"/>
			<point x="325" y="414"/>
			<point x="276" y="371"/>
			<point x="213" y="371" type="curve" smooth="yes"/>
			<point x="168" y="371"/>
			<point x="138" y="393"/>
			<point x="138" y="429" type="curve" smooth="yes"/>
			<point x="138" y="469"/>
			<point x="177" y="490"/>
			<point x="234" y="490" type="curve" smooth="yes"/>
			<point x="329" y="490" type="line"/>
			<point x="329" y="554" type="line"/>
			<point x="227" y="554" type="line" smooth="yes"/>
			<point x="113" y="554"/>
			<point x="39" y="506"/>
			<point x="39" y="425" type="curve" smooth="yes"/>
			<point x="39" y="350"/>
			<point x="100" y="298"/>
		</contour>
	</outline>
</glyph>
<glyph name="logicalnot" format="1">
  <advance width="660"/>
  <unicode hex="00AC"/>
  <outline>
    <contour>
      <point x="551" y="162" type="line"/>
      <point x="551" y="403" type="line"/>
      <point x="109" y="403" type="line"/>
      <point x="109" y="312" type="line"/>
      <point x="461" y="312" type="line"/>
      <point x="461" y="162" type="line"/>
    </contour>
  </outline>
</glyph>
<glyph name="registered" format="1">
  <advance width="528"/>
  <unicode hex="00AE"/>
  <outline>
    <contour>
      <point x="222" y="384" type="line"/>
      <point x="222" y="563" type="line"/>
      <point x="274" y="563" type="line" smooth="yes"/>
      <point x="297" y="563"/>
      <point x="313" y="550"/>
      <point x="313" y="532" type="curve" smooth="yes"/>
      <point x="313" y="514"/>
      <point x="297" y="501"/>
      <point x="274" y="501" type="curve" smooth="yes"/>
      <point x="219" y="501" type="line"/>
      <point x="219" y="461" type="line"/>
      <point x="274" y="461" type="line" smooth="yes"/>
      <point x="326" y="461"/>
      <point x="361" y="490"/>
      <point x="361" y="532" type="curve" smooth="yes"/>
      <point x="361" y="574"/>
      <point x="326" y="604"/>
      <point x="274" y="604" type="curve" smooth="yes"/>
      <point x="175" y="604" type="line"/>
      <point x="175" y="384" type="line"/>
    </contour>
    <contour>
      <point x="380" y="384" type="line"/>
      <point x="297" y="473" type="line"/>
      <point x="241" y="473" type="line"/>
      <point x="322" y="384" type="line"/>
    </contour>
    <contour>
      <point x="264" y="256" type="curve" smooth="yes"/>
      <point x="389" y="256"/>
      <point x="491" y="360"/>
      <point x="491" y="488" type="curve" smooth="yes"/>
      <point x="491" y="616"/>
      <point x="389" y="720"/>
      <point x="264" y="720" type="curve" smooth="yes"/>
      <point x="138" y="720"/>
      <point x="37" y="616"/>
      <point x="37" y="488" type="curve" smooth="yes"/>
      <point x="37" y="360"/>
      <point x="138" y="256"/>
    </contour>
    <contour>
      <point x="264" y="317" type="curve" smooth="yes"/>
      <point x="170" y="317"/>
      <point x="100" y="387"/>
      <point x="100" y="488" type="curve" smooth="yes"/>
      <point x="100" y="589"/>
      <point x="170" y="659"/>
      <point x="264" y="659" type="curve" smooth="yes"/>
      <point x="358" y="659"/>
      <point x="428" y="589"/>
      <point x="428" y="488" type="curve" smooth="yes"/>
      <point x="428" y="387"/>
      <point x="358" y="317"/>
    </contour>
  </outline>
</glyph>
<glyph name="degree" format="2">
	<unicode hex="00B0"/>
	<advance width="467"/>
	<outline>
		<contour>
			<point x="234" y="378" type="curve" smooth="yes"/>
			<point x="332" y="378"/>
			<point x="412" y="458"/>
			<point x="412" y="554" type="curve" smooth="yes"/>
			<point x="412" y="652"/>
			<point x="332" y="731"/>
			<point x="234" y="731" type="curve" smooth="yes"/>
			<point x="135" y="731"/>
			<point x="55" y="652"/>
			<point x="55" y="554" type="curve" smooth="yes"/>
			<point x="55" y="458"/>
			<point x="135" y="378"/>
		</contour>
		<contour>
			<point x="234" y="458" type="curve" smooth="yes"/>
			<point x="182" y="458"/>
			<point x="142" y="500"/>
			<point x="142" y="554" type="curve" smooth="yes"/>
			<point x="142" y="608"/>
			<point x="182" y="651"/>
			<point x="234" y="651" type="curve" smooth="yes"/>
			<point x="285" y="651"/>
			<point x="325" y="608"/>
			<point x="325" y="554" type="curve" smooth="yes"/>
			<point x="325" y="500"/>
			<point x="285" y="458"/>
		</contour>
	</outline>
</glyph>
<glyph name="micro" format="2">
	<unicode hex="00B5"/>
	<advance width="660"/>
	<outline>
		<contour>
			<point x="567" y="0" type="line"/>
			<point x="567" y="499" type="line"/>
			<point x="455" y="499" type="line"/>
			<point x="455" y="124" type="line"/>
			<point x="456" y="96" type="line"/>
			<point x="456" y="0" type="line"/>
		</contour>
		<contour>
			<point x="151" y="60" type="line"/>
			<point x="175" y="10"/>
			<point x="227" y="-16"/>
			<point x="294" y="-16" type="curve" smooth="yes"/>
			<point x="410" y="-16"/>
			<point x="491" y="69"/>
			<point x="486" y="192" type="curve"/>
			<point x="463" y="211" type="line"/>
			<point x="455" y="132"/>
			<point x="391" y="78"/>
			<point x="317" y="78" type="curve" smooth="yes"/>
			<point x="247" y="78"/>
			<point x="205" y="120"/>
			<point x="205" y="201" type="curve" smooth="yes"/>
			<point x="205" y="499" type="line"/>
			<point x="93" y="499" type="line"/>
			<point x="93" y="-194" type="line"/>
			<point x="205" y="-194" type="line"/>
			<point x="205" y="92" type="line"/>
		</contour>
	</outline>
</glyph>
<glyph name="paragraph" format="2">
	<unicode hex="00B6"/>
	<advance width="641"/>
	<outline>
		<contour>
			<point x="351" y="-130" type="line"/>
			<point x="351" y="620" type="line"/>
			<point x="457" y="620" type="line"/>
			<point x="457" y="-130" type="line"/>
			<point x="559" y="-130" type="line"/>
			<point x="559" y="715" type="line"/>
			<point x="295" y="715" type="line" smooth="yes"/>
			<point x="142" y="715"/>
			<point x="40" y="627"/>
			<point x="40" y="494" type="curve" smooth="yes"/>
			<point x="40" y="377"/>
			<point x="124" y="290"/>
			<point x="249" y="278" type="curve"/>
			<point x="249" y="-130" type="line"/>
		</contour>
	</outline>
</glyph>
<glyph name="ordmasculine" format="2">
	<unicode hex="00BA"/>
	<advance width="519"/>
	<outline>
		<contour>
			<point x="259" y="298" type="curve" smooth="yes"/>
			<point x="386" y="298"/>
			<point x="475" y="385"/>
			<point x="475" y="507" type="curve" smooth="yes"/>
			<point x="475" y="629"/>
			<point x="386" y="715"/>
			<point x="259" y="715" type="curve" smooth="yes"/>
			<point x="133" y="715"/>
			<point x="44" y="629"/>
			<point x="44" y="507" type="curve" smooth="yes"/>
			<point x="44" y="385"/>
			<point x="133" y="298"/>
		</contour>
		<contour>
			<point x="259" y="380" type="curve" smooth="yes"/>
			<point x="192" y="380"/>
			<point x="146" y="433"/>
			<point x="146" y="507" type="curve" smooth="yes"/>
			<point x="146" y="581"/>
			<point x="192" y="633"/>
			<point x="259" y="633" type="curve" smooth="yes"/>
			<point x="327" y="633"/>
			<point x="373" y="581"/>
			<point x="373" y="507" type="curve" smooth="yes"/>
			<point x="373" y="433"/>
			<point x="327" y="380"/>
		</contour>
	</outline>
</glyph>
<glyph name="questiondown" format="2">
	<unicode hex="00BF"/>
	<advance width="571"/>
	<outline>
		<contour>
			<point x="263" y="272" type="line"/>
			<point x="263" y="215"/>
			<point x="243" y="181"/>
			<point x="179" y="143" type="curve" smooth="yes"/>
			<point x="95" y="91"/>
			<point x="53" y="35"/>
			<point x="53" y="-39" type="curve" smooth="yes"/>
			<point x="53" y="-154"/>
			<point x="152" y="-242"/>
			<point x="286" y="-242" type="curve" smooth="yes"/>
			<point x="384" y="-242"/>
			<point x="474" y="-195"/>
			<point x="539" y="-110" type="curve"/>
			<point x="464" y="-37" type="line"/>
			<point x="415" y="-111"/>
			<point x="354" y="-146"/>
			<point x="289" y="-146" type="curve" smooth="yes"/>
			<point x="216" y="-146"/>
			<point x="166" y="-101"/>
			<point x="166" y="-38" type="curve" smooth="yes"/>
			<point x="166" y="2"/>
			<point x="187" y="34"/>
			<point x="232" y="66" type="curve" smooth="yes"/>
			<point x="327" y="128"/>
			<point x="359" y="185"/>
			<point x="351" y="272" type="curve"/>
		</contour>
		<contour>
			<point x="233" y="427" type="curve" smooth="yes"/>
			<point x="233" y="387"/>
			<point x="266" y="355"/>
			<point x="307" y="355" type="curve" smooth="yes"/>
			<point x="348" y="355"/>
			<point x="380" y="387"/>
			<point x="380" y="427" type="curve" smooth="yes"/>
			<point x="380" y="467"/>
			<point x="348" y="499"/>
			<point x="307" y="499" type="curve" smooth="yes"/>
			<point x="266" y="499"/>
			<point x="233" y="467"/>
		</contour>
	</outline>
</glyph>
<glyph name="AE" format="2">
	<unicode hex="00C6"/>
	<advance width="1067"/>
	<outline>
		<contour>
			<point x="589" y="715" type="line"/>
			<point x="477" y="715" type="line"/>
			<point x="21" y="0" type="line"/>
			<point x="145" y="0" type="line"/>
		</contour>
		<contour>
			<point x="577" y="172" type="line"/>
			<point x="577" y="270" type="line"/>
			<point x="227" y="270" type="line"/>
			<point x="227" y="172" type="line"/>
		</contour>
		<contour>
			<point x="1022" y="0" type="line"/>
			<point x="1022" y="98" type="line"/>
			<point x="644" y="98" type="line"/>
			<point x="644" y="617" type="line"/>
			<point x="1022" y="617" type="line"/>
			<point x="1022" y="715" type="line"/>
			<point x="529" y="715" type="line"/>
			<point x="529" y="0" type="line"/>
		</contour>
		<contour>
			<point x="1003" y="314" type="line"/>
			<point x="1003" y="412" type="line"/>
			<point x="634" y="412" type="line"/>
			<point x="634" y="314" type="line"/>
		</contour>
	</outline>
</glyph>
<glyph name="Eth" format="1">
  <advance width="750"/>
  <unicode hex="00D0"/>
  <outline>
    <contour>
      <point x="76" y="0" type="line"/>
      <point x="319" y="0" type="line" smooth="yes"/>
      <point x="546" y="0"/>
      <point x="699" y="149"/>
      <point x="699" y="358" type="curve" smooth="yes"/>
      <point x="699" y="566"/>
      <point x="546" y="715"/>
      <point x="319" y="715" type="curve" smooth="yes"/>
      <point x="76" y="715" type="line"/>
    </contour>
    <contour>
      <point x="191" y="99" type="line"/>
      <point x="191" y="616" type="line"/>
      <point x="319" y="616" type="line" smooth="yes"/>
      <point x="479" y="616"/>
      <point x="579" y="513"/>
      <point x="579" y="358" type="curve" smooth="yes"/>
      <point x="579" y="202"/>
      <point x="479" y="99"/>
      <point x="319" y="99" type="curve" smooth="yes"/>
    </contour>
    <contour>
      <point x="367" y="314" type="line"/>
      <point x="367" y="412" type="line"/>
      <point x="8" y="412" type="line"/>
      <point x="8" y="314" type="line"/>
    </contour>
  </outline>
</glyph>
<glyph name="multiply" format="1">
  <advance width="660"/>
  <unicode hex="00D7"/>
  <outline>
    <contour>
      <point x="535" y="215" type="line"/>
      <point x="187" y="562" type="line"/>
      <point x="125" y="500" type="line"/>
      <point x="473" y="153" type="line"/>
    </contour>
    <contour>
      <point x="473" y="562" type="line"/>
      <point x="125" y="215" type="line"/>
      <point x="187" y="153" type="line"/>
      <point x="535" y="500" type="line"/>
    </contour>
  </outline>
</glyph>
<glyph name="Oslash" format="2">
	<unicode hex="00D8"/>
	<advance width="860"/>
	<outline>
		<contour>
			<point x="430" y="-16" type="curve" smooth="yes"/>
			<point x="649" y="-16"/>
			<point x="808" y="143"/>
			<point x="808" y="358" type="curve" smooth="yes"/>
			<point x="808" y="572"/>
			<point x="649" y="731"/>
			<point x="430" y="731" type="curve" smooth="yes"/>
			<point x="211" y="731"/>
			<point x="52" y="572"/>
			<point x="52" y="358" type="curve" smooth="yes"/>
			<point x="52" y="143"/>
			<point x="211" y="-16"/>
		</contour>
		<contour>
			<point x="430" y="86" type="curve" smooth="yes"/>
			<point x="278" y="86"/>
			<point x="172" y="200"/>
			<point x="172" y="358" type="curve" smooth="yes"/>
			<point x="172" y="515"/>
			<point x="278" y="629"/>
			<point x="430" y="629" type="curve" smooth="yes"/>
			<point x="582" y="629"/>
			<point x="688" y="515"/>
			<point x="688" y="358" type="curve" smooth="yes"/>
			<point x="688" y="200"/>
			<point x="582" y="86"/>
		</contour>
		<contour>
			<point x="109" y="-26" type="line"/>
			<point x="818" y="673" type="line"/>
			<point x="750" y="741" type="line"/>
			<point x="42" y="42" type="line"/>
		</contour>
	</outline>
</glyph>
<glyph name="Thorn" format="2">
	<unicode hex="00DE"/>
	<advance width="653"/>
	<outline>
		<contour>
			<point x="181" y="471" type="line"/>
			<point x="362" y="471" type="line" smooth="yes"/>
			<point x="443" y="471"/>
			<point x="494" y="428"/>
			<point x="494" y="357" type="curve" smooth="yes"/>
			<point x="494" y="286"/>
			<point x="443" y="243"/>
			<point x="362" y="243" type="curve" smooth="yes"/>
			<point x="181" y="243" type="line"/>
			<point x="181" y="145" type="line"/>
			<point x="362" y="145" type="line" smooth="yes"/>
			<point x="510" y="145"/>
			<point x="611" y="230"/>
			<point x="611" y="357" type="curve" smooth="yes"/>
			<point x="611" y="484"/>
			<point x="510" y="569"/>
			<point x="362" y="569" type="curve" smooth="yes"/>
			<point x="181" y="569" type="line"/>
		</contour>
		<contour>
			<point x="191" y="0" type="line"/>
			<point x="191" y="715" type="line"/>
			<point x="76" y="715" type="line"/>
			<point x="76" y="0" type="line"/>
		</contour>
	</outline>
</glyph>
<glyph name="germandbls" format="2">
	<unicode hex="00DF"/>
	<advance width="639"/>
	<outline>
		<contour>
			<point x="168" y="0" type="line"/>
			<point x="168" y="455" type="line" smooth="yes"/>
			<point x="168" y="580"/>
			<point x="228" y="639"/>
			<point x="312" y="639" type="curve" smooth="yes"/>
			<point x="385" y="639"/>
			<point x="427" y="595"/>
			<point x="427" y="534" type="curve" smooth="yes"/>
			<point x="427" y="465"/>
			<point x="376" y="419"/>
			<point x="302" y="419" type="curve" smooth="yes"/>
			<point x="280" y="419" type="line"/>
			<point x="280" y="326" type="line"/>
			<point x="325" y="326" type="line" smooth="yes"/>
			<point x="408" y="326"/>
			<point x="485" y="276"/>
			<point x="485" y="190" type="curve" smooth="yes"/>
			<point x="485" y="120"/>
			<point x="436" y="75"/>
			<point x="372" y="75" type="curve" smooth="yes"/>
			<point x="333" y="75"/>
			<point x="294" y="89"/>
			<point x="268" y="116" type="curve"/>
			<point x="217" y="38" type="line"/>
			<point x="252" y="4"/>
			<point x="320" y="-16"/>
			<point x="379" y="-16" type="curve" smooth="yes"/>
			<point x="508" y="-16"/>
			<point x="599" y="67"/>
			<point x="599" y="189" type="curve" smooth="yes"/>
			<point x="599" y="324"/>
			<point x="483" y="403"/>
			<point x="339" y="403" type="curve" smooth="yes"/>
			<point x="299" y="403" type="line"/>
			<point x="299" y="353" type="line"/>
			<point x="302" y="353" type="line" smooth="yes"/>
			<point x="450" y="353"/>
			<point x="541" y="431"/>
			<point x="541" y="536" type="curve" smooth="yes"/>
			<point x="541" y="644"/>
			<point x="449" y="731"/>
			<point x="310" y="731" type="curve" smooth="yes"/>
			<point x="165" y="731"/>
			<point x="56" y="635"/>
			<point x="56" y="466" type="curve" smooth="yes"/>
			<point x="56" y="0" type="line"/>
		</contour>
	</outline>
</glyph>
<glyph name="ae" format="2">
	<unicode hex="00E6"/>
	<advance width="967"/>
	<outline>
		<contour>
			<point x="850" y="151" type="line"/>
			<point x="808" y="100"/>
			<point x="757" y="74"/>
			<point x="693" y="74" type="curve" smooth="yes"/>
			<point x="589" y="74"/>
			<point x="516" y="142"/>
			<point x="516" y="251" type="curve" smooth="yes"/>
			<point x="516" y="357"/>
			<point x="579" y="425"/>
			<point x="669" y="425" type="curve" smooth="yes"/>
			<point x="754" y="425"/>
			<point x="812" y="358"/>
			<point x="812" y="259" type="curve" smooth="yes"/>
			<point x="812" y="248" type="line"/>
			<point x="924" y="248" type="line"/>
			<point x="924" y="254" type="line" smooth="yes"/>
			<point x="924" y="407"/>
			<point x="817" y="515"/>
			<point x="672" y="515" type="curve" smooth="yes"/>
			<point x="520" y="515"/>
			<point x="409" y="405"/>
			<point x="409" y="249" type="curve" smooth="yes"/>
			<point x="409" y="94"/>
			<point x="523" y="-16"/>
			<point x="688" y="-16" type="curve" smooth="yes"/>
			<point x="782" y="-16"/>
			<point x="862" y="20"/>
			<point x="914" y="81" type="curve"/>
		</contour>
		<contour>
			<point x="924" y="221" type="line"/>
			<point x="924" y="253" type="line"/>
			<point x="907" y="296" type="line"/>
			<point x="479" y="296" type="line"/>
			<point x="479" y="221" type="line"/>
		</contour>
		<contour>
			<point x="494" y="258" type="line"/>
			<point x="494" y="298" type="line" smooth="yes"/>
			<point x="494" y="431"/>
			<point x="405" y="515"/>
			<point x="273" y="515" type="curve" smooth="yes"/>
			<point x="184" y="515"/>
			<point x="109" y="482"/>
			<point x="55" y="428" type="curve"/>
			<point x="119" y="358" type="line"/>
			<point x="157" y="400"/>
			<point x="208" y="426"/>
			<point x="269" y="426" type="curve" smooth="yes"/>
			<point x="350" y="426"/>
			<point x="403" y="375"/>
			<point x="403" y="296" type="curve" smooth="yes"/>
			<point x="403" y="258" type="line"/>
		</contour>
		<contour>
			<point x="241" y="-16" type="curve" smooth="yes"/>
			<point x="386" y="-16"/>
			<point x="492" y="67"/>
			<point x="506" y="180" type="curve"/>
			<point x="435" y="197" type="line"/>
			<point x="427" y="122"/>
			<point x="346" y="70"/>
			<point x="261" y="70" type="curve" smooth="yes"/>
			<point x="198" y="70"/>
			<point x="153" y="101"/>
			<point x="153" y="149" type="curve" smooth="yes"/>
			<point x="153" y="201"/>
			<point x="206" y="222"/>
			<point x="282" y="222" type="curve" smooth="yes"/>
			<point x="435" y="222" type="line"/>
			<point x="435" y="297" type="line"/>
			<point x="272" y="297" type="line" smooth="yes"/>
			<point x="132" y="297"/>
			<point x="38" y="245"/>
			<point x="38" y="144" type="curve" smooth="yes"/>
			<point x="38" y="50"/>
			<point x="121" y="-16"/>
		</contour>
	</outline>
</glyph>
<glyph name="eth" format="1">
  <advance width="628"/>
  <unicode hex="00F0"/>
  <outline>
    <contour>
      <point x="511" y="238" type="line"/>
      <point x="511" y="381"/>
      <point x="445" y="488"/>
      <point x="301" y="488" type="curve" smooth="yes"/>
      <point x="157" y="488"/>
      <point x="42" y="383"/>
      <point x="42" y="238" type="curve" smooth="yes"/>
      <point x="42" y="93"/>
      <point x="157" y="-16"/>
      <point x="314" y="-16" type="curve" smooth="yes"/>
      <point x="471" y="-16"/>
      <point x="586" y="87"/>
      <point x="586" y="283" type="curve" smooth="yes"/>
      <point x="586" y="489"/>
      <point x="470" y="667"/>
      <point x="269" y="769" type="curve"/>
      <point x="181" y="731" type="line"/>
      <point x="388" y="611"/>
      <point x="484" y="463"/>
      <point x="484" y="238" type="curve"/>
    </contour>
    <contour>
      <point x="314" y="78" type="curve" smooth="yes"/>
      <point x="223" y="78"/>
      <point x="159" y="146"/>
      <point x="159" y="238" type="curve" smooth="yes"/>
      <point x="159" y="331"/>
      <point x="223" y="397"/>
      <point x="314" y="397" type="curve" smooth="yes"/>
      <point x="406" y="397"/>
      <point x="470" y="331"/>
      <point x="470" y="238" type="curve" smooth="yes"/>
      <point x="470" y="146"/>
      <point x="406" y="78"/>
    </contour>
    <contour>
      <point x="528" y="665" type="line"/>
      <point x="494" y="742" type="line"/>
      <point x="180" y="603" type="line"/>
      <point x="213" y="526" type="line"/>
    </contour>
  </outline>
</glyph>
<glyph name="divide" format="2">
	<unicode hex="00F7"/>
	<advance width="660"/>
	<outline>
		<contour>
			<point x="567" y="312" type="line"/>
			<point x="567" y="403" type="line"/>
			<point x="93" y="403" type="line"/>
			<point x="93" y="312" type="line"/>
		</contour>
		<contour>
			<point x="330" y="463" type="curve" smooth="yes"/>
			<point x="368" y="463"/>
			<point x="399" y="492"/>
			<point x="399" y="529" type="curve" smooth="yes"/>
			<point x="399" y="567"/>
			<point x="368" y="597"/>
			<point x="330" y="597" type="curve" smooth="yes"/>
			<point x="292" y="597"/>
			<point x="261" y="567"/>
			<point x="261" y="529" type="curve" smooth="yes"/>
			<point x="261" y="492"/>
			<point x="292" y="463"/>
		</contour>
		<contour>
			<point x="330" y="118" type="curve" smooth="yes"/>
			<point x="368" y="118"/>
			<point x="399" y="147"/>
			<point x="399" y="184" type="curve" smooth="yes"/>
			<point x="399" y="222"/>
			<point x="368" y="252"/>
			<point x="330" y="252" type="curve" smooth="yes"/>
			<point x="292" y="252"/>
			<point x="261" y="222"/>
			<point x="261" y="184" type="curve" smooth="yes"/>
			<point x="261" y="147"/>
			<point x="292" y="118"/>
		</contour>
	</outline>
</glyph>
<glyph name="oslash" format="1">
  <advance width="632"/>
  <unicode hex="00F8"/>
  <outline>
    <contour>
      <point x="316" y="-16" type="curve" smooth="yes"/>
      <point x="475" y="-16"/>
      <point x="588" y="95"/>
      <point x="588" y="250" type="curve" smooth="yes"/>
      <point x="588" y="404"/>
      <point x="475" y="515"/>
      <point x="316" y="515" type="curve" smooth="yes"/>
      <point x="156" y="515"/>
      <point x="44" y="404"/>
      <point x="44" y="250" type="curve" smooth="yes"/>
      <point x="44" y="95"/>
      <point x="156" y="-16"/>
    </contour>
    <contour>
      <point x="316" y="78" type="curve" smooth="yes"/>
      <point x="223" y="78"/>
      <point x="160" y="149"/>
      <point x="160" y="250" type="curve" smooth="yes"/>
      <point x="160" y="350"/>
      <point x="223" y="421"/>
      <point x="316" y="421" type="curve" smooth="yes"/>
      <point x="408" y="421"/>
      <point x="471" y="350"/>
      <point x="471" y="250" type="curve" smooth="yes"/>
      <point x="471" y="149"/>
      <point x="408" y="78"/>
    </contour>
    <contour>
      <point x="85" y="-29" type="line"/>
      <point x="601" y="474" type="line"/>
      <point x="546" y="529" type="line"/>
      <point x="30" y="25" type="line"/>
    </contour>
  </outline>
</glyph>
<glyph name="dcroat" format="1">
  <advance width="677"/>
  <unicode hex="0111"/>
  <outline>
    <contour>
      <point x="583" y="0" type="line"/>
      <point x="583" y="720" type="line"/>
      <point x="471" y="720" type="line"/>
      <point x="471" y="333" type="line"/>
      <point x="498" y="333" type="line"/>
      <point x="483" y="434"/>
      <point x="405" y="503"/>
      <point x="293" y="503" type="curve" smooth="yes"/>
      <point x="152" y="503"/>
      <point x="42" y="395"/>
      <point x="42" y="244" type="curve" smooth="yes"/>
      <point x="42" y="91"/>
      <point x="152" y="-16"/>
      <point x="295" y="-16" type="curve" smooth="yes"/>
      <point x="427" y="-16"/>
      <point x="511" y="76"/>
      <point x="502" y="193" type="curve"/>
      <point x="479" y="211" type="line"/>
      <point x="470" y="133"/>
      <point x="403" y="78"/>
      <point x="319" y="78" type="curve" smooth="yes"/>
      <point x="224" y="78"/>
      <point x="159" y="147"/>
      <point x="159" y="244" type="curve" smooth="yes"/>
      <point x="159" y="338"/>
      <point x="222" y="409"/>
      <point x="314" y="409" type="curve" smooth="yes"/>
      <point x="406" y="409"/>
      <point x="471" y="338"/>
      <point x="471" y="230" type="curve" smooth="yes"/>
      <point x="471" y="129" type="line"/>
      <point x="472" y="124" type="line"/>
      <point x="472" y="0" type="line"/>
    </contour>
    <contour>
      <point x="664" y="559" type="line"/>
      <point x="664" y="643" type="line"/>
      <point x="314" y="643" type="line"/>
      <point x="314" y="559" type="line"/>
    </contour>
  </outline>
</glyph>
<glyph name="Hbar" format="2">
	<unicode hex="0126"/>
	<advance width="757"/>
	<outline>
		<contour>
			<point x="562" y="0" type="line"/>
			<point x="677" y="0" type="line"/>
			<point x="677" y="715" type="line"/>
			<point x="562" y="715" type="line"/>
		</contour>
		<contour>
			<point x="195" y="0" type="line"/>
			<point x="195" y="715" type="line"/>
			<point x="80" y="715" type="line"/>
			<point x="80" y="0" type="line"/>
		</contour>
		<contour>
			<point x="185" y="319" type="line"/>
			<point x="572" y="319" type="line"/>
			<point x="572" y="418" type="line"/>
			<point x="185" y="418" type="line"/>
		</contour>
		<contour>
			<point x="742" y="521" type="line"/>
			<point x="742" y="615" type="line"/>
			<point x="15" y="615" type="line"/>
			<point x="15" y="521" type="line"/>
		</contour>
	</outline>
</glyph>
<glyph name="hbar" format="2">
	<unicode hex="0127"/>
	<advance width="627"/>
	<outline>
		<contour>
			<point x="363" y="559" type="line"/>
			<point x="363" y="643" type="line"/>
			<point x="13" y="643" type="line"/>
			<point x="13" y="559" type="line"/>
		</contour>
		<contour>
			<point x="571" y="0" type="line"/>
			<point x="571" y="288" type="line" smooth="yes"/>
			<point x="571" y="427"/>
			<point x="497" y="503"/>
			<point x="377" y="503" type="curve" smooth="yes"/>
			<point x="296" y="503"/>
			<point x="210" y="464"/>
			<point x="191" y="333" type="curve"/>
			<point x="206" y="333" type="line"/>
			<point x="206" y="720" type="line"/>
			<point x="94" y="720" type="line"/>
			<point x="94" y="0" type="line"/>
			<point x="206" y="0" type="line"/>
			<point x="206" y="224" type="line" smooth="yes"/>
			<point x="206" y="354"/>
			<point x="274" y="409"/>
			<point x="348" y="409" type="curve" smooth="yes"/>
			<point x="415" y="409"/>
			<point x="459" y="364"/>
			<point x="459" y="276" type="curve" smooth="yes"/>
			<point x="459" y="0" type="line"/>
		</contour>
	</outline>
</glyph>
<glyph name="dotlessi" format="1">
  <advance width="237"/>
  <unicode hex="0131"/>
  <outline>
    <contour>
      <point x="174" y="0" type="line"/>
      <point x="174" y="499" type="line"/>
      <point x="62" y="499" type="line"/>
      <point x="62" y="0" type="line"/>
    </contour>
    <contour>
      <point x="118" y="544" type="move" name="top.LC"/>
    </contour>
  </outline>
</glyph>
<glyph name="IJ" format="2">
	<unicode hex="0132"/>
	<advance width="698"/>
	<outline>
		<contour>
			<point x="184" y="337" type="line"/>
			<point x="184" y="715" type="line"/>
			<point x="69" y="715" type="line"/>
			<point x="69" y="337" type="line"/>
		</contour>
		<contour>
			<point x="629" y="715" type="line"/>
			<point x="514" y="715" type="line"/>
			<point x="514" y="276" type="line" smooth="yes"/>
			<point x="514" y="152"/>
			<point x="456" y="86"/>
			<point x="348" y="86" type="curve" smooth="yes"/>
			<point x="252" y="86"/>
			<point x="195" y="143"/>
			<point x="184" y="250" type="curve"/>
			<point x="70" y="236" type="line"/>
			<point x="83" y="78"/>
			<point x="186" y="-16"/>
			<point x="348" y="-16" type="curve" smooth="yes"/>
			<point x="529" y="-16"/>
			<point x="629" y="89"/>
			<point x="629" y="276" type="curve" smooth="yes"/>
		</contour>
	</outline>
	<anchor name="top.UC_1" x="126" y="750"/>
	<anchor name="top.UC_2" x="571" y="750"/>
</glyph>
<glyph name="kgreenlandic" format="1">
  <advance width="585"/>
  <unicode hex="0138"/>
  <outline>
    <contour>
      <point x="174" y="0" type="line"/>
      <point x="174" y="499" type="line"/>
      <point x="62" y="499" type="line"/>
      <point x="62" y="0" type="line"/>
    </contour>
    <contour>
      <point x="573" y="0" type="line"/>
      <point x="279" y="268" type="line"/>
      <point x="279" y="249" type="line"/>
      <point x="544" y="499" type="line"/>
      <point x="405" y="499" type="line"/>
      <point x="156" y="259" type="line"/>
      <point x="146" y="259" type="line"/>
      <point x="425" y="0" type="line"/>
    </contour>
  </outline>
</glyph>
<glyph name="Lslash" format="1">
  <advance width="612"/>
  <unicode hex="0141"/>
  <outline>
    <contour>
      <point x="578" y="0" type="line"/>
      <point x="578" y="100" type="line"/>
      <point x="230" y="100" type="line"/>
      <point x="230" y="715" type="line"/>
      <point x="115" y="715" type="line"/>
      <point x="115" y="0" type="line"/>
    </contour>
    <contour>
      <point x="437" y="429" type="line"/>
      <point x="387" y="510" type="line"/>
      <point x="12" y="274" type="line"/>
      <point x="62" y="193" type="line"/>
    </contour>
  </outline>
</glyph>
<glyph name="lslash" format="2">
	<unicode hex="0142"/>
	<advance width="355"/>
	<outline>
		<contour>
			<point x="223" y="0" type="line"/>
			<point x="223" y="720" type="line"/>
			<point x="111" y="720" type="line"/>
			<point x="111" y="0" type="line"/>
		</contour>
		<contour>
			<point x="350" y="434" type="line"/>
			<point x="309" y="504" type="line"/>
			<point x="5" y="314" type="line"/>
			<point x="45" y="244" type="line"/>
		</contour>
	</outline>
</glyph>
<glyph name="Eng" format="2">
	<unicode hex="014A"/>
	<advance width="751"/>
	<outline>
		<contour>
			<point x="229" y="-147" type="line"/>
			<point x="271" y="-183"/>
			<point x="338" y="-204"/>
			<point x="415" y="-204" type="curve" smooth="yes"/>
			<point x="583" y="-204"/>
			<point x="676" y="-109"/>
			<point x="676" y="78" type="curve" smooth="yes"/>
			<point x="676" y="715" type="line"/>
			<point x="564" y="715" type="line"/>
			<point x="564" y="78" type="line" smooth="yes"/>
			<point x="564" y="-43"/>
			<point x="512" y="-102"/>
			<point x="415" y="-102" type="curve" smooth="yes"/>
			<point x="369" y="-102"/>
			<point x="324" y="-88"/>
			<point x="290" y="-57" type="curve"/>
		</contour>
		<contour>
			<point x="187" y="0" type="line"/>
			<point x="187" y="602" type="line"/>
			<point x="147" y="602" type="line"/>
			<point x="566" y="0" type="line"/>
			<point x="616" y="113" type="line"/>
			<point x="197" y="715" type="line"/>
			<point x="75" y="715" type="line"/>
			<point x="75" y="0" type="line"/>
		</contour>
	</outline>
</glyph>
<glyph name="OE" format="1">
  <advance width="1225"/>
  <unicode hex="0152"/>
  <outline>
    <contour>
      <point x="424" y="-16" type="curve" smooth="yes"/>
      <point x="629" y="-16"/>
      <point x="776" y="143"/>
      <point x="776" y="358" type="curve" smooth="yes"/>
      <point x="776" y="572"/>
      <point x="629" y="731"/>
      <point x="424" y="731" type="curve" smooth="yes"/>
      <point x="211" y="731"/>
      <point x="52" y="572"/>
      <point x="52" y="358" type="curve" smooth="yes"/>
      <point x="52" y="143"/>
      <point x="211" y="-16"/>
    </contour>
    <contour>
      <point x="430" y="86" type="curve" smooth="yes"/>
      <point x="278" y="86"/>
      <point x="172" y="200"/>
      <point x="172" y="358" type="curve" smooth="yes"/>
      <point x="172" y="515"/>
      <point x="278" y="629"/>
      <point x="430" y="629" type="curve" smooth="yes"/>
      <point x="582" y="629"/>
      <point x="688" y="515"/>
      <point x="688" y="358" type="curve" smooth="yes"/>
      <point x="688" y="200"/>
      <point x="582" y="86"/>
    </contour>
    <contour>
      <point x="1180" y="0" type="line"/>
      <point x="1180" y="98" type="line"/>
      <point x="803" y="98" type="line"/>
      <point x="803" y="617" type="line"/>
      <point x="1180" y="617" type="line"/>
      <point x="1180" y="715" type="line"/>
      <point x="688" y="715" type="line"/>
      <point x="688" y="0" type="line"/>
    </contour>
    <contour>
      <point x="1161" y="314" type="line"/>
      <point x="1161" y="412" type="line"/>
      <point x="793" y="412" type="line"/>
      <point x="793" y="314" type="line"/>
    </contour>
  </outline>
</glyph>
<glyph name="oe" format="2">
	<unicode hex="0153"/>
	<advance width="1031"/>
	<outline>
		<contour>
			<point x="309" y="-16" type="curve" smooth="yes"/>
			<point x="460" y="-16"/>
			<point x="564" y="95"/>
			<point x="564" y="250" type="curve" smooth="yes"/>
			<point x="564" y="404"/>
			<point x="460" y="515"/>
			<point x="309" y="515" type="curve" smooth="yes"/>
			<point x="155" y="515"/>
			<point x="42" y="404"/>
			<point x="42" y="250" type="curve" smooth="yes"/>
			<point x="42" y="95"/>
			<point x="155" y="-16"/>
		</contour>
		<contour>
			<point x="314" y="78" type="curve" smooth="yes"/>
			<point x="222" y="78"/>
			<point x="159" y="149"/>
			<point x="159" y="250" type="curve" smooth="yes"/>
			<point x="159" y="350"/>
			<point x="222" y="421"/>
			<point x="314" y="421" type="curve" smooth="yes"/>
			<point x="407" y="421"/>
			<point x="470" y="350"/>
			<point x="470" y="250" type="curve" smooth="yes"/>
			<point x="470" y="149"/>
			<point x="407" y="78"/>
		</contour>
		<contour>
			<point x="914" y="151" type="line"/>
			<point x="872" y="100"/>
			<point x="821" y="74"/>
			<point x="757" y="74" type="curve" smooth="yes"/>
			<point x="653" y="74"/>
			<point x="580" y="142"/>
			<point x="580" y="251" type="curve" smooth="yes"/>
			<point x="580" y="357"/>
			<point x="643" y="425"/>
			<point x="733" y="425" type="curve" smooth="yes"/>
			<point x="818" y="425"/>
			<point x="876" y="358"/>
			<point x="876" y="259" type="curve" smooth="yes"/>
			<point x="876" y="248" type="line"/>
			<point x="988" y="248" type="line"/>
			<point x="988" y="254" type="line" smooth="yes"/>
			<point x="988" y="407"/>
			<point x="881" y="515"/>
			<point x="736" y="515" type="curve" smooth="yes"/>
			<point x="588" y="515"/>
			<point x="480" y="405"/>
			<point x="480" y="249" type="curve" smooth="yes"/>
			<point x="480" y="94"/>
			<point x="592" y="-16"/>
			<point x="752" y="-16" type="curve" smooth="yes"/>
			<point x="846" y="-16"/>
			<point x="926" y="20"/>
			<point x="978" y="81" type="curve"/>
		</contour>
		<contour>
			<point x="988" y="214" type="line"/>
			<point x="988" y="253" type="line"/>
			<point x="971" y="290" type="line"/>
			<point x="543" y="290" type="line"/>
			<point x="543" y="214" type="line"/>
		</contour>
	</outline>
</glyph>
<glyph name="Tbar" format="1">
  <advance width="640"/>
  <unicode hex="0166"/>
  <outline>
    <contour>
      <point x="377" y="0" type="line"/>
      <point x="377" y="626" type="line"/>
      <point x="262" y="626" type="line"/>
      <point x="262" y="0" type="line"/>
    </contour>
    <contour>
      <point x="606" y="616" type="line"/>
      <point x="606" y="715" type="line"/>
      <point x="34" y="715" type="line"/>
      <point x="34" y="616" type="line"/>
    </contour>
    <contour>
      <point x="536" y="314" type="line"/>
      <point x="536" y="412" type="line"/>
      <point x="104" y="412" type="line"/>
      <point x="104" y="314" type="line"/>
    </contour>
  </outline>
</glyph>
<glyph name="tbar" format="1">
  <advance width="410"/>
  <unicode hex="0167"/>
  <outline>
    <contour>
      <point x="375" y="0" type="line"/>
      <point x="375" y="93" type="line"/>
      <point x="287" y="93" type="line" smooth="yes"/>
      <point x="253" y="93"/>
      <point x="237" y="109"/>
      <point x="237" y="144" type="curve" smooth="yes"/>
      <point x="237" y="636" type="line"/>
      <point x="125" y="636" type="line"/>
      <point x="125" y="127" type="line"/>
      <point x="125" y="43"/>
      <point x="168" y="0"/>
      <point x="252" y="0" type="curve" smooth="yes"/>
    </contour>
    <contour>
      <point x="368" y="408" type="line"/>
      <point x="368" y="499" type="line"/>
      <point x="32" y="499" type="line"/>
      <point x="32" y="408" type="line"/>
    </contour>
    <contour>
      <point x="368" y="229" type="line"/>
      <point x="368" y="313" type="line"/>
      <point x="32" y="313" type="line"/>
      <point x="32" y="229" type="line"/>
    </contour>
  </outline>
</glyph>
<glyph name="Ohorn" format="2">
	<unicode hex="01A0"/>
	<advance width="872"/>
	<outline>
		<contour>
			<point x="430" y="-16" type="curve" smooth="yes"/>
			<point x="649" y="-16"/>
			<point x="808" y="143"/>
			<point x="808" y="358" type="curve" smooth="yes"/>
			<point x="808" y="485"/>
			<point x="752" y="593"/>
			<point x="660" y="659" type="curve"/>
			<point x="650" y="645" type="line"/>
			<point x="662" y="642"/>
			<point x="680" y="640"/>
			<point x="694" y="640" type="curve" smooth="yes"/>
			<point x="798" y="640"/>
			<point x="856" y="703"/>
			<point x="856" y="817" type="curve" smooth="yes"/>
			<point x="856" y="873" type="line"/>
			<point x="755" y="873" type="line"/>
			<point x="755" y="808" type="line" smooth="yes"/>
			<point x="755" y="731"/>
			<point x="717" y="714"/>
			<point x="644" y="714" type="curve" smooth="yes"/>
			<point x="599" y="714"/>
			<point x="550" y="716"/>
			<point x="518" y="722" type="curve" smooth="yes"/>
			<point x="484" y="728"/>
			<point x="458" y="731"/>
			<point x="430" y="731" type="curve" smooth="yes"/>
			<point x="211" y="731"/>
			<point x="52" y="572"/>
			<point x="52" y="358" type="curve" smooth="yes"/>
			<point x="52" y="143"/>
			<point x="211" y="-16"/>
		</contour>
		<contour>
			<point x="430" y="86" type="curve" smooth="yes"/>
			<point x="278" y="86"/>
			<point x="172" y="200"/>
			<point x="172" y="358" type="curve" smooth="yes"/>
			<point x="172" y="515"/>
			<point x="278" y="629"/>
			<point x="430" y="629" type="curve" smooth="yes"/>
			<point x="582" y="629"/>
			<point x="688" y="515"/>
			<point x="688" y="358" type="curve" smooth="yes"/>
			<point x="688" y="200"/>
			<point x="582" y="86"/>
		</contour>
	</outline>
	<anchor name="bottom.UC" x="430" y="-50"/>
	<anchor name="top.UC" x="430" y="750"/>
</glyph>
<glyph name="ohorn" format="1">
  <advance width="646"/>
  <unicode hex="01A1"/>
  <outline>
    <contour>
      <point x="314" y="-16" type="curve" smooth="yes"/>
      <point x="474" y="-16"/>
      <point x="586" y="95"/>
      <point x="586" y="250" type="curve" smooth="yes"/>
      <point x="586" y="333"/>
      <point x="553" y="403"/>
      <point x="500" y="450" type="curve"/>
      <point x="484" y="425" type="line"/>
      <point x="586" y="433"/>
      <point x="634" y="481"/>
      <point x="634" y="579" type="curve" smooth="yes"/>
      <point x="634" y="618" type="line"/>
      <point x="539" y="618" type="line"/>
      <point x="539" y="574" type="line" smooth="yes"/>
      <point x="539" y="520"/>
      <point x="512" y="499"/>
      <point x="454" y="499" type="curve" smooth="yes"/>
      <point x="435" y="499"/>
      <point x="414" y="501"/>
      <point x="386" y="507" type="curve" smooth="yes"/>
      <point x="364" y="512"/>
      <point x="339" y="515"/>
      <point x="314" y="515" type="curve" smooth="yes"/>
      <point x="155" y="515"/>
      <point x="42" y="404"/>
      <point x="42" y="250" type="curve" smooth="yes"/>
      <point x="42" y="95"/>
      <point x="155" y="-16"/>
    </contour>
    <contour>
      <point x="314" y="78" type="curve" smooth="yes"/>
      <point x="222" y="78"/>
      <point x="159" y="149"/>
      <point x="159" y="250" type="curve" smooth="yes"/>
      <point x="159" y="350"/>
      <point x="222" y="421"/>
      <point x="314" y="421" type="curve" smooth="yes"/>
      <point x="407" y="421"/>
      <point x="470" y="350"/>
      <point x="470" y="250" type="curve" smooth="yes"/>
      <point x="470" y="149"/>
      <point x="407" y="78"/>
    </contour>
    <contour>
      <point x="314" y="-50" type="move" name="bottom.LC"/>
    </contour>
    <contour>
      <point x="314" y="544" type="move" name="top.LC"/>
    </contour>
  </outline>
</glyph>
<glyph name="Uhorn" format="2">
	<unicode hex="01AF"/>
	<advance width="781"/>
	<outline>
		<contour>
			<point x="367" y="-16" type="curve" smooth="yes"/>
			<point x="554" y="-16"/>
			<point x="666" y="94"/>
			<point x="666" y="282" type="curve" smooth="yes"/>
			<point x="666" y="683" type="line"/>
			<point x="628" y="638" type="line"/>
			<point x="763" y="634"/>
			<point x="833" y="694"/>
			<point x="833" y="817" type="curve" smooth="yes"/>
			<point x="833" y="873" type="line"/>
			<point x="733" y="873" type="line"/>
			<point x="733" y="808" type="line" smooth="yes"/>
			<point x="733" y="745"/>
			<point x="702" y="715"/>
			<point x="639" y="715" type="curve" smooth="yes"/>
			<point x="552" y="715" type="line"/>
			<point x="552" y="282" type="line" smooth="yes"/>
			<point x="552" y="159"/>
			<point x="484" y="86"/>
			<point x="367" y="86" type="curve" smooth="yes"/>
			<point x="251" y="86"/>
			<point x="183" y="159"/>
			<point x="183" y="282" type="curve" smooth="yes"/>
			<point x="183" y="715" type="line"/>
			<point x="68" y="715" type="line"/>
			<point x="68" y="282" type="line" smooth="yes"/>
			<point x="68" y="94"/>
			<point x="181" y="-16"/>
		</contour>
	</outline>
	<anchor name="bottom.UC" x="368" y="-50"/>
	<anchor name="ogonek.UC.round" x="408" y="-30"/>
	<anchor name="top.UC" x="367" y="750"/>
	<anchor name="topright.UC" x="564" y="750"/>
</glyph>
<glyph name="uhorn" format="2">
	<unicode hex="01B0"/>
	<advance width="656"/>
	<outline>
		<contour>
			<point x="426" y="211" type="line"/>
			<point x="418" y="132"/>
			<point x="354" y="78"/>
			<point x="280" y="78" type="curve" smooth="yes"/>
			<point x="210" y="78"/>
			<point x="168" y="120"/>
			<point x="168" y="201" type="curve" smooth="yes"/>
			<point x="168" y="499" type="line"/>
			<point x="56" y="499" type="line"/>
			<point x="56" y="190" type="line" smooth="yes"/>
			<point x="56" y="56"/>
			<point x="132" y="-16"/>
			<point x="250" y="-16" type="curve" smooth="yes"/>
			<point x="371" y="-16"/>
			<point x="454" y="69"/>
			<point x="449" y="192" type="curve"/>
		</contour>
		<contour>
			<point x="582" y="618" type="line"/>
			<point x="582" y="574" type="line" smooth="yes"/>
			<point x="582" y="523"/>
			<point x="558" y="499"/>
			<point x="501" y="499" type="curve" smooth="yes"/>
			<point x="418" y="499" type="line"/>
			<point x="418" y="124" type="line"/>
			<point x="419" y="96" type="line"/>
			<point x="419" y="0" type="line"/>
			<point x="530" y="0" type="line"/>
			<point x="530" y="470" type="line"/>
			<point x="490" y="423" type="line"/>
			<point x="619" y="423"/>
			<point x="677" y="472"/>
			<point x="677" y="579" type="curve" smooth="yes"/>
			<point x="677" y="618" type="line"/>
		</contour>
	</outline>
	<anchor name="bottom.LC" x="293" y="-50"/>
	<anchor name="top.LC" x="293" y="544"/>
</glyph>
<glyph name="dotlessj" format="2">
	<unicode hex="0237"/>
	<advance width="237"/>
	<outline>
		<contour>
			<point x="-30" y="-194" type="line"/>
			<point x="41" y="-194" type="line" smooth="yes"/>
			<point x="131" y="-194"/>
			<point x="174" y="-151"/>
			<point x="174" y="-61" type="curve" smooth="yes"/>
			<point x="174" y="499" type="line"/>
			<point x="62" y="499" type="line"/>
			<point x="62" y="-44" type="line" smooth="yes"/>
			<point x="62" y="-85"/>
			<point x="46" y="-101"/>
			<point x="6" y="-101" type="curve" smooth="yes"/>
			<point x="-30" y="-101" type="line"/>
		</contour>
	</outline>
	<anchor name="top.LC" x="119" y="544"/>
</glyph>
<glyph name="gravecomb" format="1">
  <advance width="0"/>
  <unicode hex="0300"/>
  <outline>
    <contour>
      <point x="-33" y="587" type="line"/>
      <point x="62" y="587" type="line"/>
      <point x="-52" y="761" type="line"/>
      <point x="-176" y="761" type="line"/>
    </contour>
    <contour>
      <point x="0" y="544" type="move" name="_top.LC"/>
    </contour>
  </outline>
</glyph>
<glyph name="acutecomb" format="1">
  <advance width="0"/>
  <unicode hex="0301"/>
  <outline>
    <contour>
      <point x="176" y="761" type="line"/>
      <point x="52" y="761" type="line"/>
      <point x="-62" y="587" type="line"/>
      <point x="33" y="587" type="line"/>
    </contour>
    <contour>
      <point x="0" y="544" type="move" name="_top.LC"/>
    </contour>
  </outline>
</glyph>
<glyph name="circumflexcomb" format="1">
  <advance width="0"/>
  <unicode hex="0302"/>
  <outline>
    <contour>
      <point x="181" y="587" type="line"/>
      <point x="57" y="761" type="line"/>
      <point x="-57" y="761" type="line"/>
      <point x="-181" y="587" type="line"/>
      <point x="-82" y="587" type="line"/>
      <point x="43" y="745" type="line"/>
      <point x="-46" y="745" type="line"/>
      <point x="79" y="587" type="line"/>
    </contour>
    <contour>
      <point x="0" y="544" type="move" name="_top.LC"/>
    </contour>
    <contour>
      <point x="184" y="664" type="move" name="top.LC"/>
    </contour>
  </outline>
</glyph>
<glyph name="tildecomb" format="1">
  <advance width="0"/>
  <unicode hex="0303"/>
  <outline>
    <contour>
      <point x="107" y="732" type="line"/>
      <point x="101" y="690"/>
      <point x="86" y="670"/>
      <point x="68" y="670" type="curve" smooth="yes"/>
      <point x="54" y="670"/>
      <point x="41" y="678"/>
      <point x="18" y="695" type="curve" smooth="yes"/>
      <point x="-9" y="715"/>
      <point x="-40" y="731"/>
      <point x="-74" y="731" type="curve" smooth="yes"/>
      <point x="-124" y="731"/>
      <point x="-167" y="696"/>
      <point x="-181" y="620" type="curve"/>
      <point x="-108" y="589" type="line"/>
      <point x="-102" y="632"/>
      <point x="-87" y="652"/>
      <point x="-68" y="652" type="curve" smooth="yes"/>
      <point x="-55" y="652"/>
      <point x="-41" y="643"/>
      <point x="-19" y="626" type="curve" smooth="yes"/>
      <point x="9" y="607"/>
      <point x="39" y="590"/>
      <point x="74" y="590" type="curve" smooth="yes"/>
      <point x="123" y="590"/>
      <point x="166" y="626"/>
      <point x="180" y="701" type="curve"/>
    </contour>
    <contour>
      <point x="0" y="544" type="move" name="_top.LC"/>
    </contour>
  </outline>
</glyph>
<glyph name="macroncomb" format="2">
	<unicode hex="0304"/>
	<outline>
		<contour>
			<point x="147" y="610" type="line"/>
			<point x="147" y="691" type="line"/>
			<point x="-147" y="691" type="line"/>
			<point x="-147" y="610" type="line"/>
		</contour>
	</outline>
	<anchor name="_top.LC" x="0" y="544"/>
</glyph>
<glyph name="brevecomb" format="1">
  <advance width="0"/>
  <unicode hex="0306"/>
  <outline>
    <contour>
      <point x="0" y="584" type="curve" smooth="yes"/>
      <point x="85" y="584"/>
      <point x="155" y="644"/>
      <point x="164" y="742" type="curve"/>
      <point x="78" y="742" type="line"/>
      <point x="70" y="687"/>
      <point x="39" y="661"/>
      <point x="0" y="661" type="curve" smooth="yes"/>
      <point x="-39" y="661"/>
      <point x="-70" y="687"/>
      <point x="-78" y="742" type="curve"/>
      <point x="-164" y="742" type="line"/>
      <point x="-155" y="644"/>
      <point x="-85" y="584"/>
    </contour>
    <contour>
      <point x="0" y="544" type="move" name="_top.LC"/>
    </contour>
    <contour>
      <point x="0" y="710" type="move" name="top.LC"/>
    </contour>
  </outline>
</glyph>
<glyph name="dotaccentcomb" format="2">
	<unicode hex="0307"/>
	<outline>
		<contour>
			<point x="0" y="604" type="curve" smooth="yes"/>
			<point x="39" y="604"/>
			<point x="69" y="633"/>
			<point x="69" y="671" type="curve" smooth="yes"/>
			<point x="69" y="709"/>
			<point x="39" y="739"/>
			<point x="0" y="739" type="curve" smooth="yes"/>
			<point x="-39" y="739"/>
			<point x="-69" y="709"/>
			<point x="-69" y="671" type="curve" smooth="yes"/>
			<point x="-69" y="633"/>
			<point x="-39" y="604"/>
		</contour>
	</outline>
	<anchor name="_top.LC" x="0" y="544"/>
</glyph>
<glyph name="dieresiscomb" format="1">
  <advance width="0"/>
  <unicode hex="0308"/>
  <outline>
    <contour>
      <point x="108" y="604" type="curve" smooth="yes"/>
      <point x="147" y="604"/>
      <point x="177" y="633"/>
      <point x="177" y="671" type="curve" smooth="yes"/>
      <point x="177" y="709"/>
      <point x="147" y="739"/>
      <point x="108" y="739" type="curve" smooth="yes"/>
      <point x="69" y="739"/>
      <point x="39" y="709"/>
      <point x="39" y="671" type="curve" smooth="yes"/>
      <point x="39" y="633"/>
      <point x="69" y="604"/>
    </contour>
    <contour>
      <point x="-108" y="604" type="curve" smooth="yes"/>
      <point x="-69" y="604"/>
      <point x="-39" y="633"/>
      <point x="-39" y="671" type="curve" smooth="yes"/>
      <point x="-39" y="709"/>
      <point x="-69" y="739"/>
      <point x="-108" y="739" type="curve" smooth="yes"/>
      <point x="-147" y="739"/>
      <point x="-177" y="709"/>
      <point x="-177" y="671" type="curve" smooth="yes"/>
      <point x="-177" y="633"/>
      <point x="-147" y="604"/>
    </contour>
    <contour>
      <point x="0" y="544" type="move" name="_top.LC"/>
    </contour>
  </outline>
</glyph>
<glyph name="hookabovecomb" format="2">
	<unicode hex="0309"/>
	<outline>
		<contour>
			<point x="-8" y="560" type="line"/>
			<point x="66" y="587"/>
			<point x="106" y="630"/>
			<point x="106" y="680" type="curve" smooth="yes"/>
			<point x="106" y="735"/>
			<point x="59" y="776"/>
			<point x="-4" y="776" type="curve" smooth="yes"/>
			<point x="-44" y="776"/>
			<point x="-79" y="762"/>
			<point x="-110" y="734" type="curve"/>
			<point x="-70" y="685" type="line"/>
			<point x="-52" y="700"/>
			<point x="-34" y="706"/>
			<point x="-16" y="706" type="curve" smooth="yes"/>
			<point x="11" y="706"/>
			<point x="26" y="694"/>
			<point x="26" y="673" type="curve" smooth="yes"/>
			<point x="26" y="651"/>
			<point x="6" y="632"/>
			<point x="-36" y="613" type="curve"/>
		</contour>
	</outline>
	<anchor name="_top.LC" x="0" y="544"/>
</glyph>
<glyph name="ringcomb" format="2">
	<unicode hex="030A"/>
	<outline>
		<contour>
			<point x="118" y="677" type="curve" smooth="yes"/>
			<point x="118" y="742"/>
			<point x="66" y="793"/>
			<point x="0" y="793" type="curve" smooth="yes"/>
			<point x="-66" y="793"/>
			<point x="-118" y="742"/>
			<point x="-118" y="677" type="curve" smooth="yes"/>
			<point x="-118" y="612"/>
			<point x="-66" y="561"/>
			<point x="0" y="561" type="curve" smooth="yes"/>
			<point x="66" y="561"/>
			<point x="118" y="612"/>
		</contour>
		<contour>
			<point x="52" y="677" type="curve" smooth="yes"/>
			<point x="52" y="646"/>
			<point x="28" y="622"/>
			<point x="0" y="622" type="curve" smooth="yes"/>
			<point x="-28" y="622"/>
			<point x="-52" y="646"/>
			<point x="-52" y="677" type="curve" smooth="yes"/>
			<point x="-52" y="706"/>
			<point x="-28" y="730"/>
			<point x="0" y="730" type="curve" smooth="yes"/>
			<point x="28" y="730"/>
			<point x="52" y="706"/>
		</contour>
	</outline>
	<anchor name="_top.LC" x="0" y="544"/>
</glyph>
<glyph name="hungarumlautcomb" format="1">
  <advance width="0"/>
  <unicode hex="030B"/>
  <outline>
    <contour>
      <point x="101" y="761" type="line"/>
      <point x="-23" y="761" type="line"/>
      <point x="-157" y="587" type="line"/>
      <point x="-58" y="587" type="line"/>
    </contour>
    <contour>
      <point x="297" y="761" type="line"/>
      <point x="173" y="761" type="line"/>
      <point x="27" y="587" type="line"/>
      <point x="126" y="587" type="line"/>
    </contour>
    <contour>
      <point x="0" y="544" type="move" name="_top.LC"/>
    </contour>
  </outline>
</glyph>
<glyph name="caroncomb" format="2">
	<unicode hex="030C"/>
	<outline>
		<contour>
			<point x="-181" y="761" type="line"/>
			<point x="-57" y="587" type="line"/>
			<point x="57" y="587" type="line"/>
			<point x="181" y="761" type="line"/>
			<point x="82" y="761" type="line"/>
			<point x="-43" y="603" type="line"/>
			<point x="46" y="603" type="line"/>
			<point x="-79" y="761" type="line"/>
		</contour>
	</outline>
	<anchor name="_top.LC" x="0" y="544"/>
</glyph>
<glyph name="commaturnedabovecomb" format="2">
	<unicode hex="0312"/>
	<outline>
		<contour>
			<point x="2" y="777" type="line"/>
			<point x="-30" y="740"/>
			<point x="-59" y="683"/>
			<point x="-59" y="641" type="curve" smooth="yes"/>
			<point x="-59" y="602"/>
			<point x="-34" y="575"/>
			<point x="2" y="575" type="curve" smooth="yes"/>
			<point x="34" y="575"/>
			<point x="59" y="600"/>
			<point x="59" y="631" type="curve" smooth="yes"/>
			<point x="59" y="662"/>
			<point x="31" y="687"/>
			<point x="-3" y="687" type="curve"/>
			<point x="16" y="666" type="line"/>
			<point x="14" y="695"/>
			<point x="34" y="741"/>
			<point x="63" y="777" type="curve"/>
		</contour>
	</outline>
	<anchor name="_top.LC" x="0" y="544"/>
</glyph>
<glyph name="commaaboverightcomb" format="2">
	<unicode hex="0315"/>
	<outline>
		<contour>
			<point x="0" y="502" type="line"/>
			<point x="36" y="544"/>
			<point x="69" y="611"/>
			<point x="69" y="658" type="curve" smooth="yes"/>
			<point x="69" y="701"/>
			<point x="42" y="731"/>
			<point x="3" y="731" type="curve" smooth="yes"/>
			<point x="-31" y="731"/>
			<point x="-58" y="704"/>
			<point x="-58" y="669" type="curve" smooth="yes"/>
			<point x="-58" y="635"/>
			<point x="-30" y="607"/>
			<point x="5" y="607" type="curve"/>
			<point x="-9" y="627" type="line"/>
			<point x="-7" y="595"/>
			<point x="-28" y="542"/>
			<point x="-61" y="502" type="curve"/>
		</contour>
	</outline>
	<anchor name="_top_right" x="0" y="540"/>
</glyph>
<glyph name="horncomb" format="2">
	<unicode hex="031B"/>
	<outline>
		<contour>
			<point x="0" y="423" type="line"/>
			<point x="44" y="423" type="line" smooth="yes"/>
			<point x="169" y="423"/>
			<point x="227" y="473"/>
			<point x="227" y="579" type="curve" smooth="yes"/>
			<point x="227" y="618" type="line"/>
			<point x="132" y="618" type="line"/>
			<point x="132" y="574" type="line" smooth="yes"/>
			<point x="132" y="523"/>
			<point x="108" y="499"/>
			<point x="50" y="499" type="curve" smooth="yes"/>
			<point x="0" y="499" type="line"/>
		</contour>
	</outline>
	<anchor name="_topright.LC" x="0" y="544"/>
</glyph>
<glyph name="dotbelowcomb" format="2">
	<unicode hex="0323"/>
	<outline>
		<contour>
			<point x="0" y="-245" type="curve" smooth="yes"/>
			<point x="39" y="-245"/>
			<point x="69" y="-215"/>
			<point x="69" y="-178" type="curve" smooth="yes"/>
			<point x="69" y="-139"/>
			<point x="39" y="-110"/>
			<point x="0" y="-110" type="curve" smooth="yes"/>
			<point x="-39" y="-110"/>
			<point x="-69" y="-139"/>
			<point x="-69" y="-178" type="curve" smooth="yes"/>
			<point x="-69" y="-215"/>
			<point x="-39" y="-245"/>
		</contour>
	</outline>
	<anchor name="_bottom.LC" x="0" y="-50"/>
</glyph>
<glyph name="commabelowcomb" format="1">
  <advance width="0"/>
  <unicode hex="0326"/>
  <outline>
    <contour>
      <point x="-5" y="-284" type="line"/>
      <point x="27" y="-247"/>
      <point x="56" y="-190"/>
      <point x="56" y="-148" type="curve" smooth="yes"/>
      <point x="56" y="-109"/>
      <point x="31" y="-82"/>
      <point x="-5" y="-82" type="curve" smooth="yes"/>
      <point x="-37" y="-82"/>
      <point x="-61" y="-107"/>
      <point x="-61" y="-138" type="curve" smooth="yes"/>
      <point x="-61" y="-169"/>
      <point x="-34" y="-194"/>
      <point x="0" y="-194" type="curve"/>
      <point x="-19" y="-173" type="line"/>
      <point x="-17" y="-202"/>
      <point x="-37" y="-248"/>
      <point x="-66" y="-284" type="curve"/>
    </contour>
    <contour>
      <point x="0" y="-50" type="move" name="_bottom.LC"/>
    </contour>
  </outline>
</glyph>
<glyph name="cedillacomb" format="1">
  <advance width="0"/>
  <unicode hex="0327"/>
  <outline>
    <contour>
      <point x="-135" y="-221" type="line"/>
      <point x="-107" y="-244"/>
      <point x="-71" y="-259"/>
      <point x="-29" y="-259" type="curve" smooth="yes"/>
      <point x="57" y="-259"/>
      <point x="107" y="-211"/>
      <point x="107" y="-149" type="curve" smooth="yes"/>
      <point x="107" y="-86"/>
      <point x="43" y="-44"/>
      <point x="-34" y="-46" type="curve"/>
      <point x="-1" y="-82" type="line"/>
      <point x="26" y="10" type="line"/>
      <point x="-41" y="10" type="line"/>
      <point x="-76" y="-114" type="line"/>
      <point x="-61" y="-110"/>
      <point x="-46" y="-108"/>
      <point x="-34" y="-108" type="curve" smooth="yes"/>
      <point x="3" y="-108"/>
      <point x="26" y="-126"/>
      <point x="26" y="-151" type="curve" smooth="yes"/>
      <point x="26" y="-175"/>
      <point x="5" y="-191"/>
      <point x="-26" y="-191" type="curve" smooth="yes"/>
      <point x="-54" y="-191"/>
      <point x="-81" y="-179"/>
      <point x="-98" y="-163" type="curve"/>
    </contour>
    <contour>
      <point x="0" y="-50" type="move" name="_bottom.LC"/>
    </contour>
  </outline>
</glyph>
<glyph name="ogonekcomb" format="1">
  <advance width="0"/>
  <unicode hex="0328"/>
  <outline>
    <contour>
      <point x="116" y="-167" type="line"/>
      <point x="105" y="-170"/>
      <point x="94" y="-171"/>
      <point x="87" y="-171" type="curve" smooth="yes"/>
      <point x="53" y="-171"/>
      <point x="27" y="-153"/>
      <point x="27" y="-116" type="curve" smooth="yes"/>
      <point x="27" y="-79"/>
      <point x="53" y="-39"/>
      <point x="116" y="0" type="curve"/>
      <point x="51" y="22" type="line"/>
      <point x="-27" y="-28"/>
      <point x="-61" y="-78"/>
      <point x="-61" y="-137" type="curve" smooth="yes"/>
      <point x="-61" y="-210"/>
      <point x="-3" y="-250"/>
      <point x="74" y="-250" type="curve" smooth="yes"/>
      <point x="88" y="-250"/>
      <point x="102" y="-249"/>
      <point x="116" y="-246" type="curve"/>
    </contour>
    <contour>
      <point x="0" y="-30" type="move" name="_ogonek.LC"/>
    </contour>
  </outline>
</glyph>
<glyph name="Dje" format="2">
	<unicode hex="0402"/>
	<advance width="755"/>
	<outline>
		<contour>
			<point x="383" y="0" type="line"/>
			<point x="440" y="0" type="line" smooth="yes"/>
			<point x="617" y="0"/>
			<point x="712" y="78"/>
			<point x="712" y="224" type="curve" smooth="yes"/>
			<point x="712" y="365"/>
			<point x="617" y="448"/>
			<point x="454" y="448" type="curve" smooth="yes"/>
			<point x="369" y="448"/>
			<point x="293" y="426"/>
			<point x="230" y="385" type="curve"/>
			<point x="257" y="302" type="line"/>
			<point x="310" y="331"/>
			<point x="372" y="347"/>
			<point x="438" y="347" type="curve" smooth="yes"/>
			<point x="541" y="347"/>
			<point x="597" y="302"/>
			<point x="597" y="221" type="curve" smooth="yes"/>
			<point x="597" y="141"/>
			<point x="541" y="99"/>
			<point x="430" y="99" type="curve" smooth="yes"/>
			<point x="383" y="99" type="line"/>
		</contour>
		<contour>
			<point x="159" y="0" type="line"/>
			<point x="274" y="0" type="line"/>
			<point x="274" y="680" type="line"/>
			<point x="159" y="680" type="line"/>
		</contour>
		<contour>
			<point x="16" y="616" type="line"/>
			<point x="541" y="616" type="line"/>
			<point x="541" y="715" type="line"/>
			<point x="16" y="715" type="line"/>
		</contour>
	</outline>
</glyph>
<glyph name="Ieukrain" format="1">
  <advance width="748"/>
  <unicode hex="0404"/>
  <outline>
    <contour>
      <point x="422" y="-16" type="curve" smooth="yes"/>
      <point x="542" y="-16"/>
      <point x="647" y="36"/>
      <point x="711" y="119" type="curve"/>
      <point x="634" y="196" type="line"/>
      <point x="586" y="126"/>
      <point x="512" y="86"/>
      <point x="425" y="86" type="curve" smooth="yes"/>
      <point x="280" y="86"/>
      <point x="173" y="202"/>
      <point x="173" y="357" type="curve" smooth="yes"/>
      <point x="173" y="513"/>
      <point x="280" y="629"/>
      <point x="425" y="629" type="curve" smooth="yes"/>
      <point x="512" y="629"/>
      <point x="586" y="589"/>
      <point x="634" y="519" type="curve"/>
      <point x="711" y="596" type="line"/>
      <point x="647" y="680"/>
      <point x="544" y="731"/>
      <point x="425" y="731" type="curve" smooth="yes"/>
      <point x="210" y="731"/>
      <point x="52" y="572"/>
      <point x="52" y="357" type="curve" smooth="yes"/>
      <point x="52" y="142"/>
      <point x="206" y="-16"/>
    </contour>
    <contour>
      <point x="123" y="319" type="line"/>
      <point x="558" y="319" type="line"/>
      <point x="558" y="418" type="line"/>
      <point x="123" y="418" type="line"/>
    </contour>
    <contour>
      <point x="421" y="-50" type="move" name="bottom.UC"/>
    </contour>
    <contour>
      <point x="421" y="750" type="move" name="top.UC"/>
    </contour>
  </outline>
</glyph>
<glyph name="Iukrain" format="1">
  <advance width="293"/>
  <unicode hex="0406"/>
  <outline>
    <component base="I" xOffset="13"/>
    <contour>
      <point x="133" y="750" type="move" name="top.UC"/>
    </contour>
  </outline>
</glyph>
<glyph name="Lje" format="2">
	<unicode hex="0409"/>
	<advance width="1115"/>
	<outline>
		<contour>
			<point x="24" y="0" type="line"/>
			<point x="97" y="0" type="line" smooth="yes"/>
			<point x="190" y="0"/>
			<point x="234" y="42"/>
			<point x="246" y="143" type="curve" smooth="yes"/>
			<point x="309" y="641" type="line"/>
			<point x="281" y="616" type="line"/>
			<point x="564" y="616" type="line"/>
			<point x="539" y="641" type="line"/>
			<point x="539" y="0" type="line"/>
			<point x="827" y="0" type="line" smooth="yes"/>
			<point x="977" y="0"/>
			<point x="1077" y="88"/>
			<point x="1077" y="218" type="curve" smooth="yes"/>
			<point x="1077" y="349"/>
			<point x="978" y="433"/>
			<point x="827" y="433" type="curve" smooth="yes"/>
			<point x="596" y="433" type="line"/>
			<point x="596" y="334" type="line"/>
			<point x="828" y="334" type="line" smooth="yes"/>
			<point x="910" y="334"/>
			<point x="960" y="290"/>
			<point x="960" y="218" type="curve" smooth="yes"/>
			<point x="960" y="144"/>
			<point x="910" y="99"/>
			<point x="828" y="99" type="curve" smooth="yes"/>
			<point x="629" y="99" type="line"/>
			<point x="654" y="74" type="line"/>
			<point x="654" y="715" type="line"/>
			<point x="205" y="715" type="line"/>
			<point x="137" y="151" type="line" smooth="yes"/>
			<point x="132" y="113"/>
			<point x="117" y="99"/>
			<point x="80" y="99" type="curve" smooth="yes"/>
			<point x="24" y="99" type="line"/>
		</contour>
	</outline>
</glyph>
<glyph name="Nje" format="1">
  <advance width="1135"/>
  <unicode hex="040A"/>
  <outline>
    <contour>
      <point x="549" y="0" type="line"/>
      <point x="848" y="0" type="line" smooth="yes"/>
      <point x="998" y="0"/>
      <point x="1097" y="85"/>
      <point x="1097" y="212" type="curve" smooth="yes"/>
      <point x="1097" y="339"/>
      <point x="999" y="422"/>
      <point x="848" y="422" type="curve" smooth="yes"/>
      <point x="606" y="422" type="line"/>
      <point x="606" y="324" type="line"/>
      <point x="848" y="324" type="line" smooth="yes"/>
      <point x="931" y="324"/>
      <point x="980" y="281"/>
      <point x="980" y="212" type="curve" smooth="yes"/>
      <point x="980" y="141"/>
      <point x="931" y="98"/>
      <point x="848" y="98" type="curve" smooth="yes"/>
      <point x="639" y="98" type="line"/>
      <point x="664" y="73" type="line"/>
      <point x="664" y="715" type="line"/>
      <point x="549" y="715" type="line"/>
    </contour>
    <contour>
      <point x="89" y="0" type="line"/>
      <point x="204" y="0" type="line"/>
      <point x="204" y="715" type="line"/>
      <point x="89" y="715" type="line"/>
    </contour>
    <contour>
      <point x="166" y="323" type="line"/>
      <point x="597" y="323" type="line"/>
      <point x="597" y="422" type="line"/>
      <point x="166" y="422" type="line"/>
    </contour>
    <contour>
      <point x="388" y="-50" type="move" name="bottom.UC"/>
    </contour>
    <contour>
      <point x="388" y="750" type="move" name="top.UC"/>
    </contour>
  </outline>
</glyph>
<glyph name="Tshe" format="1">
  <advance width="764"/>
  <unicode hex="040B"/>
  <outline>
    <contour>
      <point x="597" y="0" type="line"/>
      <point x="712" y="0" type="line"/>
      <point x="712" y="226" type="line" smooth="yes"/>
      <point x="712" y="370"/>
      <point x="621" y="448"/>
      <point x="462" y="448" type="curve" smooth="yes"/>
      <point x="371" y="448"/>
      <point x="294" y="428"/>
      <point x="230" y="385" type="curve"/>
      <point x="257" y="303" type="line"/>
      <point x="312" y="331"/>
      <point x="374" y="347"/>
      <point x="438" y="347" type="curve" smooth="yes"/>
      <point x="542" y="347"/>
      <point x="597" y="301"/>
      <point x="597" y="212" type="curve" smooth="yes"/>
    </contour>
    <contour>
      <point x="159" y="0" type="line"/>
      <point x="274" y="0" type="line"/>
      <point x="274" y="680" type="line"/>
      <point x="159" y="680" type="line"/>
    </contour>
    <contour>
      <point x="16" y="616" type="line"/>
      <point x="541" y="616" type="line"/>
      <point x="541" y="715" type="line"/>
      <point x="16" y="715" type="line"/>
    </contour>
  </outline>
</glyph>
<glyph name="Dzhe" format="2">
	<unicode hex="040F"/>
	<advance width="769"/>
	<outline>
		<contour>
			<point x="89" y="0" type="line"/>
			<point x="680" y="0" type="line"/>
			<point x="680" y="715" type="line"/>
			<point x="565" y="715" type="line"/>
			<point x="565" y="99" type="line"/>
			<point x="204" y="99" type="line"/>
			<point x="204" y="715" type="line"/>
			<point x="89" y="715" type="line"/>
		</contour>
		<contour>
			<point x="330" y="-174" type="line"/>
			<point x="439" y="-174" type="line"/>
			<point x="439" y="61" type="line"/>
			<point x="330" y="61" type="line"/>
		</contour>
	</outline>
</glyph>
<glyph name="Be" format="2">
	<unicode hex="0411"/>
	<advance width="673"/>
	<outline>
		<contour>
			<point x="89" y="0" type="line"/>
			<point x="388" y="0" type="line" smooth="yes"/>
			<point x="538" y="0"/>
			<point x="638" y="86"/>
			<point x="638" y="213" type="curve" smooth="yes"/>
			<point x="638" y="340"/>
			<point x="539" y="422"/>
			<point x="388" y="422" type="curve" smooth="yes"/>
			<point x="146" y="422" type="line"/>
			<point x="146" y="324" type="line"/>
			<point x="389" y="324" type="line" smooth="yes"/>
			<point x="471" y="324"/>
			<point x="521" y="283"/>
			<point x="521" y="213" type="curve" smooth="yes"/>
			<point x="521" y="141"/>
			<point x="471" y="98"/>
			<point x="389" y="98" type="curve" smooth="yes"/>
			<point x="192" y="98" type="line"/>
			<point x="204" y="86" type="line"/>
			<point x="204" y="715" type="line"/>
			<point x="89" y="715" type="line"/>
		</contour>
		<contour>
			<point x="153" y="616" type="line"/>
			<point x="582" y="616" type="line"/>
			<point x="582" y="715" type="line"/>
			<point x="153" y="715" type="line"/>
		</contour>
	</outline>
</glyph>
<glyph name="Ghe" format="1">
  <advance width="564"/>
  <unicode hex="0413"/>
  <outline>
    <contour>
      <point x="89" y="0" type="line"/>
      <point x="204" y="0" type="line"/>
      <point x="204" y="688" type="line"/>
      <point x="142" y="616" type="line"/>
      <point x="552" y="616" type="line"/>
      <point x="552" y="715" type="line"/>
      <point x="89" y="715" type="line"/>
    </contour>
    <contour>
      <point x="325" y="750" type="move" name="top.UC"/>
    </contour>
  </outline>
</glyph>
<glyph name="De" format="1">
  <advance width="808"/>
  <unicode hex="0414"/>
  <outline>
    <contour>
      <point x="66" y="50" type="line"/>
      <point x="119" y="50" type="line" smooth="yes"/>
      <point x="223" y="50"/>
      <point x="264" y="116"/>
      <point x="279" y="243" type="curve" smooth="yes"/>
      <point x="334" y="695" type="line"/>
      <point x="247" y="616" type="line"/>
      <point x="635" y="616" type="line"/>
      <point x="572" y="695" type="line"/>
      <point x="572" y="60" type="line"/>
      <point x="686" y="60" type="line"/>
      <point x="686" y="715" type="line"/>
      <point x="225" y="715" type="line"/>
      <point x="171" y="256" type="line" smooth="yes"/>
      <point x="157" y="145"/>
      <point x="136" y="99"/>
      <point x="99" y="99" type="curve" smooth="yes"/>
      <point x="66" y="99" type="line"/>
    </contour>
    <contour>
      <point x="31" y="-174" type="line"/>
      <point x="140" y="-174" type="line"/>
      <point x="140" y="59" type="line"/>
      <point x="97" y="0" type="line"/>
      <point x="732" y="0" type="line"/>
      <point x="658" y="66" type="line"/>
      <point x="658" y="-174" type="line"/>
      <point x="767" y="-174" type="line"/>
      <point x="767" y="99" type="line"/>
      <point x="31" y="99" type="line"/>
    </contour>
  </outline>
</glyph>
<glyph name="Ie" format="1">
  <advance width="627"/>
  <unicode hex="0415"/>
  <outline>
    <component base="E" xOffset="13"/>
    <contour>
      <point x="322" y="750" type="move" name="top.UC"/>
    </contour>
  </outline>
</glyph>
<glyph name="Zhe" format="1">
  <advance width="1056"/>
  <unicode hex="0416"/>
  <outline>
    <contour>
      <point x="896" y="0" type="line"/>
      <point x="1041" y="0" type="line"/>
      <point x="711" y="370" type="line"/>
      <point x="1022" y="715" type="line"/>
      <point x="884" y="715" type="line"/>
      <point x="576" y="371" type="line"/>
      <point x="561" y="371" type="line"/>
    </contour>
    <contour>
      <point x="15" y="0" type="line"/>
      <point x="160" y="0" type="line"/>
      <point x="495" y="371" type="line"/>
      <point x="480" y="371" type="line"/>
      <point x="172" y="715" type="line"/>
      <point x="34" y="715" type="line"/>
      <point x="345" y="370" type="line"/>
    </contour>
    <contour>
      <point x="470" y="0" type="line"/>
      <point x="585" y="0" type="line"/>
      <point x="585" y="715" type="line"/>
      <point x="470" y="715" type="line"/>
    </contour>
  </outline>
</glyph>
<glyph name="Ze" format="1">
  <advance width="651"/>
  <unicode hex="0417"/>
  <outline>
    <contour>
      <point x="313" y="-16" type="curve" smooth="yes"/>
      <point x="480" y="-16"/>
      <point x="606" y="78"/>
      <point x="606" y="205" type="curve" smooth="yes"/>
      <point x="606" y="286"/>
      <point x="555" y="350"/>
      <point x="470" y="378" type="curve"/>
      <point x="543" y="407"/>
      <point x="585" y="464"/>
      <point x="585" y="536" type="curve" smooth="yes"/>
      <point x="585" y="649"/>
      <point x="472" y="731"/>
      <point x="317" y="731" type="curve" smooth="yes"/>
      <point x="200" y="731"/>
      <point x="112" y="689"/>
      <point x="38" y="596" type="curve"/>
      <point x="114" y="522" type="line"/>
      <point x="174" y="599"/>
      <point x="231" y="629"/>
      <point x="314" y="629" type="curve" smooth="yes"/>
      <point x="406" y="629"/>
      <point x="468" y="586"/>
      <point x="468" y="523" type="curve" smooth="yes"/>
      <point x="468" y="460"/>
      <point x="414" y="419"/>
      <point x="330" y="419" type="curve" smooth="yes"/>
      <point x="185" y="419" type="line"/>
      <point x="185" y="321" type="line"/>
      <point x="329" y="321" type="line" smooth="yes"/>
      <point x="428" y="321"/>
      <point x="489" y="279"/>
      <point x="489" y="211" type="curve" smooth="yes"/>
      <point x="489" y="138"/>
      <point x="417" y="86"/>
      <point x="316" y="86" type="curve" smooth="yes"/>
      <point x="227" y="86"/>
      <point x="150" y="123"/>
      <point x="96" y="194" type="curve"/>
      <point x="20" y="119" type="line"/>
      <point x="88" y="32"/>
      <point x="193" y="-16"/>
    </contour>
  </outline>
</glyph>
<glyph name="Icyr" format="2">
	<unicode hex="0418"/>
	<advance width="779"/>
	<outline>
		<contour>
			<point x="89" y="0" type="line"/>
			<point x="211" y="0" type="line"/>
			<point x="647" y="658" type="line"/>
			<point x="575" y="658" type="line"/>
			<point x="575" y="0" type="line"/>
			<point x="690" y="0" type="line"/>
			<point x="690" y="715" type="line"/>
			<point x="566" y="715" type="line"/>
			<point x="130" y="58" type="line"/>
			<point x="204" y="58" type="line"/>
			<point x="204" y="715" type="line"/>
			<point x="89" y="715" type="line"/>
		</contour>
	</outline>
	<anchor name="top.UC" x="391" y="750"/>
</glyph>
<glyph name="El" format="1">
  <advance width="752"/>
  <unicode hex="041B"/>
  <outline>
    <contour>
      <point x="24" y="0" type="line"/>
      <point x="97" y="0" type="line" smooth="yes"/>
      <point x="190" y="0"/>
      <point x="234" y="42"/>
      <point x="246" y="143" type="curve" smooth="yes"/>
      <point x="315" y="695" type="line"/>
      <point x="235" y="616" type="line"/>
      <point x="613" y="616" type="line"/>
      <point x="548" y="695" type="line"/>
      <point x="548" y="0" type="line"/>
      <point x="663" y="0" type="line"/>
      <point x="663" y="715" type="line"/>
      <point x="205" y="715" type="line"/>
      <point x="137" y="151" type="line" smooth="yes"/>
      <point x="132" y="113"/>
      <point x="117" y="99"/>
      <point x="80" y="99" type="curve" smooth="yes"/>
      <point x="24" y="99" type="line"/>
    </contour>
  </outline>
</glyph>
<glyph name="Pe" format="2">
	<unicode hex="041F"/>
	<advance width="772"/>
	<outline>
		<contour>
			<point x="89" y="0" type="line"/>
			<point x="204" y="0" type="line"/>
			<point x="204" y="688" type="line"/>
			<point x="142" y="616" type="line"/>
			<point x="626" y="616" type="line"/>
			<point x="568" y="688" type="line"/>
			<point x="568" y="0" type="line"/>
			<point x="683" y="0" type="line"/>
			<point x="683" y="715" type="line"/>
			<point x="89" y="715" type="line"/>
		</contour>
	</outline>
</glyph>
<glyph name="Ucyr" format="1">
  <advance width="677"/>
  <unicode hex="0423"/>
  <outline>
    <contour>
      <point x="74" y="0" type="line"/>
      <point x="168" y="0" type="line" smooth="yes"/>
      <point x="273" y="0"/>
      <point x="328" y="40"/>
      <point x="383" y="150" type="curve" smooth="yes"/>
      <point x="661" y="715" type="line"/>
      <point x="543" y="715" type="line"/>
      <point x="303" y="211" type="line" smooth="yes"/>
      <point x="262" y="125"/>
      <point x="231" y="97"/>
      <point x="163" y="97" type="curve" smooth="yes"/>
      <point x="74" y="97" type="line"/>
    </contour>
    <contour>
      <point x="298" y="160" type="line"/>
      <point x="385" y="212" type="line"/>
      <point x="135" y="715" type="line"/>
      <point x="16" y="715" type="line"/>
    </contour>
    <contour>
      <point x="341" y="750" type="move" name="top.UC"/>
    </contour>
  </outline>
</glyph>
<glyph name="Ef" format="1">
  <advance width="884"/>
  <unicode hex="0424"/>
  <outline>
    <contour>
      <point x="442" y="72" type="curve" smooth="yes"/>
      <point x="698" y="72"/>
      <point x="832" y="170"/>
      <point x="832" y="358" type="curve" smooth="yes"/>
      <point x="832" y="545"/>
      <point x="699" y="643"/>
      <point x="442" y="643" type="curve" smooth="yes"/>
      <point x="186" y="643"/>
      <point x="52" y="545"/>
      <point x="52" y="358" type="curve" smooth="yes"/>
      <point x="52" y="170"/>
      <point x="186" y="72"/>
    </contour>
    <contour>
      <point x="442" y="169" type="curve" smooth="yes"/>
      <point x="256" y="169"/>
      <point x="167" y="230"/>
      <point x="167" y="358" type="curve" smooth="yes"/>
      <point x="167" y="487"/>
      <point x="255" y="546"/>
      <point x="442" y="546" type="curve" smooth="yes"/>
      <point x="630" y="546"/>
      <point x="717" y="487"/>
      <point x="717" y="358" type="curve" smooth="yes"/>
      <point x="717" y="228"/>
      <point x="630" y="169"/>
    </contour>
    <contour>
      <point x="385" y="-32" type="line"/>
      <point x="500" y="-32" type="line"/>
      <point x="500" y="104" type="line"/>
      <point x="496" y="148" type="line"/>
      <point x="496" y="571" type="line"/>
      <point x="500" y="610" type="line"/>
      <point x="500" y="747" type="line"/>
      <point x="385" y="747" type="line"/>
      <point x="385" y="610" type="line"/>
      <point x="388" y="571" type="line"/>
      <point x="388" y="148" type="line"/>
      <point x="385" y="104" type="line"/>
    </contour>
  </outline>
</glyph>
<glyph name="Tse" format="1">
  <advance width="802"/>
  <unicode hex="0426"/>
  <outline>
    <contour>
      <point x="89" y="0" type="line"/>
      <point x="680" y="0" type="line"/>
      <point x="680" y="715" type="line"/>
      <point x="565" y="715" type="line"/>
      <point x="565" y="27" type="line"/>
      <point x="623" y="99" type="line"/>
      <point x="142" y="99" type="line"/>
      <point x="204" y="27" type="line"/>
      <point x="204" y="715" type="line"/>
      <point x="89" y="715" type="line"/>
    </contour>
    <contour>
      <point x="652" y="-174" type="line"/>
      <point x="761" y="-174" type="line"/>
      <point x="761" y="99" type="line"/>
      <point x="652" y="99" type="line"/>
    </contour>
  </outline>
</glyph>
<glyph name="Che" format="1">
  <advance width="693"/>
  <unicode hex="0427"/>
  <outline>
    <contour>
      <point x="302" y="258" type="curve" smooth="yes"/>
      <point x="395" y="258"/>
      <point x="478" y="287"/>
      <point x="534" y="341" type="curve"/>
      <point x="500" y="413" type="line"/>
      <point x="457" y="380"/>
      <point x="388" y="358"/>
      <point x="320" y="358" type="curve" smooth="yes"/>
      <point x="220" y="358"/>
      <point x="167" y="405"/>
      <point x="167" y="494" type="curve" smooth="yes"/>
      <point x="167" y="715" type="line"/>
      <point x="52" y="715" type="line"/>
      <point x="52" y="481" type="line" smooth="yes"/>
      <point x="52" y="340"/>
      <point x="144" y="258"/>
    </contour>
    <contour>
      <point x="489" y="0" type="line"/>
      <point x="604" y="0" type="line"/>
      <point x="604" y="715" type="line"/>
      <point x="489" y="715" type="line"/>
    </contour>
  </outline>
</glyph>
<glyph name="Sha" format="1">
  <advance width="1126"/>
  <unicode hex="0428"/>
  <outline>
    <contour>
      <point x="89" y="0" type="line"/>
      <point x="1037" y="0" type="line"/>
      <point x="1037" y="715" type="line"/>
      <point x="922" y="715" type="line"/>
      <point x="922" y="23" type="line"/>
      <point x="988" y="99" type="line"/>
      <point x="577" y="99" type="line"/>
      <point x="621" y="23" type="line"/>
      <point x="621" y="715" type="line"/>
      <point x="506" y="715" type="line"/>
      <point x="506" y="23" type="line"/>
      <point x="550" y="99" type="line"/>
      <point x="138" y="99" type="line"/>
      <point x="204" y="23" type="line"/>
      <point x="204" y="715" type="line"/>
      <point x="89" y="715" type="line"/>
    </contour>
  </outline>
</glyph>
<glyph name="Shcha" format="2">
	<unicode hex="0429"/>
	<advance width="1160"/>
	<outline>
		<contour>
			<point x="89" y="0" type="line"/>
			<point x="1037" y="0" type="line"/>
			<point x="1037" y="715" type="line"/>
			<point x="922" y="715" type="line"/>
			<point x="922" y="47" type="line"/>
			<point x="970" y="99" type="line"/>
			<point x="589" y="99" type="line"/>
			<point x="621" y="47" type="line"/>
			<point x="621" y="715" type="line"/>
			<point x="506" y="715" type="line"/>
			<point x="506" y="47" type="line"/>
			<point x="538" y="99" type="line"/>
			<point x="156" y="99" type="line"/>
			<point x="204" y="47" type="line"/>
			<point x="204" y="715" type="line"/>
			<point x="89" y="715" type="line"/>
		</contour>
		<contour>
			<point x="1010" y="-174" type="line"/>
			<point x="1119" y="-174" type="line"/>
			<point x="1119" y="99" type="line"/>
			<point x="1010" y="99" type="line"/>
		</contour>
	</outline>
</glyph>
<glyph name="Hard" format="1">
  <advance width="746"/>
  <unicode hex="042A"/>
  <outline>
    <contour>
      <point x="159" y="0" type="line"/>
      <point x="459" y="0" type="line" smooth="yes"/>
      <point x="609" y="0"/>
      <point x="708" y="88"/>
      <point x="708" y="218" type="curve" smooth="yes"/>
      <point x="708" y="349"/>
      <point x="610" y="433"/>
      <point x="459" y="433" type="curve" smooth="yes"/>
      <point x="233" y="433" type="line"/>
      <point x="233" y="335" type="line"/>
      <point x="459" y="335" type="line" smooth="yes"/>
      <point x="541" y="335"/>
      <point x="591" y="291"/>
      <point x="591" y="218" type="curve" smooth="yes"/>
      <point x="591" y="143"/>
      <point x="541" y="99"/>
      <point x="459" y="99" type="curve" smooth="yes"/>
      <point x="262" y="99" type="line"/>
      <point x="274" y="87" type="line"/>
      <point x="274" y="715" type="line"/>
      <point x="16" y="715" type="line"/>
      <point x="16" y="616" type="line"/>
      <point x="171" y="616" type="line"/>
      <point x="159" y="628" type="line"/>
    </contour>
  </outline>
</glyph>
<glyph name="Soft" format="1">
  <advance width="676"/>
  <unicode hex="042C"/>
  <outline>
    <contour>
      <point x="89" y="0" type="line"/>
      <point x="388" y="0" type="line" smooth="yes"/>
      <point x="538" y="0"/>
      <point x="638" y="88"/>
      <point x="638" y="218" type="curve" smooth="yes"/>
      <point x="638" y="349"/>
      <point x="539" y="433"/>
      <point x="388" y="433" type="curve" smooth="yes"/>
      <point x="146" y="433" type="line"/>
      <point x="146" y="335" type="line"/>
      <point x="389" y="335" type="line" smooth="yes"/>
      <point x="471" y="335"/>
      <point x="521" y="291"/>
      <point x="521" y="218" type="curve" smooth="yes"/>
      <point x="521" y="143"/>
      <point x="471" y="99"/>
      <point x="389" y="99" type="curve" smooth="yes"/>
      <point x="192" y="99" type="line"/>
      <point x="204" y="85" type="line"/>
      <point x="204" y="715" type="line"/>
      <point x="89" y="715" type="line"/>
    </contour>
  </outline>
</glyph>
<glyph name="Ecyr" format="2">
	<unicode hex="042D"/>
	<advance width="745"/>
	<outline>
		<contour>
			<point x="332" y="-16" type="curve" smooth="yes"/>
			<point x="549" y="-16"/>
			<point x="693" y="138"/>
			<point x="693" y="357" type="curve" smooth="yes"/>
			<point x="693" y="576"/>
			<point x="543" y="731"/>
			<point x="329" y="731" type="curve" smooth="yes"/>
			<point x="205" y="731"/>
			<point x="101" y="678"/>
			<point x="35" y="596" type="curve"/>
			<point x="110" y="522" type="line"/>
			<point x="163" y="586"/>
			<point x="237" y="629"/>
			<point x="328" y="629" type="curve" smooth="yes"/>
			<point x="476" y="629"/>
			<point x="576" y="518"/>
			<point x="576" y="357" type="curve" smooth="yes"/>
			<point x="576" y="197"/>
			<point x="478" y="86"/>
			<point x="328" y="86" type="curve" smooth="yes"/>
			<point x="235" y="86"/>
			<point x="157" y="129"/>
			<point x="106" y="191" type="curve"/>
			<point x="33" y="119" type="line"/>
			<point x="96" y="37"/>
			<point x="206" y="-16"/>
		</contour>
		<contour>
			<point x="195" y="319" type="line"/>
			<point x="634" y="319" type="line"/>
			<point x="634" y="418" type="line"/>
			<point x="195" y="418" type="line"/>
		</contour>
	</outline>
</glyph>
<glyph name="Yu" format="1">
  <advance width="1095"/>
  <unicode hex="042E"/>
  <outline>
    <contour>
      <point x="684" y="-16" type="curve" smooth="yes"/>
      <point x="891" y="-16"/>
      <point x="1044" y="143"/>
      <point x="1044" y="358" type="curve" smooth="yes"/>
      <point x="1044" y="572"/>
      <point x="891" y="731"/>
      <point x="684" y="731" type="curve" smooth="yes"/>
      <point x="476" y="731"/>
      <point x="323" y="572"/>
      <point x="323" y="358" type="curve" smooth="yes"/>
      <point x="323" y="143"/>
      <point x="476" y="-16"/>
    </contour>
    <contour>
      <point x="89" y="0" type="line"/>
      <point x="204" y="0" type="line"/>
      <point x="204" y="715" type="line"/>
      <point x="89" y="715" type="line"/>
    </contour>
    <contour>
      <point x="166" y="319" type="line"/>
      <point x="397" y="319" type="line"/>
      <point x="397" y="418" type="line"/>
      <point x="166" y="418" type="line"/>
    </contour>
    <contour>
      <point x="684" y="86" type="curve" smooth="yes"/>
      <point x="542" y="86"/>
      <point x="444" y="198"/>
      <point x="444" y="358" type="curve" smooth="yes"/>
      <point x="444" y="517"/>
      <point x="542" y="629"/>
      <point x="684" y="629" type="curve" smooth="yes"/>
      <point x="826" y="629"/>
      <point x="923" y="518"/>
      <point x="923" y="358" type="curve" smooth="yes"/>
      <point x="923" y="198"/>
      <point x="826" y="86"/>
    </contour>
  </outline>
</glyph>
<glyph name="Ya" format="1">
  <advance width="700"/>
  <unicode hex="042F"/>
  <outline>
    <contour>
      <point x="496" y="0" type="line"/>
      <point x="611" y="0" type="line"/>
      <point x="611" y="715" type="line"/>
      <point x="325" y="715" type="line" smooth="yes"/>
      <point x="176" y="715"/>
      <point x="76" y="630"/>
      <point x="76" y="503" type="curve" smooth="yes"/>
      <point x="76" y="376"/>
      <point x="176" y="291"/>
      <point x="325" y="291" type="curve" smooth="yes"/>
      <point x="506" y="291" type="line"/>
      <point x="506" y="389" type="line"/>
      <point x="325" y="389" type="line" smooth="yes"/>
      <point x="243" y="389"/>
      <point x="193" y="432"/>
      <point x="193" y="503" type="curve" smooth="yes"/>
      <point x="193" y="574"/>
      <point x="243" y="617"/>
      <point x="325" y="617" type="curve" smooth="yes"/>
      <point x="496" y="617" type="line"/>
    </contour>
    <contour>
      <point x="27" y="0" type="line"/>
      <point x="164" y="0" type="line"/>
      <point x="396" y="333" type="line"/>
      <point x="268" y="333" type="line"/>
    </contour>
  </outline>
</glyph>
<glyph name="be" format="2">
	<unicode hex="0431"/>
	<advance width="607"/>
	<outline>
		<contour>
			<point x="308" y="-16" type="curve" smooth="yes"/>
			<point x="463" y="-16"/>
			<point x="565" y="86"/>
			<point x="565" y="241" type="curve" smooth="yes"/>
			<point x="565" y="379"/>
			<point x="481" y="478"/>
			<point x="338" y="478" type="curve" smooth="yes"/>
			<point x="235" y="478"/>
			<point x="146" y="417"/>
			<point x="127" y="315" type="curve"/>
			<point x="144" y="345" type="line"/>
			<point x="150" y="515"/>
			<point x="188" y="576"/>
			<point x="301" y="594" type="curve" smooth="yes"/>
			<point x="517" y="627" type="line"/>
			<point x="503" y="720" type="line"/>
			<point x="284" y="688" type="line" smooth="yes"/>
			<point x="116" y="664"/>
			<point x="42" y="558"/>
			<point x="42" y="336" type="curve" smooth="yes"/>
			<point x="42" y="110"/>
			<point x="137" y="-16"/>
		</contour>
		<contour>
			<point x="304" y="79" type="curve" smooth="yes"/>
			<point x="202" y="79"/>
			<point x="156" y="150"/>
			<point x="159" y="302" type="curve"/>
			<point x="155" y="246" type="line"/>
			<point x="172" y="331"/>
			<point x="234" y="386"/>
			<point x="311" y="386" type="curve" smooth="yes"/>
			<point x="399" y="386"/>
			<point x="449" y="331"/>
			<point x="449" y="236" type="curve" smooth="yes"/>
			<point x="449" y="138"/>
			<point x="395" y="79"/>
		</contour>
	</outline>
</glyph>
<glyph name="ve" format="1">
  <advance width="557"/>
  <unicode hex="0432"/>
  <outline>
    <contour>
      <point x="73" y="0" type="line"/>
      <point x="337" y="0" type="line" smooth="yes"/>
      <point x="443" y="0"/>
      <point x="527" y="58"/>
      <point x="527" y="144" type="curve" smooth="yes"/>
      <point x="527" y="204"/>
      <point x="482" y="247"/>
      <point x="419" y="265" type="curve"/>
      <point x="420" y="256" type="line"/>
      <point x="471" y="276"/>
      <point x="503" y="314"/>
      <point x="503" y="366" type="curve" smooth="yes"/>
      <point x="503" y="447"/>
      <point x="436" y="499"/>
      <point x="328" y="499" type="curve" smooth="yes"/>
      <point x="73" y="499" type="line"/>
    </contour>
    <contour>
      <point x="176" y="28" type="line"/>
      <point x="176" y="473" type="line"/>
      <point x="115" y="415" type="line"/>
      <point x="315" y="415" type="line" smooth="yes"/>
      <point x="370" y="415"/>
      <point x="392" y="397"/>
      <point x="392" y="358" type="curve" smooth="yes"/>
      <point x="392" y="319"/>
      <point x="371" y="297"/>
      <point x="315" y="297" type="curve" smooth="yes"/>
      <point x="129" y="297" type="line"/>
      <point x="129" y="218" type="line"/>
      <point x="323" y="218" type="line" smooth="yes"/>
      <point x="383" y="218"/>
      <point x="415" y="195"/>
      <point x="415" y="151" type="curve" smooth="yes"/>
      <point x="415" y="107"/>
      <point x="383" y="84"/>
      <point x="323" y="84" type="curve" smooth="yes"/>
      <point x="118" y="84" type="line"/>
    </contour>
  </outline>
</glyph>
<glyph name="ghe" format="1">
  <advance width="461"/>
  <unicode hex="0433"/>
  <outline>
    <contour>
      <point x="73" y="0" type="line"/>
      <point x="185" y="0" type="line"/>
      <point x="185" y="477" type="line"/>
      <point x="97" y="408" type="line"/>
      <point x="434" y="408" type="line"/>
      <point x="434" y="499" type="line"/>
      <point x="73" y="499" type="line"/>
    </contour>
    <contour>
      <point x="254" y="544" type="move" name="top.LC"/>
    </contour>
  </outline>
</glyph>
<glyph name="de" format="1">
  <advance width="636"/>
  <unicode hex="0434"/>
  <outline>
    <contour>
      <point x="46" y="47" type="line"/>
      <point x="91" y="47" type="line" smooth="yes"/>
      <point x="187" y="47"/>
      <point x="219" y="80"/>
      <point x="230" y="181" type="curve" smooth="yes"/>
      <point x="266" y="481" type="line"/>
      <point x="178" y="408" type="line"/>
      <point x="500" y="408" type="line"/>
      <point x="422" y="481" type="line"/>
      <point x="422" y="62" type="line"/>
      <point x="532" y="62" type="line"/>
      <point x="532" y="499" type="line"/>
      <point x="159" y="499" type="line"/>
      <point x="125" y="190" type="line" smooth="yes"/>
      <point x="117" y="112"/>
      <point x="104" y="91"/>
      <point x="62" y="91" type="curve" smooth="yes"/>
      <point x="46" y="91" type="line"/>
    </contour>
    <contour>
      <point x="22" y="-134" type="line"/>
      <point x="128" y="-134" type="line"/>
      <point x="128" y="65" type="line"/>
      <point x="88" y="0" type="line"/>
      <point x="568" y="0" type="line"/>
      <point x="505" y="65" type="line"/>
      <point x="505" y="-134" type="line"/>
      <point x="610" y="-134" type="line"/>
      <point x="610" y="91" type="line"/>
      <point x="22" y="91" type="line"/>
    </contour>
  </outline>
</glyph>
<glyph name="ze" format="1">
  <advance width="501"/>
  <unicode hex="0437"/>
  <outline>
    <contour>
      <point x="239" y="-16" type="curve" smooth="yes"/>
      <point x="372" y="-16"/>
      <point x="470" y="53"/>
      <point x="470" y="145" type="curve" smooth="yes"/>
      <point x="470" y="206"/>
      <point x="431" y="249"/>
      <point x="363" y="267" type="curve"/>
      <point x="363" y="259" type="line"/>
      <point x="422" y="276"/>
      <point x="455" y="317"/>
      <point x="455" y="370" type="curve" smooth="yes"/>
      <point x="455" y="454"/>
      <point x="363" y="515"/>
      <point x="239" y="515" type="curve" smooth="yes"/>
      <point x="153" y="515"/>
      <point x="82" y="486"/>
      <point x="26" y="429" type="curve"/>
      <point x="87" y="359" type="line"/>
      <point x="130" y="404"/>
      <point x="177" y="424"/>
      <point x="236" y="424" type="curve" smooth="yes"/>
      <point x="303" y="424"/>
      <point x="346" y="399"/>
      <point x="346" y="357" type="curve" smooth="yes"/>
      <point x="346" y="316"/>
      <point x="312" y="295"/>
      <point x="249" y="295" type="curve" smooth="yes"/>
      <point x="148" y="295" type="line"/>
      <point x="148" y="216" type="line"/>
      <point x="248" y="216" type="line" smooth="yes"/>
      <point x="324" y="216"/>
      <point x="360" y="195"/>
      <point x="360" y="152" type="curve" smooth="yes"/>
      <point x="360" y="104"/>
      <point x="314" y="75"/>
      <point x="236" y="75" type="curve" smooth="yes"/>
      <point x="171" y="75"/>
      <point x="118" y="97"/>
      <point x="74" y="140" type="curve"/>
      <point x="13" y="72" type="line"/>
      <point x="68" y="14"/>
      <point x="154" y="-16"/>
    </contour>
  </outline>
</glyph>
<glyph name="icyr" format="1">
  <advance width="620"/>
  <unicode hex="0438"/>
  <outline>
    <contour>
      <point x="73" y="0" type="line"/>
      <point x="171" y="0" type="line"/>
      <point x="446" y="352" type="line"/>
      <point x="439" y="355" type="line"/>
      <point x="439" y="0" type="line"/>
      <point x="547" y="0" type="line"/>
      <point x="547" y="499" type="line"/>
      <point x="449" y="499" type="line"/>
      <point x="173" y="147" type="line"/>
      <point x="181" y="144" type="line"/>
      <point x="181" y="499" type="line"/>
      <point x="73" y="499" type="line"/>
    </contour>
    <contour>
      <point x="315" y="544" type="move" name="top.LC"/>
    </contour>
  </outline>
</glyph>
<glyph name="ka" format="2">
	<unicode hex="043A"/>
	<advance width="570"/>
	<outline>
		<contour>
			<point x="412" y="0" type="line"/>
			<point x="558" y="0" type="line"/>
			<point x="261" y="297" type="line"/>
			<point x="274" y="227" type="line"/>
			<point x="535" y="499" type="line"/>
			<point x="397" y="499" type="line"/>
			<point x="167" y="259" type="line"/>
			<point x="156" y="259" type="line"/>
		</contour>
		<contour>
			<point x="73" y="0" type="line"/>
			<point x="185" y="0" type="line"/>
			<point x="185" y="499" type="line"/>
			<point x="73" y="499" type="line"/>
		</contour>
	</outline>
	<anchor name="top.LC" x="297" y="544"/>
</glyph>
<glyph name="el" format="1">
  <advance width="595"/>
  <unicode hex="043B"/>
  <outline>
    <contour>
      <point x="19" y="0" type="line"/>
      <point x="74" y="0" type="line" smooth="yes"/>
      <point x="164" y="0"/>
      <point x="206" y="32"/>
      <point x="215" y="129" type="curve" smooth="yes"/>
      <point x="249" y="481" type="line"/>
      <point x="164" y="408" type="line"/>
      <point x="491" y="408" type="line"/>
      <point x="411" y="481" type="line"/>
      <point x="411" y="0" type="line"/>
      <point x="523" y="0" type="line"/>
      <point x="523" y="499" type="line"/>
      <point x="143" y="499" type="line"/>
      <point x="111" y="151" type="line" smooth="yes"/>
      <point x="108" y="108"/>
      <point x="91" y="93"/>
      <point x="55" y="93" type="curve" smooth="yes"/>
      <point x="19" y="93" type="line"/>
    </contour>
  </outline>
</glyph>
<glyph name="em" format="1">
  <advance width="740"/>
  <unicode hex="043C"/>
  <outline>
    <contour>
      <point x="73" y="0" type="line"/>
      <point x="172" y="0" type="line"/>
      <point x="172" y="458" type="line"/>
      <point x="124" y="437" type="line"/>
      <point x="328" y="50" type="line"/>
      <point x="405" y="50" type="line"/>
      <point x="609" y="437" type="line"/>
      <point x="564" y="462" type="line"/>
      <point x="564" y="0" type="line"/>
      <point x="667" y="0" type="line"/>
      <point x="667" y="499" type="line"/>
      <point x="544" y="499" type="line"/>
      <point x="360" y="148" type="line"/>
      <point x="378" y="147" type="line"/>
      <point x="191" y="499" type="line"/>
      <point x="73" y="499" type="line"/>
    </contour>
  </outline>
</glyph>
<glyph name="en" format="1">
  <advance width="622"/>
  <unicode hex="043D"/>
  <outline>
    <contour>
      <point x="437" y="0" type="line"/>
      <point x="549" y="0" type="line"/>
      <point x="549" y="499" type="line"/>
      <point x="437" y="499" type="line"/>
    </contour>
    <contour>
      <point x="73" y="0" type="line"/>
      <point x="185" y="0" type="line"/>
      <point x="185" y="499" type="line"/>
      <point x="73" y="499" type="line"/>
    </contour>
    <contour>
      <point x="126" y="216" type="line"/>
      <point x="501" y="216" type="line"/>
      <point x="501" y="308" type="line"/>
      <point x="126" y="308" type="line"/>
    </contour>
  </outline>
</glyph>
<glyph name="pe" format="1">
  <advance width="607"/>
  <unicode hex="043F"/>
  <outline>
    <contour>
      <point x="73" y="0" type="line"/>
      <point x="185" y="0" type="line"/>
      <point x="185" y="481" type="line"/>
      <point x="99" y="408" type="line"/>
      <point x="502" y="408" type="line"/>
      <point x="422" y="481" type="line"/>
      <point x="422" y="0" type="line"/>
      <point x="534" y="0" type="line"/>
      <point x="534" y="499" type="line"/>
      <point x="73" y="499" type="line"/>
    </contour>
  </outline>
</glyph>
<glyph name="te" format="1">
  <advance width="507"/>
  <unicode hex="0442"/>
  <outline>
    <contour>
      <point x="198" y="0" type="line"/>
      <point x="310" y="0" type="line"/>
      <point x="310" y="462" type="line"/>
      <point x="198" y="462" type="line"/>
    </contour>
    <contour>
      <point x="23" y="408" type="line"/>
      <point x="484" y="408" type="line"/>
      <point x="484" y="499" type="line"/>
      <point x="23" y="499" type="line"/>
    </contour>
  </outline>
</glyph>
<glyph name="ef" format="2">
	<unicode hex="0444"/>
	<advance width="793"/>
	<outline>
		<contour>
			<point x="376" y="-16" type="curve" smooth="yes"/>
			<point x="417" y="-16" type="line" smooth="yes"/>
			<point x="622" y="-16"/>
			<point x="751" y="87"/>
			<point x="751" y="250" type="curve" smooth="yes"/>
			<point x="751" y="413"/>
			<point x="622" y="515"/>
			<point x="417" y="515" type="curve" smooth="yes"/>
			<point x="376" y="515" type="line" smooth="yes"/>
			<point x="171" y="515"/>
			<point x="42" y="413"/>
			<point x="42" y="250" type="curve" smooth="yes"/>
			<point x="42" y="87"/>
			<point x="171" y="-16"/>
		</contour>
		<contour>
			<point x="376" y="77" type="line" smooth="yes"/>
			<point x="230" y="77"/>
			<point x="154" y="136"/>
			<point x="154" y="250" type="curve" smooth="yes"/>
			<point x="154" y="363"/>
			<point x="230" y="422"/>
			<point x="376" y="422" type="curve" smooth="yes"/>
			<point x="417" y="422" type="line" smooth="yes"/>
			<point x="563" y="422"/>
			<point x="639" y="363"/>
			<point x="639" y="250" type="curve" smooth="yes"/>
			<point x="639" y="136"/>
			<point x="563" y="77"/>
			<point x="417" y="77" type="curve" smooth="yes"/>
		</contour>
		<contour>
			<point x="342" y="-204" type="line"/>
			<point x="452" y="-204" type="line"/>
			<point x="452" y="27" type="line"/>
			<point x="450" y="42" type="line"/>
			<point x="450" y="448" type="line"/>
			<point x="452" y="465" type="line"/>
			<point x="452" y="720" type="line"/>
			<point x="342" y="720" type="line"/>
			<point x="342" y="465" type="line"/>
			<point x="344" y="448" type="line"/>
			<point x="344" y="42" type="line"/>
			<point x="342" y="27" type="line"/>
		</contour>
	</outline>
</glyph>
